<svg xmlns="http://www.w3.org/2000/svg" viewBox="0 0 3840 2160"><g xmlns:inkscape="http://www.inkscape.org/namespaces/inkscape" fill="none" stroke="#000" stroke-linejoin="round" stroke-width="3"><path d="m2612 685 4-69-68-23m-553-192-60-21h-1m-713 221 671 297"/><path d="m1895 1829-3-931 538-210 10-4 176-68"/><path d="m1289 580-68 21 53 850 621 378 74-40m543-291 51-28v-9m-1626-86 25 266 2 2"/><path d="m953 1375 6-2 6-2 9-5 5-6v-6l-42-91-23 96v6l5 5 9 4 9 1 3 1 13-1m273 141 2-1 3 1 2 2 2 3 2 4v6l-1 3m-10-18-12 5-232 102"/><path d="m1222 1540 4 4 7 7 7 2 6-1 67-64-91 7-5 2-4 7v9l1 8"/><path d="m1222 1496 7 2 8 6 6 10 5 11 2 11-1 10-3 6m-282 91 1 3 2 2 172 119"/><path d="m1171 1739-10 3-10 6-1 1-8 10-3 8-2 4-2 12 3 9 7 7 85 17-43-69-7-6-9-2m119-1151v-8l-2-34h-1l2 34v8"/><path d="M1288 546v1h-1v-1m2 42h1m-1-3h-2l-3 1-2 1-1 1v1l9 13 8-14v-1l-1-1-3-1h-4"/><path d="m1281 589 2 1 2 1h7l3-1 2-1 1-1m70-24v-8l-2-33v-1h-1v1l2 33v8m-1-41h-1m2 41h1"/><path d="M1367 561h-2l-3 1-2 1-1 1v1l9 13 8-14v-1l-1-1-3-1h-4"/><path d="m1359 565 2 1 2 1h7l3-1 2-1 1-1m68-24v-8l-1-33h-1l1 33v8m0-41h-2m2 41h1"/><path d="M1443 537h-2l-3 1-2 1-1 1v1l9 13 8-14v-1l-1-1-3-1h-4"/><path d="m1435 541 2 1 3 1h6l3-1 2-1 1-1m67-23v-8l-2-33h-1l1 33 1 5v3"/><path d="M1517 476v1h-1v-1m2 41h1m-1-3h-2l-3 1-2 1-1 1v1l9 12 8-13-1-1-1-1-3-1h-3"/><path d="m1510 518 2 1 2 1h7l3-1 2-1 1-1m65-23v-8l-1-32h-1v33l1 4v3m0-40h-2m2 40v1l1-1"/><path d="m1591 491-2 1h-3l-2 1-1 1v1l9 13 8-14-1-1-1-1h-3l-3-1"/><path d="m1583 495 2 1 2 1h7l3-1h2l1-2m63-22v-8l-1-32h-1l1 33v7"/><path d="M1662 432v1h-1v-1m1 40h1m-1-3h-2l-3 1-2 1-1 1 1 1 8 12 8-13v-1l-2-1h-3l-3-1"/><path d="m1655 473 1 1 3 1h6l3-1 2-1 1-1m62-22v-7l-1-32h-1l1 32v7m0-39h-1m1 39v1h1v-1"/><path d="M1732 448h-5l-2 1-1 1 1 1 8 13 8-13-1-2h-1l-3-1h-3"/><path d="m1725 451 1 1 3 1h9l2-1 1-1m60-22v-39h-1v39m1-39h-1m0 39h1"/><path d="M1800 427h-5l-2 1v2l8 12 8-13v-1l-2-1h-3l-3-1"/><path d="m1793 430 2 1 2 1h7l2-1 2-1 1-1m59-21v-39h-1v39m1-38h-1m0 38v1h1v-1m-1-2h-5l-2 1v2l2 3"/><path d="m1860 409 2 1 2 1h7l2-1 2-1 1-1-1-1h-1l-3-1h-3"/><path d="m1863 414 5 7 8-13m58-20v-39h-1v39m1-38h-1m0 38h1m-1-3-3 1h-2l-2 1-1 1 1 1 3 5"/><path d="m1926 389 1 1h3l3 1 3-1h3l2-1v-2l-2-1h-2l-2-1h-1"/><path d="m1930 396 3 5 2-3 6-10m-590 226v-3l-2-39h-1l2 39v3"/><path d="m1349 572-1 1v-1m2 42v1h1v-1"/><path d="M1350 611h-2l-3 1-2 1-2 1 1 2 9 12 8-14v-1l-2-1-2-1h-4"/><path d="m1342 616 1 1h3l3 1 4-1h3l2-1 1-2m70-24v-4l-2-38h-1l2 38v4m-1-42h-1m2 42h1"/><path d="m1428 586-2 1h-3l-2 1-1 1v2l9 12 8-13v-2l-2-1h-2l-3-1h-1"/><path d="m1420 591 2 1 2 1h7l3-1 2-1 1-1m69-25-1-3-1-38h-1l1 38v3m0-41h-1m1 41h1v1-1h1"/><path d="M1504 562h-2l-3 1-2 1-1 1 1 1 8 13 9-14-1-1-1-1-3-1h-4"/><path d="m1497 566 1 1 3 1h9l3-1 1-2m66-23v-3l-1-38v-1h-1v1l1 38v3m0-41h-1m1 41h1"/><path d="M1579 539h-5l-2 1-1 2v1l9 12 8-13v-1l-2-2h-6"/><path d="m1571 543 2 1h3l3 1 3-1h3l2-1 1-1m65-24v-3l-1-37h-1l1 37v3m0-40h-1m1 40v1h1v-1"/><path d="m1652 515-2 1h-3l-2 1-1 1 1 1 8 13 8-14v-1l-2-1h-2l-4-1"/><path d="m1645 519 1 1 3 1h9l2-1 1-2m64-22v-3l-1-37v-1h-1v1l1 37v3m0-40h-1m1 40h1"/><path d="M1724 493h-2l-3 1h-2l-1 2v1l9 12 8-13-1-1-1-1-3-1h-3"/><path d="m1716 497 2 1h2l4 1 3-1h3l2-1 1-1m62-22v-3l-1-37v-1l-1 1 1 37v2m0-39h-1"/><path d="M1794 473v1h1"/><path d="M1794 471h-5l-2 1-1 1v2l8 12 9-13-1-2h-2l-2-1h-3"/><path d="M1786 475h2l3 1h9l2-1 1-1m60-22v-40h-1v40m1-40h-1m0 40h1m-1-3h-2l-3 1-2 1-1 1 1 1 2 4"/><path d="m1855 453 2 1h2l3 1 4-1h2l2-1 1-1-1-1-1-1-3-1h-3"/><path d="m1858 457 5 8 8-13m59-22v-39h-1v39"/><path d="M1930 391v1-1h-1m0 39v1h1v-1m-1-2h-5l-2 1v2l4 6"/><path d="m1922 431 2 1 2 1h7l2-1h2l1-1-1-2h-1l-1-1h-5"/><path d="m1927 439 3 4 5-8 3-4m58-21v-39h-1v39m1-39h-1m0 39h1m-1-3h-3l-2 1-2 1-1 1 1 1 5 8"/><path d="m1988 411 2 1h11l2-1v-2l-2-1-2-1h-3"/><path d="m1994 420 1 3 8-13m-590 231v-3l-2-39h-1l2 39v3m-1-42h-1m2 42v1h1v-1"/><path d="M1412 638h-2l-3 1-2 1-2 1 1 2 9 12 9-14-1-1-1-1-3-1h-4"/><path d="m1404 643 1 1h3l4 1h3l3-1 3-1 1-2m70-25-1-3-1-39h-1l1 39v3m0-42h-1m1 42h2"/><path d="M1490 613h-2l-3 1-2 1-1 1v1l10 13 8-14v-1l-2-1-3-1h-4"/><path d="m1482 617 2 1 3 1h7l3-1 2-1 1-1m68-25v-3l-1-39h-1l1 39v3"/><path d="M1567 549v1h-1v-1m1 42h1m-1-3h-2l-3 1-2 1-1 1v1l9 13 8-14v-1l-2-1-2-1h-4"/><path d="m1559 592 2 1 2 1h7l3-1 2-1 1-1m67-24v-3l-1-39h-1l1 39v3"/><path d="M1642 525v1h-1v-1m1 42h1m-1-3h-5l-2 1-1 2v1l9 12 8-13v-1l-2-1-2-1h-4"/><path d="m1634 568 2 1 3 1h6l3-1 2-1 1-1m65-24v-41h-2l1 38v3m1-41h-2m1 41h1"/><path d="M1715 540h-2l-3 1-2 1-1 1 1 1 8 13 8-14v-1l-2-1-2-1h-4"/><path d="m1708 544 1 1 3 1h7l2-1 3-1v-1m64-23v-41h-2l1 38v3m1-41h-2m1 41h1"/><path d="M1787 517h-2l-3 1-2 1-1 1v1l9 12 8-13-1-1-1-1-3-1h-3"/><path d="m1779 521 2 1 3 1h6l3-1 2-1 1-1m62-23v-40h-1v40m1-40h-1m0 40h1"/><path d="M1857 494h-2l-3 1-2 1-1 1 1 1 8 12 8-13-1-1-1-1-3-1h-3"/><path d="m1850 498 1 1 3 1h6l3-1 2-1 1-1m61-22v-40h-1v2l-1 35v3m2-40h-2m1 40h1"/><path d="M1926 472h-3l-3 1-2 1v2l4 5"/><path d="m1918 476 2 1h3l3 1h3l3-1 2-1v-2l-2-1-3-1h-2"/><path d="m1923 483 3 5 8-13m60-22v-40h-1v40m1-39h-1m0 39h1m-1-3h-3l-3 1-1 1-1 1v1l6 8"/><path d="m1985 454 2 1 3 1h6l3-1 2-1v-2l-2-1h-3l-2-1m-2 14 1 2 8-12m58-22v-3l1-6v-31h-1v1l-1 30v9m2-39h-1m-1 39h1m-1-3h-2l-3 1-2 1v2l7 10"/><path d="m2051 433 2 1h3l3 1 3-1h3l2-1v-2l-2-1-3-1h-2m-583 240v-3l-2-40h-1l2 40v3m-1-43h-1m2 43h1"/><path d="M1476 666h-5l-3 2-1 1v1l10 13 9-14-1-1-2-1-2-1h-4"/><path d="m1468 670 1 1 3 1h10l2-2 2-1m70-26-1-3-1-40h-1l1 40v3"/><path d="M1554 600v1h-1v-1m1 43h2m-2-3h-5l-2 2-1 1v1l9 13 9-14v-1l-2-1-3-1h-4"/><path d="m1546 644 2 1 3 1h7l3-1 2-1 1-1m68-26v-3l-1-39h-1l1 39v3"/><path d="M1631 575v1h-1v-1m1 42v1h1v-1"/><path d="M1631 614h-2l-3 1-2 1-1 1v2l9 12 9-13-1-2-1-1-3-1h-4"/><path d="m1623 619 2 1h3l3 1h4l3-1 2-1 1-1m66-25v-42h-2l1 38v4m1-42h-1m0 42h1"/><path d="m1706 589-2 1h-3l-2 1-1 1v2l9 12 9-13-1-2-1-1h-3l-4-1"/><path d="m1698 594 2 1 3 1h7l3-1 2-1 1-1m65-25v-3l-1-38h-1l1 38v3m0-41h-1m1 41h1"/><path d="M1780 565h-3l-3 1-2 1-1 1 1 1 8 13 9-14-1-1-1-1-3-1h-3"/><path d="m1772 569 2 1 2 1h10l2-1 1-2m64-24v-3l-1-38h-1v41"/><path d="M1852 504h-1v-1m1 41v1h1v-1"/><path d="m1851 541-2 1h-3l-2 1-1 1 1 2 8 12 9-13-1-2-2-1h-2l-3-1"/><path d="m1844 546 2 1h2l4 1 3-1h3l2-1 1-1m62-24v-41h-1v41m1-40h-1m0 40h1m-1-3h-3l-3 1-2 1v2l4 6"/><path d="m1914 522 2 1 3 1h6l3-1 2-1 1-1-1-1-2-1-2-1h-3"/><path d="m1919 529 3 6 9-14m60-23v-2l1-32v-6h-1v4l-1 34v2m2-40h-1m-1 40v1h1v-1m-1-2h-5l-2 1-1 1 1 1 5 9"/><path d="m1983 499 2 1 3 1h9l2-1v-3l-2-1h-6m-2 13 2 3 3-5 1-1 4-6m60-24v-40h-1v37l-1 3m2-40h-1m0 40h1"/><path d="M2058 473h-3l-3 1-2 1v2l7 11"/><path d="m2050 477 2 1 3 1h6l3-1 2-1v-2l-2-1h-3l-2-1m65-19v-2l1-6v-31h-1l-1 30v9m2-39h-1m-1 39v1h1v-1"/><path d="M2123 452h-5l-2 1-1 1 1 1 7 11v1l1 1v-2"/><path d="m2116 455 2 1 3 1h6l3-1h2v-3l-2-1h-6m-582 245v-3l-1-40h-1l1 40v3m0-43h-1m1 43v1h1v-1"/><path d="M1541 694h-2l-3 1-3 1-1 1 1 2 9 13 9-15v-1l-2-1-3-1h-4"/><path d="m1533 699 1 1 3 1h7l4-1 2-1 1-2m70-26v-4l-1-39v-1h-1v1l1 39v4m0-43h-1m1 43h1"/><path d="M1620 667h-2l-3 1-3 1-1 1 1 2 9 13 9-14-1-2-1-1-3-1h-4"/><path d="m1612 672 1 1 3 1h7l3-1 3-1 1-1m68-27v-3l-1-39h-1l1 39v3m0-42h-1m1 42v1h1v-1"/><path d="M1697 641h-2l-3 1-3 1-1 1 1 2 9 13 9-14-1-2-2-1-2-1h-4"/><path d="m1689 646 2 1 2 1h7l4-1 2-1 1-1m66-26v-42h-1v42m1-42h-1m0 42h1"/><path d="M1772 616h-2l-3 1-2 1-1 1v1l9 13 9-14-1-1-2-1-2-1h-4"/><path d="m1764 620 2 1 3 1h7l3-1 2-1 1-1m65-25v-42h-2l1 39v3"/><path d="M1847 552h-1v1-1h-1m1 42h1m-1-3h-3l-3 1-2 1-1 1 1 1 8 13 9-14v-1l-2-1-3-1h-3"/><path d="m1838 595 2 1 3 1h6l3-1 2-1 1-1m64-24v-42h-1v42"/><path d="m1919 528-1 1v-1m0 42h1m-1-3h-6l-2 1-1 2 1 1 8 12 8-12 1-1-1-1-1-1-3-1h-3"/><path d="m1910 571 2 1 3 1h6l3-1 2-1m63-25v-41h-1v41m1-41h-1m0 41h1m-1-3h-3l-3 1-2 1v2l6 8"/><path d="m1980 547 2 1 3 1h7l3-1 1-1 1-1v-1l-2-1-3-1h-3"/><path d="m1987 557 1 2 8-12m62-24v-41h-1v41m1-41h-1m0 41h1m-1-3h-6l-2 1v3l4 5v1l3 5"/><path d="m2049 524 2 1h3l3 1 3-1h3l2-1 1-1-1-1-2-1-2-1h-3m67-20v-3l1-31v-7h-1v1l-1 5v35m2-40h-1m-1 40h1"/><path d="M2124 497h-3l-3 1-1 1-1 1 1 1 7 12 1-1"/><path d="m2117 501 1 1 3 1h7l2-1 2-1 1-1-1-1-2-1-2-1h-3m66-19v-9l1-31v-1h-1v1l-1 31v9m2-40h-1m-1 40h1"/><path d="M2190 475h-6l-2 1v1l6 11 1 1 1 2 2-3 1-1"/><path d="M2182 477v2l2 1h12l2-1 1-1-1-2h-2l-3-1h-2m-582 251v-3l-1-40v-1h-1v1l1 40v3m0-43h-1m1 43v1h1v-1"/><path d="M1608 723h-2l-3 1-3 1-1 1 1 2 9 13 9-15v-1l-2-1-3-1h-4"/><path d="m1600 728 1 1 3 1h8l3-1 2-1 1-2m70-27v-4l-1-39v-1h-1v1l1 39v4m0-43h-1m1 43h1"/><path d="m1687 695-2 1h-3l-3 1-1 2 1 1 9 13 9-14v-1l-2-1-3-1-4-1"/><path d="m1679 700 2 1 3 1 3 1 4-1h3l2-2 1-1m69-27-1-3v-40h-1v43m1-43h-1m0 43h2"/><path d="M1764 669h-2l-3 1-2 1-1 1v1l9 13 9-14v-1l-2-1-3-1h-3"/><path d="m1756 673 2 2h3l3 1 4-1h3l2-1 1-2m67-26v-43h-2l1 40v3"/><path d="M1841 604h-2v-1m1 43h1m-1-3h-3l-3 1-2 1-1 1 1 1 8 13 9-14v-1l-2-1-3-1h-3"/><path d="m1832 647 2 1 3 1h10l2-2v-1m66-25v-43h-2v43"/><path d="M1915 578h-1v1h-1v-1m0 43h2m-2-4h-2l-3 1-2 1-1 1 1 2 8 13 8-13 1-1-1-2-1-1h-3l-3-1"/><path d="m1906 622 1 1 3 1h7l3-1 2-1m65-26v-42h-1v1l-1 36v5m2-42h-1m-1 42h2m-2-4-2 1h-3l-1 1h-1l-1 1 1 2 1 2 4 6"/><path d="m1978 597 1 1h1l2 1h7l3-1 2-1 1-1-1-2-2-1h-2l-3-1m-3 15 2 2 8-12m63-26v-41h-1v41m1-41h-1m0 41h1m-1-3h-3l-3 1-2 1v2l7 11"/><path d="m2048 572 2 1 3 1h7l3-1 1-1 1-1-1-1-1-1-3-1h-3m69-21v-41h-1v41"/><path d="M2126 506v1-1h-1m0 41v1-1h1"/><path d="M2125 544h-3l-3 1-2 1-1 1 1 1 2 3v1l6 9 1-2"/><path d="m2117 548 2 1 3 1h9l2-1 1-2-1-1-2-1h-3l-2-1m67-20v-3l1-36v-2h-1v5l-1 33v3"/><path d="M2194 483v1h-1v-1m-1 41h1m-1-3h-3l-3 1-2 1v2l8 12 3-4"/><path d="m2185 525 1 1 3 1h7l3-1 1-1 1-1-1-1-2-1-2-1h-3m66-20v-9l1-31h-1l-1 31v9m2-40h-1m-1 40h1"/><path d="M2258 498h-3l-3 1-2 1v1l6 10v1l2 3 8-13 1-1-1-1-2-1-3-1h-2"/><path d="M2250 501v1l2 1 3 1h7l2-1 2-1m-588 254v-4l-1-40h-1l1 41v3m0-44h-1m1 44h1"/><path d="M1677 753h-6l-2 2-1 1v1l10 14 9-15-1-1-1-1-3-1-4-1"/><path d="m1668 757 2 2 3 1h8l3-1 2-1 1-2m70-28v-44h-2l1 40v4m1-44h-2m1 44h1"/><path d="m1756 724-2 1h-4l-2 2-1 1 1 1 9 14 9-15v-1l-2-1-3-1-4-1"/><path d="m1748 729 2 2h3l3 1 4-1h3l2-1 1-2m69-27v-4l-1-40h-1v44m1-44h-1m0 44h2"/><path d="M1833 697h-2l-3 1-2 1-1 1v2l9 13 9-13v-3l-2-1-3-1h-3"/><path d="m1825 702 2 1 3 1h7l3-1 3-1m67-28v-43h-1v43m1-43h-1m0 43h1"/><path d="m1909 670-3 1h-3l-2 1-1 2 1 1 9 13 8-13 1-1-1-1-2-2h-3l-3-1"/><path d="m1901 675 2 1 3 1h7l3-1 2-1m66-27v-43h-1v43m1-43h-1m0 43h1m-1-4h-3l-3 1-2 1-1 2 1 1 6 10"/><path d="m1975 649 2 1 3 1h7l3-1 2-1v-3l-2-1h-3l-3-1m-3 15 2 3 9-13m64-27v-38l1-4h-2v42m2-42h-2m0 42h1m-1-3h-3l-3 1-2 1-1 1 1 1 7 12"/><path d="m2047 623 2 1 3 1h7l3-1 2-1v-2l-2-1-3-1h-3m70-22v-3l1-36v-3h-1v4l-1 35v3m2-42h-1m-1 42h1"/><path d="M2125 594h-3l-2 1-2 1-1 1 1 1 8 13 1-2"/><path d="m2118 598 2 1 2 1h7l3-1 2-1 1-1-1-1-2-1-3-1h-3m69-21v-3l1-39h-1v2l-1 37v3m2-42h-1m-1 42h1"/><path d="M2194 570h-6l-2 1v2l1 1 7 12 3-4"/><path d="m2187 574 1 1 3 1h7l3-1 2-1v-2l-2-2h-6m68-21v-3l1-38h-1l-2 38v3m3-41h-1m-2 41h1"/><path d="M2261 546h-3l-2 1h-2l-1 2 8 13 9-12 1-1-1-1-2-1-3-1h-2"/><path d="m2253 549 1 1 2 1 3 1h6l3-1 2-1m58-25v-3l1-5 1-32h-1l-2 31v9m3-40h-1m-2 40v1h1v-1"/><path d="m2327 522-3 1h-3l-1 1-1 1 5 9 1 1 2 4 9-12v-3l-2-1h-3l-3-1"/><path d="m2319 525 1 1 2 1 3 1h9l2-1m-587 260v-4l-1-41h-1v45m1-45h-1m0 45h2"/><path d="M1747 783h-2l-3 1-3 1-1 2 1 1 9 14 10-15-1-2-2-1-3-1h-3"/><path d="m1739 788 2 1 3 1 3 1 4-1h3l3-2 1-1m70-29v-45h-1v1h-1l1 40v4m1-44h-2m1 44h1"/><path d="M1827 754h-3l-3 1-2 1-1 2v1l10 14 8-14 1-1-1-1-1-2-3-1h-4"/><path d="m1818 759 2 1 3 1 4 1 4-1h3l2-2m70-29-1-4v-40h-1v44m2-44h-2m0 44h2"/><path d="M1904 726h-2l-4 1-2 1-1 2 1 1 9 13 9-13v-3l-2-1-3-1h-3"/><path d="m1896 731 2 1 3 1h7l3-1 3-1m67-29v-43h-1v43m1-43h-1m0 43h1"/><path d="M1980 699h-3l-3 1-2 1-1 1 1 2 8 13 9-13 1-2-1-1-2-1-3-1h-3"/><path d="m1972 704 2 1 3 1h7l3-1 2-1m66-29v-39l1-4h-2v43"/><path d="m2056 632-1 1h-1v-1m0 43v1h1v-1m-1-3h-3l-3 1-2 1-1 1 1 2 7 11"/><path d="m2046 677 2 1 3 1h7l3-1 2-1 1-1-1-2-2-1-3-1h-3m72-23v-3l1-39v-1h-1v3l-1 37v3m2-42h-1m-1 42h1"/><path d="M2126 646h-3l-3 1-2 1-1 1 1 1 8 13 1-1"/><path d="m2118 650 2 2h3l4 1 3-1h3l2-1 1-2-1-1-2-1-3-1h-3m71-22v-4l1-39h-2v1l-1 38v4"/><path d="m2199 581-1 1-1-1m-1 43h2m-1-4-4 1h-2l-2 1-1 2 1 1 8 13 8-13 1-1-1-2-2-1h-3l-2-1"/><path d="m2189 625 2 1 3 1h7l2-1 2-1m61-26v-4l2-38h-1l-2 38v4m3-42h-1m-2 42h1"/><path d="m2265 595-3 1h-3l-2 1v1l8 14 9-12 1-1-1-2-2-1h-3l-3-1"/><path d="m2257 598 1 2 2 1 3 1h6l3-1 2-1m60-26v-3l1-38v-1h-1v1l-1 38v3m2-41h-1m-1 41h1"/><path d="M2333 571h-4l-2 1-2 1-1 1 9 14 8-13 1-1-1-1-2-1-3-1h-2"/><path d="m2324 574 1 1 2 1 3 1h7l3-1 1-1m59-25v-9l1-32h-1l-1 32-1 6v3m3-41h-1m-2 41h1"/><path d="M2399 547h-4l-3 1-1 1-1 1 5 8v1l3 5 9-13 1-1-1-1-2-1-3-1h-2"/><path d="m2390 550 1 1 2 1 3 1h7l2-1 2-1m-586 267v-45h-2l1 41v4m1-45h-2m1 45h1"/><path d="M1820 814h-3l-3 1-2 2-1 1v2l10 13 8-13 1-2v-1l-2-2h-3l-4-1"/><path d="m1811 820 2 1 3 1h8l3-1 2-1m72-31v-45h-2v45m2-45h-2m0 45h2"/><path d="M1899 785h-2l-4 1-2 1-1 1 1 2 9 13 9-13 1-1-1-2-2-1-3-1h-3"/><path d="m1891 790 2 1 3 1h7l4-1 2-1m69-30v-7l1-38h-2v45"/><path d="M1979 715h-1v1h-1v-1m0 45h1m-1-4h-3l-3 1-2 1-1 2 1 1 9 13 8-13 1-1v-2l-2-1-4-1h-3"/><path d="m1969 761 2 1 3 1h7l3-1 2-1m68-30v-39l1-3v-1l-1-1h-1v44m2-43h-2m0 43v1h1v-1m-1-3h-3l-3 1-2 1-1 1 1 2 8 12"/><path d="m2045 733 2 1 3 1h7l3-1 2-1 1-1-1-2-2-1-3-1h-3m74-24v-4l1-40h-2v44"/><path d="M2129 660v1h-1l-1-1m0 44h1m-1-4-3 1h-3l-2 1-1 2 1 1 5 9 3 4 9-13 1-1-1-1-2-2h-3l-3-1"/><path d="m2119 705 2 1 3 1h10l2-2m64-28v-3l1-40h-1l-1 40v3m2-43h-1m-1 43h1"/><path d="M2199 674h-3l-3 1-2 1-1 1 1 1 8 13 9-13 1-1-1-1-2-1-3-1h-3"/><path d="m2191 678 2 1 3 1 4 1 3-1h3l2-2m63-27v-4l1-39h-1l-2 39v4m3-43h-1m-2 43h2"/><path d="m2269 647-3 1h-3l-2 1v2l1 1 7 13 9-13 1-1-1-1-2-2h-3l-2-1"/><path d="m2262 652 2 1 3 1h7l3-1 1-1m61-27 1-3 1-39h-1l-2 39v3m3-42h-1m-2 42h1"/><path d="M2338 622h-3l-3 1-2 1v1l8 14 9-12 1-2-1-1-2-1-3-1h-3"/><path d="m2330 625 1 1 2 1 3 1h9l2-1m60-27v-3l1-39h-1l-1 39-1 3m4-42h-2m-1 42h1"/><path d="M2406 597h-4l-3 1-1 1-1 1 8 14 9-13 1-1-1-1-2-1-3-1h-2"/><path d="m2397 600 1 1 2 1 3 1h7l3-1 1-1m58-25 1-3v-6l1-33h-1l-1 32-1 6v4m3-42h-1m-2 42h1"/><path d="m2471 572-3 1h-3l-2 1v1l4 7v1l4 6 9-12 1-1-1-2-2-1h-5"/><path d="m2463 576 1 1 2 1h3l3 1h4l2-1 2-1m-584 273v-4l-1-41h-1v45m2-45h-2m0 45v1h1l1-1"/><path d="m1894 846-3 1h-3l-2 2-1 1 1 2 9 14 9-14 1-1-1-2-2-1-3-1-3-1"/><path d="m1886 852 2 1 3 1h7l4-1 2-1m71-32v-45h-1v45m1-45h-1m0 45h1"/><path d="M1974 816h-3l-3 1-2 1-1 2v1l5 7 4 6v1l1-1 1-1 1-2 7-9v-3l-2-2-4-1h-3"/><path d="m1965 821 2 2 4 1h7l3-1 3-1m69-32v-45h-1v45m1-44h-1m0 44v1h1v-1"/><path d="M2052 787h-3l-4 1-2 1v3l9 13 9-13 1-2-1-1-2-1-3-1h-3"/><path d="m2043 792 2 1 4 1h7l3-1 2-1m68-31v-3l1-41h-2l-1 41v3m3-44h-2m-1 44 1 1 1-1"/><path d="M2128 758h-4l-3 1-2 1-1 1 1 2 9 13 9-13 1-2-1-1-2-1-3-1h-3"/><path d="m2119 763 2 1 3 1h8l3-1 2-1m66-30v-3l1-41h-2l-1 41v3m3-44h-1m-2 44h2"/><path d="M2202 730h-7l-2 2v2l9 14 9-13 1-2-1-1-2-1-4-1h-2"/><path d="m2193 734 2 2h4l3 1h4l3-1 2-1m64-29v-4l1-40h-1l-1 40v4m2-44h-1m-1 44h1"/><path d="M2274 702h-4l-3 1-2 1v1l1 2 8 13 9-13 1-1-1-2-2-1-3-1h-3"/><path d="m2266 707 2 1 3 1h7l3-1 2-1m62-28v-4l2-39v-1h-1v1l-2 39v4m3-43h-1m-2 43h1"/><path d="M2344 675h-3l-3 1-2 1-1 2 9 14 9-13 1-1-1-2-2-1-3-1h-3"/><path d="m2335 679 1 1 2 1 3 1h8l2-1 2-1m61-28v-3l2-39-1-1v1l-2 39v3m3-42h-1m-2 42v1h1v-1"/><path d="M2413 649h-3l-3 1-2 1-1 1 9 15 9-13 1-2-1-1-2-1-3-1h-3"/><path d="m2404 652 1 2 2 1h3l4 1h4l2-1 2-1m59-27 1-4 2-39h-2l-2 39v4"/><path d="m2484 584-1 1h-1v-1m-2 43h1m-1-4-3 1h-3l-2 1v2l8 14 9-13 1-1-1-2-2-1h-3l-3-1"/><path d="m2472 627 1 1 2 1 3 1h7l3-1 1-1m58-26v-4l1-5 1-33h-1l-2 32v10m3-42h-1m-2 42h1"/><path d="m2546 598-4 1h-2l-2 1v1l8 14 9-12v-3l-3-1h-3l-2-1"/><path d="M2538 602v1l3 1 3 1h6l3-1 2-1m-577 350 1-1v2l-1-1-28-12-6-3m1-1h-1v1m35 14-29-12-5-3"/><path d="m1950 940 1-2v-7l-2-2-2-1h-3l-10 4h-1l1 4 3 8 2 2 2 1h3l3-2 2-3 1-1"/><path d="m1944 929-3 1-2 3-1 4-1 3v4m121-22v-2l1 1h-1v1l-35-15m1-2h-1v2m35 13-29-12-5-3"/><path d="M2030 908v-1l1-4-1-3-1-2-3-1h-2l-12 4 5 11 1 2 3 1h2l3-2 2-3 1-1"/><path d="m2024 897-3 2-2 3-2 3-1 4 1 3m118-22v-1h1v1h-1l-25-10-2-1-2-1-5-2m0-1h-1v1h1m35 13-25-10-4-2-6-2"/><path d="M2107 877v-1l1-4-1-3-1-2-3-1h-2l-12 4 4 8 1 3 2 2 1 1h4l2-2 2-2v-1l1-1"/><path d="m2101 866-3 2-2 3-2 3v7m117-21h-1v-1h1v1l-30-12-5-2m0-2v2m35 13-35-15"/><path d="M2182 847v-1l1-4-1-3-1-2-2-1h-3l-11 4 5 11 1 2 2 1h3l3-2 2-3v-1"/><path d="m2176 836-2 2-2 3-2 3-1 4 1 3m114-21v-1h1v1h-1l-29-12-5-2m0-1h-1v1h1m35 13-30-12-5-2"/><path d="M2255 817h1v-7l-1-2-2-1h-3l-12 4 6 10 1 3 2 1 3-1 2-1 2-3 1-2"/><path d="m2250 807-3 2-2 2-1 4-1 3 1 3m112-20v-1h1v1h-1l-35-13m1-1h-1v1"/><path d="m2356 800-29-11-5-2"/><path d="M2327 789v-1l1-3v-4l-2-2-2-1h-2l-12 5 5 8v1l1 1 1 2 2 1h2l3-2 2-3 1-1"/><path d="m2322 778-3 2-2 3-1 3-1 4v2l1 1m110-20v-1h1v1h-2l-4-2-24-9-6-2m1-1h-1v1"/><path d="m2426 772-2-1-2-1-30-11"/><path d="M2397 761v-1l1-3v-3l-2-3-2-1-2 1-12 4 7 12 2 1h2l3-2 2-3 1-1"/><path d="m2392 751-2 1-3 3-1 3-1 4 1 3 1 2m108-22h-1l1-1v1h-1l-29-11-5-2m0-1v1m35 12-30-11-5-2"/><path d="M2465 733h1v-7l-1-2-2-1h-2l-12 5 6 12 2 1 3-1 2-1 2-3 1-2"/><path d="m2461 723-3 2-2 3-1 3-1 3v3l1 3m106-22v-1h1v1h-1l-29-10-5-2m0-1v1m35 11-30-11-5-1"/><path d="m2532 706 1-3v-3l-1-1v-1l-2-1h-3l-11 4 1 3 1 1 4 8 2 1h3l2-2 2-3 1-1"/><path d="m2527 697-2 1-2 3-1 2v1l-1 4v3l1 2m105-21h-1l1-1v1l-15-5-15-6-5-1m1-1h-1v1"/><path d="m2627 691-30-11-5-1"/><path d="m2597 680 1-3v-3l-1-2-2-1h-2l-12 4 7 12 2 1 2-1 2-1 2-3 1-2"/><path d="m2593 671-2 1-2 3-2 3-1 3 1 3 1 3m-610 367v-2h1v1h-1v1l-29-14-5-2m0-1h-1l1 1m35 14-29-13-6-2"/><path d="m1950 1039 1-1v-7l-2-2-2-1h-3l-10 3-1 1 1 3 3 8 2 3h5l3-2 2-3v-1"/><path d="m1944 1028-3 2-2 3-2 3v7m120-22-1-1h1v-1 2-1l-19-8h-1l-3-2-6-2-6-3m1-1h-1v1m35 14-17-7-1-1-11-5-5-2"/><path d="m2028 1007 1-2 1-3-1-3-1-3-3-1-2 1-12 3 5 12 2 2 2 1 2-1 3-1v-1h1l1-2 1-1"/><path d="m2023 996-3 2-2 2-2 4v7m117-23v-1h1v1h-1l-29-12-5-3m0-1v1m35 14-29-12-6-3"/><path d="M2105 975v-1l1-4v-3l-2-2-2-1h-3l-2 1-9 3 1 2 4 9 1 2 2 1 3-1 3-1 2-3v-1"/><path d="m2099 964-1 1-1 1-3 3-1 2v1l-1 4 1 3m115-22v-1h1v1h-1l-29-12-5-3m0-1v1h-1 1m34 14-34-15"/><path d="M2180 944v-1l1-4-1-3-1-2-2-1h-3l-11 4 5 11 1 2 2 1 3-1 2-1 2-3 1-1"/><path d="m2174 933-2 2-3 3-1 3-1 4 1 3m113-21v-2h1v1h-1v1l-29-13-5-2m0-1-1 1h1"/><path d="m2281 925-29-12-5-2"/><path d="m2252 913 1-1v-6l-1-2-2-1h-3l-11 4 5 10 1 3h5l2-2 2-2 1-2"/><path d="m2247 903-2 2-3 2-1 4-1 3 1 3m111-20v-2h1v2h-1l-34-14m0-2v2m35 12-29-11-6-3"/><path d="M2324 884v-8l-1-2-2-1-3 1-11 3 5 11 1 2 2 1h3l2-2 2-3 1-1"/><path d="m2318 874-2 1-2 3-2 3v7m110-21h-1 1v-1 1l-30-11-5-2m1-1h-1v1m35 12-29-11-5-2"/><path d="M2393 855v-1l1-3-1-3-1-3-2-1-2 1-12 4 6 10 1 2 2 1h2l3-2 2-3v-1"/><path d="m2388 845-2 1-2 3-2 3-1 4 1 3m108-20h-1l1-1v1l-35-13m1-2v1h-1v1m35 12-29-12-5-2"/><path d="m2461 826 1-3-1-3-1-3-2-1-2 1-12 4 7 12 2 1 2-1 2-1 2-3 1-1"/><path d="m2456 817-2 1-2 3-2 3v7l1 2m105-22v-1h1v1h-1l-34-13m0-1v1m34 12-34-13"/><path d="M2527 799v-1l1-3v-3l-2-2-1-1h-3l-9 3-2 1 6 12 2 1h2l3-2 2-2 1-2"/><path d="m2522 789-2 2-2 2-1 4-1 3v3l1 2m104-21v-1 1l-30-11-4-2m0-1-1 1h1m34 12-29-11-5-2"/><path d="m2592 772 1-4-1-3-1-2-2-1h-2l-12 4 7 12 2 1h2l3-2 2-2v-2"/><path d="m2587 762-2 2-2 3-1 3-1 3v3l1 2m-605 374v-1h1v1h-1l-28-14-6-3m1-1-1 1m35 16-28-14-6-3"/><path d="M1950 1137v-2l1-3-1-3-1-2-3-1h-2l-10 3-1 1 1 3 3 8 2 2 2 1h3l2-2 3-3v-1"/><path d="m1944 1126-3 2-2 3-2 3v7m118-23v-1h1v1h-1l-28-13-6-3m1-1h-1v1m35 15-29-14-5-2"/><path d="m2027 1103 1-1v-7l-1-2h-1l-2-1-2 1-12 3 5 11 2 3 2 1 2-1 3-2 2-3h1"/><path d="m2022 1093-3 1-2 3-2 4v6m116-22v-1h1v1h-1l-28-13-6-3m1-1h-1v1m35 15-34-16"/><path d="m2103 1071 1-2v-6l-2-2-2-1h-2l-12 4 5 11 2 2 2 1 2-1 3-1 2-3 1-1"/><path d="m2098 1060-3 2-2 3-2 3v7m114-22v-1h1v-1 2l-1-1-28-12-6-3m1-1-1 1m35 14-29-12-5-3"/><path d="m2177 1039 1-2v-6l-1-2-3-1h-2l-12 4 6 11 1 2 2 1 3-1 2-1 2-3 1-1"/><path d="m2172 1028-3 2-2 3-1 3-1 4 1 3m112-22v-1h1l-1 1-29-12-5-3m0-1v1m34 14-34-15"/><path d="m2249 1007 1-1v-6l-1-2-2-1h-3l-11 4 4 9 1 1 1 3 2 1 3-1 2-2 2-2 1-1"/><path d="m2244 997-2 2-2 3-2 3v7m111-22h-1l1-1v1l-4-1-26-11-4-2m0-1h-1v1h1"/><path d="m2349 989-3-1-26-11-5-2"/><path d="M2320 977v-1l1-3v-3l-2-2-2-1h-2l-12 4 6 10 1 2 2 1h2l3-2 2-3 1-1"/><path d="m2315 967-2 2-3 2-1 4-1 3 1 3m109-21h-1l1-1v1h-1l-33-14m0-1h-1v1h1m34 13-29-12-5-2"/><path d="M2389 947v-1l1-3v-3l-2-2-2-1h-2l-12 4 6 10 1 2 2 1h2l3-2 2-2v-2"/><path d="m2384 937-2 2-2 3-2 3v6m107-20v-1 1l-34-14m0-1v1m34 13-29-12-5-2"/><path d="M2456 918v-1l1-3v-3l-1-2-2-1-2 1-12 3 5 10 2 2 1 1h3l2-2 2-2 1-2"/><path d="m2452 909-3 1-2 3-1 3-1 3v3m106-20h-1 1v-1 1l-30-11-4-2m0-1v1m34 12-29-11-5-2"/><path d="M2522 890v-1l1-3-1-3-1-2-1-1h-3l-11 4 6 12 2 1 2-1 3-1 2-3v-1"/><path d="m2517 880-2 2-2 2-1 4-1 3v3l1 2m103-22v-1h1v1h-1l-29-11-5-2m1-1h-1v1"/><path d="m2615 873-29-11-5-2"/><path d="M2586 862v-1l1-3v-3l-1-2-2-1-2 1-12 3 7 12 2 1h2l2-2 2-2 1-2"/><path d="m2582 853-2 1-2 3-2 3v6l1 2m-600 380v-1h1v1h-1l-34-17m1-1h-1v1m35 16-34-17"/><path d="m1949 1233 1-2 1-3-1-3-1-2-3-1h-2l-12 3 5 12 2 2 2 1 3-1 2-1 3-3v-1"/><path d="m1944 1222-3 2-2 3-2 3v7m117-24v-1h1v1h-1l-28-13-6-3m1-1h-1v1m35 15-29-14-5-2"/><path d="m2026 1199 1-2 1-4-1-3-1-2-3-1-2 1-11 3 4 12 2 1v1h5l2-2 2-3h1"/><path d="m2021 1188-3 2-2 3-2 3v7m115-24 1-1v1h-1l-28-13-5-3m0-1v1m34 15-29-13-5-3"/><path d="M2102 1165v-2l1-3-1-3-1-2-2-1-3 1-11 3 5 11 1 2 2 1 3-1 2-1 3-3v-1"/><path d="m2096 1155-2 1-3 3-1 4-1 3 1 3m113-23v-1h1v1h-1l-25-11-1-1-3-1-5-2m1-1h-1v1m35 14-29-13-5-2"/><path d="M2175 1132v-1l1-4v-3l-2-2-2-1-2 1-12 3 5 11 2 2 2 1h2l3-2 2-3v-1"/><path d="m2170 1122-3 2-2 2-1 4-1 3v3m112-22h-1l1-1v1l-29-13-5-2m1-1h-1v1m34 14-28-13-5-2"/><path d="M2247 1100v-1l1-4-1-2-1-3h-5l-11 3 5 11 2 2 2 1h2l2-2 3-3v-1"/><path d="m2242 1090-3 2-2 2-2 4v6m110-21v-2 2l-7-3-27-12m1-1h-1v1"/><path d="M2345 1081h-1l-27-12-5-3"/><path d="M2317 1069v-1l1-4-1-3-1-2-2-1-2 1-12 3 5 11 2 2 2 1 2-1 2-1 3-3v-1"/><path d="m2312 1059-3 2-2 2-1 4-1 3v3m108-21v-1l1-1v1l-1 1-29-13-4-2m0-1-1 1h1"/><path d="m2414 1051-29-13-5-2"/><path d="M2385 1038v-1l1-3v-3l-2-2-2-1h-2l-11 4 5 10 1 2 2 1h2l3-2 2-3v-1"/><path d="m2380 1029-2 1-2 3-2 3v6m106-20v-2h1v1h-1v1l-29-13-4-2m0-1-1 1h1m34 13-29-12-5-2"/><path d="M2452 1008v-1l1-3-1-3-1-2-2-1-2 1-11 3 5 10v1l1 1 2 1h2l3-2 2-2v-2"/><path d="m2447 999-2 1-2 3-2 3v6m105-20h-1v-1h1v1h-1l-29-12-4-2m0-1v1m34 13-29-12-5-2"/><path d="M2517 979v-1l1-3v-3l-1-2-2-1-2 1-12 3 7 12 1 1h3l2-2 2-2 1-2"/><path d="m2513 970-3 1-2 3-1 3-1 3 1 3 1 2m101-22v-1h1v1h-1l-14-6-15-5-4-2m0-1v1m34 12-29-11-5-2"/><path d="M2581 951v-1l1-3-1-3-1-2-1-1h-3l-11 4 7 12 1 1 3-1 2-1 2-3v-1"/><path d="m2577 941-3 2-2 2-1 4-1 3 1 3 1 2m-596 386v-1h1v1h-1l-28-15-5-2m1-1h-1v1m34 16-28-15-5-2"/><path d="m1949 1327 1-2v-6l-2-2-2-1-3 1-11 2 5 12 1 2 3 1h2l3-2 2-3v-1"/><path d="m1943 1317-2 2-3 2-1 4-1 3 1 3m116-24v-1h1v1h-1l-28-14-6-3m1-1v1h-1m35 16-29-14-5-3"/><path d="m2025 1292 1-2 1-3-1-3-1-2-2-1-3 1-11 2 5 12 1 2 2 1 3-1 2-2 3-2v-1"/><path d="m2020 1282-3 1-2 3-1 4-1 3 1 3m114-24h-1 1v-1 1h-1l-28-13-5-3m1-1h-1v1m34 15-28-14-5-2"/><path d="m2100 1258 1-2v-6l-2-2-2-1h-2l-12 3 5 12 2 2h4l3-2 2-3"/><path d="m2095 1247-3 2-2 3-2 3v7m112-23v-1h1v-1 2h-1l-33-16m1-1v-1h-1v2m34 14-33-16"/><path d="M2173 1224v-2l1-3-1-3-1-2-2-1-2 1h-2l-10 3 1 1v1l4 9 2 2 2 1 2-1 3-2 2-2v-1"/><path d="m2168 1214-3 2-2 2-2 4v6m111-23h-1 1v-1 1h-1l-2-1-26-12-5-2m1-1h-1v1m34 14-2-1-31-14"/><path d="M2244 1191v-1l1-4-1-3-1-2h-4l-12 3 6 11 1 2 2 1 2-1 3-1 2-3v-1"/><path d="m2239 1181-3 2-2 3-1 3-1 3 1 3m108-22v-1h1v1h-1l-28-13-5-2m0-1v1m34 14-29-13-5-2"/><path d="m2313 1159 1-1v-6l-1-2-2-1h-3l-11 3 5 11 1 2 2 1 3-1 2-1 2-3 1-1"/><path d="m2308 1149-2 2-2 3-2 3v6m107-22v-1h1v1h-1l-29-12-4-2m0-1v-1 2m34 13-29-12-5-2"/><path d="M2381 1128v-1l1-4v-3l-2-2h-4l-11 3 5 11 1 2h5l2-2 2-2v-1"/><path d="m2376 1118-2 2-2 2-2 4v6m106-21-1-1h1v-1 1l-1 1-28-13-5-2m1-1h-1v1m34 13-29-12-4-2"/><path d="m2447 1097 1-1v-6l-1-2-2-1-2 1-12 3 3 5 1 1 2 4 1 2 2 1 2-1 2-1 2-3 1-1"/><path d="m2443 1088-2 1-2 3-2 3v1l-1 2 1 3m103-21v-1h1v1h-1l-28-12-5-2m0-1v1m34 13-34-14"/><path d="M2512 1067v-1l1-3v-3l-1-2-2-1-2 1-12 3 6 10 1 2 2 1 2-1 2-1 2-3 1-1"/><path d="m2508 1058-3 1-2 3-1 3-1 3 1 3m102-20v-1 1l-29-12-4-2m0-1h-1v1h1m33 13-15-6-14-6-4-2"/><path d="m2575 1038 1-1v-6l-1-2-2-1-2 1-11 3 6 12 2 1 2-1 2-1 2-3 1-1"/><path d="m2571 1029-2 1-2 3-1 3-1 3v3l1 2m-590 392v-1h1-1v1l-28-15-5-3m1-1h-1v1m34 17-34-18"/><path d="m1949 1420 1-2v-6l-2-2-2-1h-3l-2 2-3 3-1 4-1 3 1 3 1 2 2 1 3-1 3-2 2-3"/><path d="m1946 1409-14 3 5 12m115-25v-1 1l-28-14-5-3m0-1v1m33 16-28-14-5-3"/><path d="m2024 1384 1-2 1-3-1-3-1-2-2-1-3 1-3 1-2 3-1 4-1 3 1 3 1 2 2 1 3-1 2-2 3-3"/><path d="m2022 1373-14 3 5 12m113-24v-1 1l-28-14-5-3m0-1v1m33 16-28-14-5-3"/><path d="m2098 1349 1-2 1-4-1-2-1-2-2-1h-3l-11 3 5 12 1 1 2 1h3l2-2 3-3"/><path d="m2093 1339-2 1-3 3-1 3-1 4 1 3m111-24v-1h1v1h-1l-28-14-5-2m1-1h-1v1m34 15-29-14-4-2"/><path d="m2170 1314 1-2 1-3-1-3-1-2h-5l-11 3 5 11 2 2 2 1 2-1 3-1 2-3v-1"/><path d="m2165 1304-2 2-2 3-2 3v6m110-23h-1 1v-1 1l-33-16m0-1-1 1m34 15-28-14-5-2"/><path d="m2241 1281 1-2v-6l-2-2-2-1-2 1-11 2 5 12 1 1 2 1h3l2-2 2-3"/><path d="m2236 1271-2 1-2 3-2 3v7m108-23h-1l1-1v1l-29-13-4-3m0 0v-1 1h-1v1m34 14-28-13-5-3"/><path d="M2310 1248v-2l1-3v-3l-2-2h-4l-11 3 5 11 1 2h5l2-2 2-2v-1"/><path d="m2305 1238-2 2-2 2-2 4v6m106-22v-1h1l-1 1-33-15m1-1-1-1v2m34 14-29-13-4-2"/><path d="m2377 1216 1-2v-6l-1-2h-4l-12 3 6 11 1 2h4l2-2 2-2 1-1"/><path d="m2373 1206-3 2-2 2-1 4-1 3 1 3m104-22v-1h1v1h-1l-29-13-4-2m0-1v1m34 14-29-13-5-2"/><path d="M2443 1184v-1l1-3v-3l-1-2-2-1-2 1-10 2-2 1 1 1 5 9 1 2 2 1 2-1 2-1 2-3v-1"/><path d="m2439 1175-3 2-2 2-1 3-1 3 1 3m102-21v-1h1v1h-1l-33-14m1-1h-1v1m34 13-29-12-4-2"/><path d="m2507 1154 1-2v-5l-1-2-2-1h-2l-11 3 5 11 1 1 2 1h2l2-2 2-2 1-1"/><path d="m2503 1144-2 2-2 3-2 3v6m101-21v-1h1v1h-1l-14-6-14-6-5-2m1-1h-1v1m34 13-15-7-18-7"/><path d="m2570 1124 1-1v-6l-1-2-2-1h-2l-11 3 5 11 1 1 2 1h2l2-2 2-2 1-1"/><path d="m2566 1115-2 1-2 3-1 3-1 3v3m-585 399v-1h1v1h-1l-32-18m0-1v1m33 17-28-15-5-3"/><path d="m1948 1511 1-2 1-4-1-3-1-1-2-1-3 1-3 1-2 3-1 4-1 3 1 3 1 2h5l3-2 2-3"/><path d="m1946 1500-14 3 5 12m114-25h-1v-1h1v1l-28-15-5-3m0-1v1m33 17-33-18"/><path d="m2023 1474 1-2 1-3-1-3-1-2-2-1-3 1-2 2-3 3-1 3-1 3 1 3 1 2 2 1 3-1 3-2 2-3"/><path d="m2021 1463-14 3 5 12m112-24v-1h1-1v1l-28-15-5-2m1-1v-1h-1v2m34 16-33-17"/><path d="M2097 1438v-2l1-3v-3l-2-2-2-1-2 1-3 2-2 3-2 3v6l2 2 2 1 2-1 3-2 2-3"/><path d="m2094 1427-13 3 4 12m111-24v-1 1l-28-14-5-3m1-1h-1v1m33 16-28-14-4-3"/><path d="m2168 1403 1-2 1-3-1-3-1-2-2-1-3 1-2 2-2 3-2 3v6l2 2h4l2-2 3-3"/><path d="m2166 1393-14 3 5 11m109-23v-2 2l-28-14-5-3m1-1h-1v1m33 15-28-14-4-2"/><path d="m2238 1369 1-2v-6l-1-2-2-1-3 1-2 2-2 2-2 4v6l2 1 2 1h2l2-2 2-3h1"/><path d="m2236 1358-14 3 5 12m107-23v-1h1l-1 1-28-14-5-2m1-1h-1v1m34 15-29-14-4-2"/><path d="M2307 1335v-2l1-3-1-3-1-1-2-1h-2l-2 2-2 3-2 3v6l1 2 2 1 2-1 3-2 2-2v-1"/><path d="m2304 1325-13 3 5 11m105-22v-2h1v1h-1v1l-28-14-5-2m1-1h-1v1m34 15-33-16"/><path d="m2373 1302 1-1v-6l-1-2-2-1-2 1-2 1-2 3-2 3v6l1 2 2 1 2-1 3-2 2-2v-1"/><path d="m2371 1292-13 3 3 6v1l2 4m103-22v-1h1v1h-1l-28-13-4-2m0-1v1m33 14-33-15"/><path d="M2439 1270v-1l1-3-1-3-1-2-2-1-2 1-11 2 5 11 2 2 1 1 3-1 2-2 2-2v-1"/><path d="m2434 1261-2 1-2 3-1 3-1 3v3m102-21v-1h1v-1 2h-1v-1l-28-12-4-2m0-1v1m33 14-33-15"/><path d="M2503 1239v-2l1-3-1-2-1-2-2-1-2 1-11 2 5 11 2 1 1 1h2l3-2 2-2v-1"/><path d="m2498 1230-2 1-2 3-1 3-1 3v3m101-21v-1h1-1v1l-14-7-14-6-5-2m1-1h-1v1"/><path d="m2593 1221-14-7-18-8"/><path d="M2565 1208v-1l1-3v-3l-1-2h-4l-11 3 5 10 1 2 2 1 2-1 2-1 2-3 1-1"/><path d="m2561 1199-2 2-2 2-2 3v6m-580 405v-1h1l-1 1-28-16-5-2m1-1h-1v1m34 17-28-16-5-2"/><path d="m1948 1600 1-2 1-3-1-3-1-2-3-1-2 1-3 2-2 3-1 3-1 4v2l2 2 2 1 3-1 2-2 2-2"/><path d="m1945 1590-13 2 4 12m113-25v-1h1v1h-1l-27-15-5-3m1-1h-1v1m33 17-28-15-4-3"/><path d="m2022 1563 1-2 1-4-1-3-1-1-2-1-3 1-2 2-2 2-2 4v6l2 2h2l2-1 3-1 2-3"/><path d="m2020 1552-13 3 4 12m111-25v-1h1v1h-1l-27-15-5-2m0-1v-1 2m33 16-33-18"/><path d="m2095 1526 1-2 1-3-1-3-1-2-2-1-3 1-2 2-2 3-2 3v6l1 2h5l2-2 3-3"/><path d="m2093 1516-14 2 5 12m109-24v-1h1v1h-1l-32-17m0-1v1m33 16-28-15-5-2"/><path d="m2166 1490 1-2v-6l-1-2h-5l-2 2-2 3-2 3v6l2 2 2 1 2-1 2-2 3-3"/><path d="m2164 1480-14 3 5 11m108-24v-1l1 1h-1l-33-16m1-1h-1v1m33 15-28-14-4-2"/><path d="m2235 1455 1-2 1-3-1-3-1-1-2-1h-2l-3 2-2 3-1 3-1 3 1 3 1 2 2 1 2-1 3-2 2-3"/><path d="m2233 1445-13 3 5 11m106-23v-1 1l-33-17"/><path d="M2299 1419v-1l-1 1v1m33 15-28-14-4-3"/><path d="m2303 1421 1-2 1-3-1-3-1-2h-4l-3 2-2 3-1 3-1 3 1 3 1 2h4l3-2 2-3"/><path d="m2301 1411-13 3 5 11m104-23v-1h1v1h-1l-32-16m0-1v1m33 15-28-14-5-2"/><path d="M2370 1387v-1l1-3v-3l-2-2-2-1-2 1-2 2-2 2-1 3-1 4v2l2 2 1 1 3-1 2-2 2-2v-1"/><path d="m2368 1377-14 3 5 11m103-22v-1h1v1h-1l-28-14-4-2m0-1v1h-1 1m33 15-29-14-4-2"/><path d="m2434 1355 1-2 1-3-1-3-1-1-2-1h-2l-2 2-2 3-1 3-1 3v3l1 1 2 1 2-1 3-1 2-3"/><path d="m2432 1345-13 3 5 10m102-21-1-1h1v1h-1l-28-14-4-2m1-1h-1v1m33 15-28-14-4-2"/><path d="M2498 1322v-1l1-3v-3l-1-1-2-1h-2l-2 2-2 3-2 3v5l1 2 2 1 2-1 2-1 2-3v-1"/><path d="m2496 1313-13 3 5 10m100-21v-1 1l-15-6-18-9m1-1h-1v1m33 14-28-13-4-2"/><path d="M2560 1291v-1l1-3v-3l-1-2h-4l-2 2-2 2-1 3-1 3v3l1 2 2 1 2-1 2-2 2-2v-1"/><path d="m2558 1282-13 3 5 10m-576 410v-1h1v1h-1l-27-16-5-2m1-1v-1 1h-1v1m33 17-27-16-5-2"/><path d="m1948 1688 1-2v-6l-2-2-2-1-2 1-3 2-2 3-2 3v6l2 2 2 1 2-1 3-2 2-3"/><path d="m1945 1677-13 3 4 12m112-25v-1l1-1v1l-1 1-32-19m1-1h-1v1m33 17-32-18"/><path d="m2021 1650 1-2 1-4-1-2-1-2-2-1-3 1-2 2-2 3-2 3v6l2 2h4l3-2 2-3"/><path d="m2019 1639-13 3 4 12m111-25h-1v-1h1v1l-28-15-5-3m1-1h-1v1m33 17-27-16-5-2"/><path d="M2094 1613v-3l1-3v-3l-2-1-2-1-2 1-3 2-2 2-1 4-1 3 1 3 1 1 2 1 2-1 3-2 2-2"/><path d="m2091 1602-13 3 5 11m108-24v-1h1l-1 1-28-15-4-3m0-1v1m33 17-28-15-5-3"/><path d="m2164 1576 1-2v-6l-1-2h-5l-2 2-2 3-2 3v6l2 2h4l2-2 2-3h1"/><path d="m2162 1566-14 2 5 12m107-24v-1h1l-1 1-28-15-4-2m0-1v1m33 16-28-15-5-2"/><path d="m2233 1540 1-2v-6l-1-1-2-1-3 1-2 1-2 3-2 3v6l2 2h4l2-2 2-3"/><path d="m2231 1530-14 3 5 11m105-23v-1h1v-1 2l-1-1-27-14-5-2m1-1h-1v1"/><path d="m2328 1520-28-15-4-2"/><path d="m2300 1505 1-2v-5l-1-2-2-1-2 1-3 2-2 2-1 3-1 4 1 2 1 2 2 1 2-1 2-2 2-2 1-1"/><path d="m2298 1495-13 3 5 11m103-23v-1h1v1h-1l-28-14-4-2m1-1h-1v1m33 15-28-14-4-2"/><path d="m2366 1471 1-2v-5l-1-2-2-1-2 1-3 2-2 2-1 3-1 3 1 3 1 2h4l2-2 2-3"/><path d="m2364 1461-13 3 5 11m102-23v-1 1l-33-16m1 0v-1 1h-1m33 15-28-13-4-3"/><path d="m2430 1438 1-2v-6l-1-1-2-1h-2l-2 2-2 3-1 3-1 3v3l1 1 2 1 2-1 3-1 2-3"/><path d="m2428 1428-13 3 5 11m101-23v-1 1l-28-13-4-2m0-1h-1v1h1m32 14-28-13-4-2"/><path d="m2493 1405 1-1v-6l-1-2-2-1-2 1-2 2-2 2-1 3-1 3v3l2 2h3l3-2 1-2 1-1"/><path d="m2491 1395-13 3 5 11m99-22v-1h1v1h-1l-14-7-18-8m1-1h-1v1m33 14-15-7-13-6-4-2"/><path d="M2555 1373v-1l1-3v-3l-1-2h-4l-2 2-2 2-1 3-1 3v3l1 2h4l2-2 2-2v-1"/><path d="m2553 1364-13 2 5 11m-571 415v-1h1l-1 1-27-16-5-3m1-1h-1v1m33 18-28-16-4-3"/><path d="m1947 1775 1-3 1-3-1-3-1-2h-2l-3 1-2 2-2 2-2 4v6l2 1 2 1 2-1 3-2 2-2"/><path d="m1945 1764-13 2 4 13m111-26v-1l1-1v1l-1 1-5-3-22-13-5-3m1-1h-1v1"/><path d="m2048 1751-5-2-22-13-5-3"/><path d="m2021 1736 1-3v-6l-2-1-2-1-2 1-3 2-2 2-1 4-1 3 1 3 1 1 2 1 3-1 2-2 2-2"/><path d="m2018 1725-13 2 5 13m109-26v-1h1-1v1l-5-3-23-12-4-3m1-1h-1v1"/><path d="m2119 1713-4-2-23-13-5-3"/><path d="m2092 1698 1-3 1-3-1-3-1-1-2-1-3 1-2 2-2 2-2 4v5l2 2 2 1 2-1 2-2 2-2"/><path d="m2090 1687-13 2 4 12m108-25v-1l1 1h-1l-5-2-23-13-4-2m1-1h-1v1"/><path d="m2189 1675-27-15-5-2"/><path d="m2162 1660 1-2v-6l-1-1-2-1-3 1-2 2-2 2-2 3v6l2 2h4l2-2 2-3"/><path d="m2160 1650-13 2 4 12m106-24v-1h1v1h-1l-5-3-22-12-5-3"/><path d="M2226 1622v-1 1h-1v1m33 16-5-3-23-12-4-3"/><path d="m2230 1624 1-2 1-3-1-3-1-2h-4l-3 2-2 3-1 3-1 3 1 3 1 2h2l2-1 3-1 2-3"/><path d="m2228 1614-13 2 5 12m104-24v-1h1v1h-1l-5-3-27-14m1-1h-1v1m33 16-5-3-27-14"/><path d="m2297 1588 1-2v-5l-1-2-2-1-2 1-3 2-2 2-1 4-1 3 1 2 1 2h4l2-2 2-3h1"/><path d="m2295 1578-13 3 5 11m103-23h-1v-1h1v1l-6-3-22-12-4-2m0-1-1 1h1m32 16-4-3-24-12-4-2"/><path d="m2362 1553 1-1 1-3-1-3-1-2h-4l-2 2-2 3-1 3-1 3v2l1 2 2 1 3-1 2-2 2-2v-1"/><path d="m2360 1544-13 2 5 11m101-23h1v-1 1h-1l-5-2-22-12-5-2m1-1v1h-1 1m32 15-4-2-24-12-4-2"/><path d="m2426 1519 1-1v-6l-1-2h-4l-2 2-2 3-1 3-1 3v2l2 2 1 1 2-1 3-2 2-2v-1"/><path d="m2424 1510-13 2 5 11m100-22v-1h1v1h-1l-5-3-23-11-4-2m1-1h-1v1"/><path d="m2517 1500-5-2-27-14"/><path d="M2489 1486v-1l1-3v-3l-1-2h-4l-2 2-2 2-2 3v6l1 2h4l2-2 2-2v-1"/><path d="m2487 1477-13 2 5 11m98-22v-1h1v1h-1l-14-7-18-9m1 0v-1 1h-1m33 15-28-14-4-2"/><path d="m2550 1453 1-1v-5l-1-2-2-1-2 1-2 1-2 3-1 3-1 3v2l1 2 2 1 2-1 2-2 2-2v-1"/><path d="m2548 1444-13 3 5 10M983 1633l-1-10-23-250m192 375-157-107-11-8m11 8 242-108m131-977-77 24m153-48-75 24m150-47-74 23m146-45-71 22m143-44-70 21m140-43-69 21m137-42-67 21m134-42-66 21m132-41-65 20m185 345 9-13m-7-44 8-12m-7-41 8-13m-8-39 8-12m-7-36 6-9 1-1 1-2m-7-35 8-12m-7-33 7-11m60 31 6-8m-6 54 6-9m-5 57 6-9m-5 58 6-9m-6 62 7-9m59-166 4-6m-2 52 4-6m-2 56 5-7m247 957 61-33m-125 67 62-33m-128 69 64-35m-131 70 66-35m-134 72 67-36m-137 74 69-37m-141 75 71-38m-144 77 72-38m17-1327-63-22m127 44-63-22m130 46-65-23m133 46-67-23m137 47-69-24m140 49-70-24m143 49-72-25m146 51-73-25m133 210 6-90m-12 180 6-89m-11 178 5-87m-11 175 6-87m-11 173 5-85m-10 169 5-83m-10 166 5-82m-11 164 5-80m-10 161 5-80"/></g></svg>