<?xml version="1.0" encoding="UTF-8"?>
<svg version="1.1" viewBox="0 0 3840 2160" xmlns="http://www.w3.org/2000/svg">
<g xmlns:inkscape="http://www.inkscape.org/namespaces/inkscape">
<g fill="none" stroke="#000" stroke-linejoin="round" stroke-width="3" xmlns:inkscape="http://www.inkscape.org/namespaces/inkscape">
<path d="m1248.6 1041.4 0.093 1.5 0.062 0.033 0.711 0.376 1e-3 1e-3 19.545 10.339 0.711 0.376 2e-3 1e-3 0.821 0.435 0.713 0.377 19.354 10.239 0.712 0.376 3e-3 1e-3 1e-3 1e-3 0.804 0.425 0.711 0.377h2e-3l19.166 10.14 0.711 0.376h1e-3l1e-3 1e-3 0.792 0.419 0.709 0.375 2e-3 1e-3 1e-3 1e-3 18.981 10.041 0.712 0.376v1e-3h1e-3l0.779 0.412 0.711 0.376 1e-3 1e-3 18.798 9.944 0.711 0.377h1e-3l0.766 0.405 0.711 0.376 18.619 9.85 0.711 0.376 0.753 0.398 0.708 0.375 3e-3 1e-3 1e-3 1e-3 18.439 9.755 0.711 0.376 0.74 0.391 0.711 0.376 18.265 9.663 0.71 0.376 0.728 0.384 0.707 0.375h1e-3l2e-3 1e-3 475.27 251.43 694.77-323.67 2.663-42.814-580.25-239.07h-1e-3l-0.731-0.302-0.58-0.239h-1e-3 -1e-3l-0.73-0.302-16.591-6.835-0.732-0.302-0.591-0.243-0.733-0.302-17.474-7.2-0.602-0.248-17.627-7.262-0.734-0.303-0.613-0.252h-1e-3l-0.733-0.303-17.049-7.024-0.679-0.28-0.089 0.033-1.008 0.371-1.187 0.437-27.794 10.224-1.189 0.438-1.027 0.378-1.189 0.437-28.08 10.33-1.191 0.438-1.048 0.385-1.191 0.438-28.37 10.437-1.193 0.439-1.068 0.392-1.193 0.44-28.665 10.544-1.196 0.44-1.087 0.4-1.196 0.44-28.964 10.655-1.198 0.441-1.108 0.408-30.466 11.207-1.201 0.442-1.129 0.415-1.201 0.442-29.575 10.88-1.203 0.442-1.151 0.424-1.203 0.442-29.889 10.995v1e-3l-1.205 0.443-1.173 0.431-1.205 0.444-30.206 11.112h-1e-3l-1.207 0.444-1.195 0.44-31.737 11.675-1.21 0.445-1.217 0.448h-1e-3l-1.209 0.445-30.858 11.351-1.212 0.446"/>
<path d="m2590.9 1017.5-697.55 319.83"/>
<path d="m1893.5 1384-0.118-46.654-414.82-215.99-2.127-1.107-17.977-9.361-2.14-1.114-18.148-9.45h-1e-3 -1e-3l-2.152-1.121-18.322-9.54-2.168-1.128-18.497-9.631v-1e-3h-1e-3l-2.18-1.135-18.676-9.724-1e-3 -1e-3 -1.481-0.771-0.714-0.372-18.856-9.818-1.494-0.778h-1e-3 -1e-3v-1e-3l-0.714-0.371-19.039-9.914-1.508-0.785-3e-3 -1e-3 -0.714-0.372-20.75-10.804-0.714-0.372-19.414-10.109-2.254-1.173-19.606-10.208-1.551-0.808-2e-3 -1e-3 -0.715-0.372-19.8-10.31-0.784-0.408"/>
<path d="m983.22 1171.9 24.434 277.33 1.705 1.829"/>
<path d="m1000.2 1171.3 5.275-1.387 6.956-1.83 9.247-4.923 4.862-5.866-0.237-5.91-41.931-95.01-24.667 100.01 0.093 5.932 5.185 5.119 9.508 3.513 8.701 0.956 3.674 0.403 13.334-1.008"/>
<path d="m1275.3 1328.6 1.945-0.783 2.399 0.725 2.487 2.125 2.194 3.202 1.567 3.79 0.7 3.798-0.274 3.227-1.205 2.164"/>
<path d="m1275.3 1328.6-12.792 5.329-234.52 97.694"/>
<path d="m1270.5 1353 3.96 5.793 7.425 6.388 7.191 2.233 5.864-2.281 68.367-62.145-91.985 5.018-5.822 2.385-3.569 6.53-0.786 9.667 1.365 7.358"/>
<path d="m1271.3 1308 7.199 2.145 7.478 6.368 6.607 9.625 4.715 11.405 2.096 11.426-0.84 9.687-3.637 6.471"/>
<path d="m1009.4 1451 1.008 3.316 2.234 2.231 176.65 113.67"/>
<path d="m1223 1541.2-10.703 2.457-10.427 6.92-0.383 0.463-8.161 9.871-4.119 9.378-1.222 2.783-1.312 12.109 2.908 10.195 6.666 6.724 9.389 2.246 77.652 12.656-44.378-66.647-6.569-6.793-9.341-2.362"/>
<path d="m2264.9 1015.2-4.744 148.41 0.209 0.426 0.545 0.366 0.798 0.25 0.929 0.097 0.918-0.072 0.769-0.229 0.501-0.352 0.157-0.421 4.803-148.14"/>
<path d="m2294.9 1011.2 7.639-5.106 2.326-6.081-3.304-6.125-31.893-50.173-36.289 49.307-2.489 6.049 3.142 6.149 8.33 5.308 12.264 3.645 10.293 1.014 4.024 0.396 0.861-0.063 13.294-0.983 11.802-3.337"/>
<path d="m1124.7 905.86 0.028-0.044 33.56-53.282-0.722-0.361-2.809 0.962-3.836 6.088-5.682 9.021-5.685 9.025-11.379 18.063-4.422 7.02 0.224 3.072 5e-3 0.067 0.718 0.369"/>
<path d="m1124.7 905.86-0.229-3.139 4.423-7.022 5.691-9.035 11.374-18.057 5.683-9.022 3.836-6.089 2.81-0.962"/>
<path d="m1127.9 950.06 2.578-4.098 56.544-89.887 10.732-17.065-0.724-0.357-2.778 0.951-3.808 6.053-5.641 8.967-5.644 8.971-5.646 8.976-5.65 8.979-5.652 8.985-5.654 8.988-5.658 8.992-11.323 17.999-11.333 18.015-1.286 2.044 0.227 3.113 0.716 0.374"/>
<path d="m1127.9 950.06-0.228-3.113 1.286-2.045 5.669-9.011 5.666-9.007 5.664-9.002 5.661-8.999 5.658-8.994 5.655-8.99 5.653-8.985 5.65-8.981 5.647-8.977 5.645-8.973 5.641-8.968 3.809-6.054 2.778-0.951-67.276 106.95"/>
<path d="m1131.1 993.9 5.107-8.129 11.281-17.957 5.636-8.972 5.634-8.968 5.631-8.964 5.628-8.959 61.736-98.272 5.056-8.047-0.726-0.353-2.747 0.941-3.78 6.017-5.601 8.914-11.209 17.841-5.609 8.926-5.611 8.931-11.231 17.875-11.241 17.891-5.624 8.952-5.628 8.957-5.63 8.961-5.633 8.964-11.273 17.943-5.64 8.978-5.644 8.981-3.82 6.082 0.225 3.088 0.713 0.379"/>
<path d="m1131.1 993.9-0.225-3.088 3.821-6.083 5.641-8.979 5.644-8.983 5.639-8.975 5.636-8.97 5.633-8.967 16.884-26.873 5.623-8.95 5.619-8.944 5.618-8.941 5.614-8.937 5.612-8.932 5.61-8.928 5.606-8.924 5.604-8.92 5.598-8.913 3.784-6.02 2.748-0.941"/>
<path d="m1133.6 1037 0.711 0.384 7.614-12.136 16.843-26.846 5.61-8.94 5.606-8.936 5.604-8.932 11.2-17.85 5.595-8.919 5.594-8.915 5.59-8.911 5.588-8.906 61.295-97.694 5.019-8-0.727-0.349-2.717 0.93-3.753 5.982-5.561 8.861-5.563 8.866-11.135 17.745-11.145 17.761-5.576 8.887-5.579 8.89-5.582 8.896-11.171 17.803-5.59 8.907-11.187 17.829-11.197 17.845-5.603 8.928-5.605 8.933-5.609 8.938-5.61 8.941-5.614 8.946-5.616 8.95-5.618 8.954-5.622 8.958-0.713 1.137 0.224 3.063"/>
<path d="m1134.3 1037.4-0.224-3.064 0.713-1.136"/>
<path d="m1134.8 1033.2 5.619-8.956 5.62-8.956"/>
<path d="m1134.8 1033.2 11.239-17.912 5.616-8.951 5.614-8.947 5.612-8.943 5.608-8.939"/>
<path d="m1134.8 1033.2 33.689-53.692 2.669-4.253"/>
<path d="m1185.3 952.71 4.779-7.617 0.819-1.305-19.74 31.459-36.358 57.945"/>
<path d="m1190.9 943.79 5.595-8.918"/>
<path d="m1202 925.96-67.289 107.24 55.279-88.099 6.414-10.223 5.596-8.917"/>
<path d="m1275.4 812.41-2.717 0.93-9.315 14.846-11.131 17.739-11.141 17.755-5.574 8.884-11.157 17.781-11.167 17.797-11.178 17.814 5.587-8.905 5.591-8.909"/>
<path d="m1137.4 1080.5 4.505-7.19 5.595-8.93 11.183-17.846 5.588-8.917 5.584-8.912 22.313-35.609 5.572-8.892 5.569-8.887 5.566-8.884 5.564-8.879 11.12-17.746 5.556-8.866 5.553-8.863 5.551-8.858 5.548-8.854 60.859-97.123 4.983-7.953-0.728-0.345-2.687 0.92-3.727 5.946-5.521 8.81-5.524 8.814-5.526 8.819-11.061 17.649-11.071 17.665-5.539 8.839-5.542 8.843-5.545 8.847-5.547 8.852-5.549 8.855-5.553 8.86-5.555 8.864-5.557 8.868-5.56 8.872-11.129 17.757-5.568 8.885-5.57 8.889-5.573 8.893-5.576 8.897-5.579 8.901-5.581 8.906-5.584 8.91-5.586 8.914-5.589 8.918-5.592 8.922-5.594 8.927-5.597 8.931-3.229 5.153 0.222 3.039 0.708 0.389"/>
<path d="m1137.4 1080.5-0.222-3.04 3.23-5.154 11.189-17.856 5.596-8.928 11.176-17.835 5.585-8.911"/>
<path d="m1224.1 938.81 5.559-8.87"/>
<path d="m1229.7 929.94 5.555-8.865 0.372-0.593"/>
<path d="m1245.5 904.66 0.819-1.308 5.551-8.857"/>
<path d="m1174 1018.8 77.906-124.32 11.088-17.693 5.54-8.84 5.537-8.836 5.535-8.832 5.532-8.828 5.53-8.824 5.527-8.82 5.524-8.815 5.522-8.811 3.727-5.948 2.687-0.92"/>
<path d="m1140.5 1123.3 1.421-2.271 5.573-8.906 16.707-26.693 11.123-17.775 5.558-8.881 5.555-8.877 11.103-17.742 5.548-8.864 5.545-8.86 11.082-17.709 11.072-17.691 5.532-8.84 5.53-8.836 44.143-70.536 60.429-96.558 4.948-7.907-0.73-0.341-2.658 0.91-3.7 5.912-5.483 8.759-5.485 8.763-5.487 8.767-5.49 8.771-5.492 8.776-5.495 8.779-5.498 8.783-5.5 8.788-5.503 8.791-5.505 8.796-5.508 8.8-5.51 8.804-5.513 8.808-5.516 8.812-5.518 8.816-5.521 8.82-5.523 8.825-5.526 8.829-11.059 17.669-5.534 8.841-11.075 17.695-11.085 17.711-5.547 8.861-5.549 8.866-5.552 8.87-11.111 17.753-5.56 8.882-5.562 8.887-5.565 8.891-5.568 8.895-5.57 8.899-5.572 8.903-5.576 8.908-0.149 0.238 0.22 3.015 0.706 0.394"/>
<path d="m1140.5 1123.3-0.22-3.015 0.149-0.239 11.15-17.814 11.138-17.797 5.563-8.888 5.566-8.892 5.56-8.884 5.558-8.88 11.107-17.747 5.55-8.867 5.547-8.863 5.545-8.859"/>
<path d="m1212.8 1004.6 11.078-17.701 5.537-8.847 0.363-0.579"/>
<path d="m1239.6 961.64 0.8-1.279 5.53-8.834"/>
<path d="m1246 951.53-0.517 0.825-10.537 16.843-22.157 35.395 26.881-42.95 6.33-10.113 5.529-8.834"/>
<path d="m1212.8 1004.6 32.694-52.238 6.046-9.659 5.521-8.822 5.524-8.825 5.519-8.818 11.03-17.623 11.019-17.606 5.506-8.797 5.504-8.793 5.5-8.789 5.498-8.785 5.496-8.78 5.493-8.777 5.491-8.772 5.488-8.769 5.485-8.764 5.483-8.76 3.701-5.914 2.658-0.91"/>
<path d="m1247.4 999.78 10.651-17.042 32.951-52.717 10.963-17.54 5.478-8.763 5.475-8.76 5.472-8.756 65.475-104.75 4.914-7.862-0.732-0.337-2.629 0.9-3.675 5.878-5.443 8.708-5.447 8.713-5.449 8.716-5.451 8.721-5.454 8.724-5.456 8.729-10.921 17.469-5.464 8.741-10.935 17.493-5.472 8.753-5.474 8.757-5.477 8.761-5.479 8.765-10.967 17.543-5.486 8.777-5.49 8.781-5.492 8.786-5.494 8.789-5.498 8.794-5.499 8.798-11.007 17.607-5.508 8.81-5.51 8.814-5.512 8.819-11.033 17.649-11.043 17.665-5.525 8.839-5.528 8.843-5.531 8.847-5.533 8.851-5.535 8.855-5.539 8.86-5.541 8.863-5.543 8.868-5.546 8.872-5.549 8.876-5.551 8.88-2.648 4.236 0.219 2.991 0.703 0.398 3.913-6.261 11.097-17.754 11.087-17.737 5.539-8.862 5.537-8.858 5.534-8.854 16.591-26.538 11.041-17.67 5.518-8.829 5.516-8.825 11.025-17.638 5.508-8.813 4.603-7.364"/>
<path d="m1143.6 1165.8-0.218-2.992 2.648-4.236"/>
<path d="m1146.1 1158.6 5.549-8.878 0.75-1.198"/>
<path d="m1162 1133.1 0.742-1.187 5.547-8.873"/>
<path d="m1168.3 1123.1-11.086 17.744-11.106 17.757 6.299-10.076 9.604-15.365 6.289-10.06 5.541-8.865 5.539-8.861"/>
<path d="m1223.6 1034.6-5.519 8.828-5.52 8.832-11.05 17.676-5.529 8.844-5.531 8.849-11.07 17.709 5.533-8.853 5.537-8.856"/>
<path d="m1251.1 990.52-5.506 8.808-11.019 17.627-11.028 17.643 5.512-8.82 5.516-8.823"/>
<path d="m1388.8 773.59-2.63 0.901-14.566 23.302-5.449 8.718-5.452 8.722-5.455 8.726-10.917 17.463-5.462 8.738-5.464 8.742-5.468 8.746-10.942 17.505-5.474 8.758-5.478 8.763-10.965 17.54-5.482 8.771-5.488 8.779-5.49 8.782-5.492 8.787-5.495 8.791-5.498 8.795-11.003 17.602 5.499-8.799 5.504-8.803"/>
<path d="m1248.5 1040-3.994 6.397-5.486 8.788-10.981 17.587-10.991 17.603-5.499 8.808-5.502 8.812-5.504 8.816-5.507 8.82-11.021 17.653-5.515 8.832-5.517 8.837-11.041 17.685-5.525 8.849-5.528 8.853-5.125 8.208 0.07 0.953 0.147 2.015 0.701 0.402 0.856-1.371 5.529-8.856 66.14-105.95 30.247-48.451"/>
<path d="m1146.7 1207.9-0.217-2.967 5.126-8.21 5.528-8.855 5.526-8.85 5.522-8.846 11.039-17.68"/>
<path d="m1195.8 1126-5.513 8.83-11.024 17.659 5.512-8.83 5.512-8.829"/>
<path d="m1228.8 1073.2-5.498 8.804-5.494 8.802-5.5 8.809-5.502 8.813-11.013 17.639 5.505-8.818 5.508-8.821"/>
<path d="m1241.9 1052.2 3.397-5.442 3.371-5.399"/>
<path d="m1285.4 985.82 10.577-16.943 124.93-200.13 4.88-7.817-0.733-0.334-2.601 0.891-3.649 5.844-5.406 8.659-10.819 17.329-5.413 8.67-10.835 17.353-5.42 8.682-5.424 8.686-5.426 8.691-10.859 17.393-10.869 17.409-5.439 8.71-5.44 8.715-5.444 8.718-5.446 8.723-10.899 17.457-5.454 8.735-5.456 8.738-5.458 8.743-5.461 8.747-5.464 8.751-5.466 8.754-1.409 2.258"/>
<path d="m1282.7 986.8 0.897-1.436 5.467-8.757 5.461-8.748 5.462-8.748 16.372-26.224 5.452-8.732 5.449-8.728"/>
<path d="m1354.5 871.85-5.437 8.708-5.439 8.712-5.441 8.715-10.891 17.444 5.444-8.72 5.447-8.724"/>
<path d="m1425.8 760.93-2.601 0.891-9.056 14.505-5.409 8.664-5.411 8.668-10.831 17.347-5.419 8.68-10.845 17.371-5.427 8.692-5.429 8.696-10.865 17.403 5.431-8.7 5.434-8.703"/>
<path d="m1269 1053.6-3.008 4.824-10.913 17.501-5.461 8.757-5.463 8.761-5.466 8.765-5.468 8.769-5.471 8.773-5.473 8.777-5.475 8.781-5.479 8.785-5.481 8.789-10.969 17.591-10.979 17.607-5.494 8.809-5.496 8.814-5.499 8.818-5.501 8.822-5.503 8.826-5.507 8.83-2.075 3.328 0.215 2.944 0.699 0.407 3.33-5.342 5.505-8.829 5.502-8.825 5.5-8.82 5.497-8.817 21.967-35.222 10.962-17.591 16.431-26.351 21.871-35.078 5.462-8.76 10.916-17.507 8.571-13.747"/>
<path d="m1149.8 1249.7-0.215-2.944 2.075-3.329 5.507-8.832 5.505-8.827 5.501-8.823 10.996-17.634 5.495-8.811 5.491-8.807 5.489-8.803"/>
<path d="m1217.5 1137.7-21.931 35.17 16.45-26.38 5.481-8.79"/>
<path d="m1217.5 1137.7 5.474-8.779 0.579-0.929"/>
<path d="m1228.5 1120.2 2.005-3.215 3.469-5.564"/>
<path d="m1234 1111.4 2.359-3.783 3.107-4.983"/>
<path d="m1322.9 972.01 10.502-16.845 21.671-34.756 5.412-8.679 5.409-8.676 10.81-17.338 5.402-8.663 10.796-17.315 16.175-25.942 5.386-8.639 5.385-8.635 5.381-8.632 5.38-8.627 5.377-8.624 10.746-17.235 5.369-8.612 5.367-8.608 4.846-7.772-0.734-0.33-2.573 0.881-3.624 5.811-5.368 8.609-5.371 8.613-5.373 8.617-5.376 8.621-5.379 8.625-5.38 8.628-5.384 8.633-5.385 8.637-5.388 8.641-5.391 8.644-5.393 8.649-5.396 8.652-5.398 8.657-5.401 8.66-5.403 8.665-10.813 17.341-5.411 8.676-5.413 8.681-10.833 17.373-5.421 8.692-5.423 8.696-5.425 8.701-5.428 8.704-1.399 2.244"/>
<path d="m1320.3 972.98 0.89-1.428 5.429-8.706"/>
<path d="m1326.6 962.84 5.423-8.698 5.424-8.698"/>
<path d="m1326.6 962.84 16.268-26.09 5.419-8.689 2.928-4.696"/>
<path d="m1364.5 902.02 1.008-1.615 0.351-0.565"/>
<path d="m1368.6 895.45 1.312-2.104 1.196-1.917"/>
<path d="m1391.5 858.69 5.394-8.65 5.396-8.653"/>
<path d="m1402.3 841.38 5.392-8.646 5.389-8.642 5.386-8.638 5.384-8.634 5.381-8.63 5.379-8.626 5.376-8.623 5.374-8.618 5.372-8.614 5.369-8.61 3.624-5.812 2.573-0.882"/>
<path d="m1182 1241 2.48-3.984 5.471-8.784 5.469-8.78 5.465-8.776 5.464-8.772 5.457-8.764 10.917-17.528 5.453-8.756 5.451-8.751"/>
<path d="m1290.6 1065.1-3.325 5.339-5.425 8.71-5.428 8.714-5.43 8.719-5.432 8.722-10.873 17.457-5.44 8.734-5.442 8.739-5.445 8.742-5.448 8.746-5.45 8.751-10.907 17.513-5.458 8.763-10.923 17.537-5.465 8.775-5.468 8.778-5.47 8.783-2.48 3.983 0.7 0.404 2.7-1.077 28.55-45.845"/>
<path d="m1292.9 1066.2-30.578 49.1-26.65 42.795-0.206 0.331-0.483 0.776-21.675 34.805 21.809-35.021 0.555-0.891"/>
<path d="m1255.4 1123.1-5.441 8.736-5.443 8.74-10.894 17.492 5.445-8.745 5.449-8.747"/>
<path d="m1255.4 1123.1 5.435-8.728 5.436-8.727 0.459-0.738"/>
<path d="m1282.6 1079.5 0.278-0.447 0.908-1.458 4.239-6.807-21.258 34.133-11.33 18.193"/>
<path d="m1288 1070.8 0.178-0.286"/>
<path d="m1360.1 958.34 10.43-16.749 43.002-69.052 5.365-8.614 5.362-8.61 5.359-8.605 5.357-8.603 58.764-94.363 4.813-7.728-0.735-0.327-2.546 0.872-3.599 5.778-5.331 8.56-5.334 8.564-5.337 8.568-5.338 8.572-5.342 8.576-5.343 8.58-5.346 8.584-5.349 8.587-5.351 8.592-5.353 8.595-10.715 17.203-5.361 8.607-5.363 8.611-5.366 8.615-5.368 8.619-5.37 8.623-5.373 8.627-5.376 8.631-5.378 8.634-5.38 8.639-5.383 8.643-5.386 8.647-5.387 8.65-5.391 8.655-1.389 2.231"/>
<path d="m1357.4 959.3 0.884-1.42 5.391-8.656"/>
<path d="m1363.7 949.23 5.385-8.648 5.387-8.648 5.383-8.644 5.381-8.64"/>
<path d="m1428.2 845.67-5.362 8.609-5.363 8.612-5.367 8.616-10.74 17.245-5.373 8.628-5.379 8.636-26.915 43.216 21.536-34.58 5.379-8.636"/>
<path d="m1408.1 881.16-5.372 8.625"/>
<path d="m1498.5 736.02-2.546 0.872-3.599 5.779-5.332 8.562-5.335 8.565-5.336 8.569-5.34 8.573-5.342 8.578-5.344 8.581-5.347 8.584-5.349 8.589-5.352 8.593-5.354 8.597-10.715 17.205 5.356-8.601 5.359-8.604"/>
<path d="m1220 1225.8 2.464-3.96 5.432-8.733 5.431-8.73 10.852-17.447"/>
<path d="m1312 1076.4-3.64 5.85-5.394 8.672-5.398 8.677-5.4 8.68-5.402 8.684-5.404 8.688-5.408 8.692-10.821 17.397-5.415 8.704-5.417 8.708-5.42 8.712-5.422 8.716-5.424 8.72-5.428 8.724-5.429 8.728-5.432 8.732-2.463 3.96 0.701 0.399 2.671-1.064 50.009-80.401 27.017-43.434 14.536-23.371"/>
<path d="m1255 1169.5-10.843 17.43 5.42-8.713 5.423-8.717"/>
<path d="m1271.3 1143.4-16.246 26.117 10.831-17.411 5.415-8.706"/>
<path d="m1282.1 1126 5.403-8.687 5.406-8.689"/>
<path d="m1292.9 1108.6 5.398-8.678 5.225-8.399 0.173-0.278-10.796 17.355"/>
<path d="m1303.7 1091.3 5.397-8.677"/>
<path d="m1312.7 1076.8-3.64 5.852 3.64-5.852"/>
<path d="m1396.8 944.82 10.358-16.653 21.373-34.361 5.337-8.58 5.334-8.577 15.99-25.706 5.325-8.562 5.322-8.557 5.321-8.553 10.633-17.095 5.313-8.541 5.31-8.538 5.308-8.534 5.306-8.53 5.303-8.526 5.301-8.522 15.888-25.544 4.78-7.684-0.737-0.324-2.518 0.863-3.575 5.745-5.295 8.512-5.297 8.516-5.3 8.52-5.302 8.523-5.305 8.527-5.307 8.532-5.31 8.535-5.312 8.539-5.314 8.543-5.317 8.546-5.319 8.551-10.645 17.113-5.327 8.562-5.329 8.566-5.331 8.57-5.334 8.574-5.336 8.578-5.338 8.582-5.341 8.586-5.344 8.589-5.345 8.594-5.349 8.597-5.35 8.602-5.353 8.605-1.381 2.218"/>
<path d="m1394.2 945.78 0.879-1.413 5.354-8.606"/>
<path d="m1400.4 935.76 5.348-8.599 5.349-8.599"/>
<path d="m1400.4 935.76 16.043-25.792 5.344-8.591 5.342-8.587 5.339-8.583"/>
<path d="m1459.2 841.35-5.806 9.334-52.921 85.076 32.068-51.553 1.045-1.681"/>
<path d="m1440.8 870.83 2.354-3.784 4.477-7.196 0.855-1.375"/>
<path d="m1444.8 864.47 8.576-13.787 0.479-0.771"/>
<path d="m1453.8 849.91 5.327-8.563 1.947-3.128"/>
<path d="m1466.9 828.92 2.918-4.691 5.322-8.555 5.318-8.548 5.315-8.545 5.312-8.54 10.618-17.069 5.305-8.528"/>
<path d="m1534.3 723.76-2.519 0.862-3.575 5.747-5.295 8.513-5.298 8.517-10.604 17.046 5.3-8.522 5.304-8.524"/>
<path d="m1333.2 1087.6-3.949 6.357-5.365 8.635-5.368 8.638-5.37 8.643-5.372 8.646-5.375 8.65-5.377 8.655-5.38 8.658-5.382 8.662-5.384 8.666-5.387 8.67-5.39 8.674-5.392 8.678-7.84 12.619 0.703 0.395 2.643-1.053 1.215-1.956 5.393-8.681 5.39-8.677 10.774-17.341 5.383-8.665 21.509-34.619 10.738-17.287 14.787-23.801"/>
<path d="m1257.6 1210.8 2.446-3.937 5.396-8.683 5.392-8.68 10.778-17.347 5.382-8.663 5.386-8.667 5.38-8.66 5.378-8.655 10.745-17.296 5.373-8.648"/>
<path d="m1330 1094.3-10.734 17.275 5.365-8.636 5.369-8.639"/>
<path d="m1330 1094.3 3.95-6.359"/>
<path d="m1433.2 931.45 10.288-16.559 42.414-68.272 5.291-8.516 5.288-8.513 5.287-8.509 5.283-8.505 15.838-25.493 10.546-16.975 5.27-8.482 10.532-16.953 10.522-16.937 5.258-8.463 4.747-7.642-0.738-0.319-2.492 0.853-3.55 5.713-5.259 8.464-5.261 8.468-5.264 8.472-5.266 8.476-5.269 8.479-5.271 8.484-5.273 8.487-5.276 8.491-5.278 8.494-5.28 8.499-5.283 8.503-5.286 8.506-5.287 8.51-5.29 8.514-5.293 8.518-5.295 8.522-5.297 8.525-5.299 8.53-5.303 8.533-5.304 8.537-5.307 8.541-5.309 8.545-5.312 8.549-5.314 8.552-5.316 8.557-1.371 2.206"/>
<path d="m1430.6 932.39 0.872-1.404 5.318-8.558"/>
<path d="m1436.8 922.43 5.311-8.55 5.313-8.55 5.309-8.547 5.308-8.542-21.241 34.189"/>
<path d="m1470.9 867.49-34.133 54.939 26.546-42.727 5.302-8.535 2.285-3.677 3.018-4.857"/>
<path d="m1480.6 855.14-5.298 8.529"/>
<path d="m1483.3 847.63 6.561-10.56-15.884 25.565 5.295-8.524 4.028-6.481"/>
<path d="m1489.8 837.07 5.291-8.516 5.29-8.515 10.57-17.011 5.281-8.5"/>
<path d="m1516.3 794.53 5.276-8.493 5.276-8.492 5.274-8.488"/>
<path d="m1569.7 711.63-2.492 0.854-3.551 5.714-5.259 8.466-5.262 8.469-5.265 8.473-5.267 8.477-5.269 8.481-21.1 33.961 15.826-25.473 5.274-8.488"/>
<path d="m1354.2 1098.7-4.257 6.86-5.335 8.597-5.338 8.601-5.34 8.605-5.343 8.609-5.345 8.613-5.348 8.616-5.35 8.621-5.352 8.625-5.355 8.628-5.357 8.632-2.429 3.915 0.704 0.391 2.615-1.042 6.563-10.576 5.353-8.628 5.351-8.623 10.694-17.235 31.058-50.051"/>
<path d="m1294.8 1196 2.43-3.915 5.358-8.634 5.355-8.63 5.353-8.626 5.351-8.621 5.345-8.615 5.349-8.618 5.343-8.61 5.341-8.606 5.338-8.602"/>
<path d="m1354.9 1099.1-9.594 15.459 5.333-8.595 4.26-6.864"/>
<path d="m1469.1 918.22 52.343-84.353 5.256-8.469 5.252-8.465 5.251-8.461 5.248-8.458 15.73-25.349 5.238-8.443 5.237-8.438 5.233-8.435 5.232-8.431 5.229-8.427 15.674-25.258 4.715-7.599-0.739-0.317-2.465 0.845-8.75 14.098-5.226 8.421-10.459 16.853-5.233 8.432-5.235 8.436-5.238 8.439-5.24 8.444-5.242 8.447-5.245 8.451-5.247 8.455-5.249 8.459-5.252 8.462-5.254 8.466-5.257 8.47-5.259 8.474-5.261 8.478-5.264 8.482-5.266 8.485-5.268 8.489-5.271 8.493-5.273 8.497-10.553 17.005-5.28 8.508-1.362 2.194"/>
<path d="m1466.6 919.15 0.866-1.396 5.281-8.509"/>
<path d="m1472.7 909.24 10.552-17.004 5.274-8.498 5.271-8.495 5.269-8.49 5.266-8.486"/>
<path d="m1535.9 807.42-5.249 8.465-5.258 8.471-5.257 8.472-5.26 8.475-5.261 8.479-36.897 59.456 31.632-50.973 5.265-8.483"/>
<path d="m1535.9 807.42 5.25-8.455 5.251-8.46"/>
<path d="m1546.4 790.51 5.245-8.452 5.243-8.448 5.24-8.445 5.238-8.441 10.47-16.871 5.231-8.429"/>
<path d="m1604.8 699.63-2.466 0.844-3.526 5.683-5.225 8.418-10.455 16.848 5.226-8.423 5.229-8.425"/>
<path d="m1375 1109.7-4.561 7.357-5.306 8.56-5.309 8.564-5.311 8.568-5.313 8.572-5.316 8.575-5.318 8.58-5.321 8.583-2.412 3.892 0.706 0.387 2.587-1.031 1.198-1.934 5.319-8.582 5.317-8.578 10.626-17.145 5.31-8.566 15.28-24.651"/>
<path d="m1331.6 1181.3 2.413-3.892 5.321-8.585 5.319-8.581 5.316-8.577 5.314-8.573 5.308-8.565 5.313-8.569 5.306-8.561 4.562-7.359"/>
<path d="m1577.6 787.58 26.44-42.659 9.229-14.891 5.125-8.269 16.392-26.447 4.684-7.556-0.74-0.314-2.44 0.836-3.502 5.65-5.189 8.37-5.191 8.374-5.193 8.378-5.195 8.382-5.198 8.385-5.2 8.389-5.203 8.393-5.204 8.396-5.207 8.4-5.21 8.404-5.212 8.408-5.214 8.412-5.216 8.415-5.219 8.419-5.221 8.423-10.449 16.857-5.228 8.434-5.23 8.438-5.233 8.441-5.235 8.446-5.238 8.449-5.24 8.453-5.242 8.457-5.244 8.461-1.352 2.181"/>
<path d="m1502.2 906.04 0.861-1.388 5.245-8.462"/>
<path d="m1504.7 905.12 10.148-16.373 10.474-16.9 5.234-8.444 5.231-8.441 10.456-16.869 10.446-16.855 5.22-8.422 10.432-16.831 5.213-8.411 31.232-50.383 9.562-15.436"/>
<path d="m1508.3 896.19 15.718-25.359 5.236-8.447"/>
<path d="m1555.4 820.21-10.455 16.867-36.645 59.119 20.954-33.806 5.233-8.443 5.231-8.439 5.227-8.431"/>
<path d="m1555.4 820.21 5.221-8.424 5.22-8.421 5.217-8.416"/>
<path d="m1586.7 769.72-5.21 8.405-10.427 16.822 5.211-8.41 5.216-8.412"/>
<path d="m1593.2 762.37-0.972 1.568"/>
<path d="m1612.7 727.75-10.399 16.777-5.203 8.394-10.412 16.799 5.204-8.398 5.208-8.401"/>
<path d="m1598.4 753.97-5.206 8.399"/>
<path d="m1612.7 727.75 5.193-8.379 5.194-8.379-10.387 16.758 15.581-25.137 5.19-8.372 3.502-5.651 2.441-0.835"/>
<path d="m1395.7 1120.6-15.418 24.902-5.282 8.531-5.284 8.534-2.396 3.871 0.707 0.383 2.56-1.021 1.19-1.923 10.564-17.063 5.278-8.526 10.243-16.545"/>
<path d="m1368 1166.8 2.397-3.871 5.285-8.536 5.282-8.533 10.558-17.053 4.862-7.852"/>
<path d="m1540 892.16 10.08-16.282 41.56-67.134 10.368-16.746 5.18-8.367 5.177-8.364 56.804-91.756 4.652-7.515-0.74-0.31-2.415 0.827-3.479 5.619-5.154 8.324-5.156 8.328-10.319 16.667-5.163 8.338-5.165 8.343-5.168 8.346-5.17 8.35-5.172 8.354-5.175 8.358-5.177 8.361-5.179 8.365-10.365 16.741-5.186 8.376-5.188 8.38-5.191 8.383-5.193 8.387-5.195 8.391-5.198 8.395-5.2 8.399-5.202 8.402-5.205 8.406-5.206 8.41-5.21 8.413-1.343 2.169"/>
<path d="m1537.5 893.08 0.854-1.381 5.21-8.415"/>
<path d="m1673.8 676-2.415 0.827-3.479 5.62-5.154 8.325-5.157 8.329-5.159 8.333-10.325 16.677-5.166 8.343-5.168 8.348-5.17 8.351-5.173 8.355-5.175 8.359-10.357 16.729-5.185 8.373-5.182 8.37-5.186 8.377-5.192 8.385-5.188 8.381-5.194 8.389-5.196 8.392-5.198 8.396-5.203 8.403-5.203 8.404-10.41 16.814 10.41-16.814"/>
<path d="m1404 1152.5 2.38-3.849 5.25-8.488 5.158-8.342"/>
<path d="m1416.1 1131.4-5.158 8.341-5.249 8.487-2.38 3.848 0.709 0.379 2.533-1.01 11.693-18.909"/>
<path d="m1646.7 763.1 56.427-91.252 4.621-7.474-0.741-0.307-2.39 0.818-3.456 5.589-5.119 8.278-5.122 8.282-5.125 8.286-10.255 16.583-5.131 8.296-5.133 8.301-5.136 8.304-5.138 8.308-5.14 8.311-5.142 8.315-5.145 8.319-5.147 8.322-5.149 8.327-5.151 8.33-5.154 8.333-5.156 8.337-5.158 8.341-5.161 8.345-5.163 8.348-5.165 8.352-5.168 8.356-10.341 16.723-5.175 8.366-1.334 2.158"/>
<path d="m1572.4 880.24 0.849-1.373 20.686-33.45 15.49-25.049"/>
<path d="m1686.5 695.63-5.127 8.29-5.129 8.295-10.265 16.599-5.136 8.305-5.139 8.309-5.14 8.313-5.146 8.32-5.143 8.316-5.147 8.324-5.15 8.328-5.152 8.331-15.47 25.015 10.313-16.677 5.157-8.338"/>
<path d="m1574.8 879.34 51.296-82.954 5.15-8.329 5.148-8.325 5.145-8.321 5.143-8.317 35.939-58.121 10.246-16.569"/>
<path d="m1687.8 696.68-5.128 8.292-3.149 5.09"/>
<path d="m1686.5 695.63 5.122-8.284 5.123-8.283"/>
<path d="m1707.7 664.37-2.39 0.819-3.456 5.588-15.368 24.851 10.245-16.567 5.123-8.284"/>
<path d="m1609.3 866.65 40.716-65.921 15.355-24.86 5.114-8.28 5.111-8.275 5.11-8.272 10.211-16.534 5.103-8.261 10.198-16.511 10.19-16.497 5.091-8.243 10.176-16.475 5.084-8.232 4.591-7.433-0.741-0.304-2.366 0.81-3.433 5.558-5.086 8.233-5.088 8.237-5.091 8.24-5.092 8.245-5.095 8.247-5.097 8.252-5.1 8.255-10.205 16.521-5.106 8.266-5.109 8.269-5.11 8.273-5.113 8.277-5.115 8.281-5.117 8.284-5.12 8.288-5.122 8.291-5.124 8.295-5.126 8.299-5.129 8.303-5.131 8.306-10.269 16.623-5.137 8.317-6.465 10.466"/>
<path d="m1606.9 867.55 0.841-1.362 5.143-8.326"/>
<path d="m1612.9 857.86 5.136-8.314 5.136-8.315 5.134-8.311 10.26-16.611-25.666 41.551"/>
<path d="m1612.9 857.86 30.793-49.851 0.28-0.452"/>
<path d="m1663.6 775.72 0.538-0.872 5.116-8.282"/>
<path d="m1612.9 857.86 50.74-82.142 5.654-9.154 2.621-4.242"/>
<path d="m1684.7 741.59 5.016-8.121 5.107-8.267"/>
<path d="m1657.1 786.19-8.349 13.519-35.92 58.146 81.941-132.65 5.102-8.26 10.198-16.509 5.095-8.249 10.184-16.487 5.089-8.238 5.086-8.235 3.434-5.558 2.365-0.81"/>
<path d="m1643.4 854.09 9.88-16.015 15.294-24.789 5.093-8.256 10.18-16.501 5.087-8.245 5.085-8.241 5.082-8.238 10.158-16.465 5.076-8.226 60.246-97.653-0.742-0.3-2.342 0.801-3.41 5.528-5.053 8.188-5.055 8.193-5.057 8.196-5.059 8.199-5.061 8.203-5.064 8.206-5.066 8.211-5.068 8.213-5.07 8.218-5.073 8.22-5.075 8.225-5.077 8.228-5.079 8.232-5.081 8.235-5.084 8.239-5.086 8.243-5.088 8.246-10.183 16.503-5.095 8.257-5.097 8.261-5.099 8.264-5.101 8.268-5.104 8.271-5.106 8.275-1.316 2.134"/>
<path d="m1641 854.98 0.838-1.358 5.106-8.277"/>
<path d="m1647 845.34 15.304-24.803 5.097-8.262 5.096-8.258 5.093-8.255 3.811-6.176 1.283-2.079"/>
<path d="m1682.7 787.51 0.534-0.866 4.551-7.378 3.925-6.359"/>
<path d="m1697.9 762.78 5.082-8.237 5.082-8.236"/>
<path d="m1708.1 746.31 5.075-8.226 5.078-8.229"/>
<path d="m1718.2 729.86 10.144-16.441 5.069-8.215 10.13-16.419 5.062-8.204 10.118-16.397 5.055-8.194 5.053-8.189 3.411-5.529 2.341-0.802"/>
<path d="m1677.2 841.66 9.816-15.927 5.066-8.221 25.301-41.055 10.104-16.397 5.05-8.193 5.046-8.189 10.088-16.369 55.322-89.771 4.531-7.353-0.743-0.297-2.317 0.793-8.409 13.642-5.022 8.148-5.024 8.152-5.026 8.155-5.028 8.158-5.031 8.162-5.033 8.166-5.035 8.169-5.037 8.173-5.039 8.177-5.042 8.179-5.044 8.184-5.046 8.187-5.048 8.191-5.05 8.194-5.053 8.198-5.054 8.201-5.057 8.205-5.06 8.208-5.061 8.213-5.064 8.215-5.065 8.22-10.139 16.449-5.072 8.23-1.308 2.122"/>
<path d="m1674.9 842.54 0.833-1.35 5.073-8.231 10.139-16.452 10.13-16.437 5.062-8.214 5.06-8.209 5.058-8.207"/>
<path d="m1741.5 734.46-5.046 8.188-5.049 8.192-5.051 8.195-10.108 16.401 5.052-8.199 5.056-8.202"/>
<path d="m1751.5 718.1 5.039-8.178 5.038-8.174 5.036-8.17 5.033-8.167 10.06-16.323 5.027-8.156 5.024-8.153 5.023-8.149 5.02-8.146 3.389-5.498 2.317-0.794"/>
<path d="m1710.7 829.36 9.751-15.841 30.174-49.01 10.034-16.308 5.016-8.149 10.026-16.287 5.01-8.138 54.964-89.288 4.501-7.314-0.743-0.294-2.295 0.785-3.366 5.468-4.987 8.101-4.99 8.104-4.991 8.108-4.994 8.111-4.995 8.115-4.999 8.118-5 8.122-5.002 8.125-5.004 8.129-5.007 8.132-5.009 8.136-5.011 8.139-5.013 8.143-5.015 8.147-5.018 8.15-5.02 8.153-5.021 8.157-5.024 8.161-5.027 8.164-5.028 8.168-5.031 8.171-10.067 16.353-5.037 8.182-5.04 8.185-1.299 2.11"/>
<path d="m1708.3 830.23 0.827-1.343 5.04-8.187 5.034-8.18 5.039-8.182 10.064-16.349 5.029-8.169 5.027-8.165 5.024-8.162"/>
<path d="m1774.5 722.73-5.014 8.144-5.016 8.147-5.018 8.152-10.043 16.312 5.02-8.154 5.023-8.158"/>
<path d="m1840.2 619.02-2.294 0.786-3.367 5.469-4.987 8.102-4.99 8.105-4.992 8.109-4.994 8.112-4.997 8.116-4.998 8.119-5.001 8.123-5.002 8.127-5.005 8.13-5.008 8.133-10.02 16.278 5.008-8.137 5.012-8.141"/>
<path d="m1743.8 817.18 9.688-15.755 39.947-64.967 4.984-8.105 4.982-8.102 4.979-8.098 4.978-8.094 9.948-16.179 4.971-8.084 4.968-8.081 4.967-8.077 4.964-8.074 4.963-8.07 4.96-8.067 4.958-8.063 4.956-8.06 9.427-15.33-0.745-0.292-2.271 0.778-8.3 13.496-4.957 8.061-4.959 8.064-4.962 8.068-4.963 8.072-4.966 8.074-4.968 8.079-4.97 8.081-4.972 8.086-9.951 16.181-4.978 8.095-4.981 8.099-4.983 8.103-4.985 8.106-4.987 8.11-4.989 8.113-4.992 8.117-4.994 8.12-4.995 8.124-4.998 8.127-5.001 8.131-5.002 8.134-5.004 8.138-5.007 8.141-1.291 2.099"/>
<path d="m1741.5 818.04 0.822-1.336 5.007-8.142"/>
<path d="m1747.3 808.56 10.005-16.271 5-8.132"/>
<path d="m1747.3 808.56 15.005-24.403 4.999-8.128 4.996-8.125 4.994-8.121 4.995-8.122"/>
<path d="m1782.3 751.66 4.987-8.111 3.928-6.386 1.06-1.724"/>
<path d="m1817.2 694.93-69.873 113.63 44.964-73.12 3.4-5.529 1.585-2.579"/>
<path d="m1797.2 727.33 4.984-8.103"/>
<path d="m1795.6 729.91 6.569-10.682 2.159-3.511"/>
<path d="m1817.2 694.93 4.975-8.09 4.972-8.086 4.971-8.083 4.968-8.079 4.966-8.076 4.964-8.073 4.962-8.069 4.96-8.065 4.958-8.062 4.956-8.059 3.345-5.44 2.271-0.777"/>
<path d="m1776.6 805.12 9.625-15.671 19.863-32.337 4.96-8.076 4.958-8.072 9.91-16.134 4.951-8.061 4.95-8.059 4.948-8.055 4.945-8.051 9.884-16.093 4.939-8.041 4.937-8.037 4.935-8.034 4.932-8.031 4.931-8.027 4.928-8.024 4.927-8.02 4.924-8.017 4.922-8.014 4.444-7.236-0.745-0.288-2.248 0.769-3.323 5.41-4.924 8.015-4.925 8.018-4.928 8.022-4.93 8.025-4.931 8.028-4.934 8.032-4.936 8.035-4.938 8.039-4.94 8.042-4.943 8.046-9.891 16.101-4.949 8.056-4.95 8.059-4.953 8.063-4.956 8.067-4.957 8.069-4.959 8.074-4.962 8.076-4.963 8.081-4.966 8.083-4.968 8.088-4.97 8.09-4.972 8.094-4.974 8.098-1.283 2.088"/>
<path d="m1774.2 805.97 0.816-1.329 4.975-8.099"/>
<path d="m1780 796.55 4.969-8.092 4.971-8.091 4.969-8.088 4.966-8.085"/>
<path d="m1780 796.55 19.875-32.356 4.964-8.082"/>
<path d="m1829.7 715.75-6.282 10.226-4.105 6.684-9.25 15.058-29.991 48.825 24.839-40.438 4.962-8.078 0.19-0.309"/>
<path d="m1819.3 732.66 0.477-0.778 3.628-5.906"/>
<path d="m1829.7 715.75 9.905-16.125 9.89-16.1 4.943-8.046 4.94-8.044 4.939-8.039 4.936-8.037 4.935-8.033 4.932-8.029 4.93-8.026 4.928-8.023 4.926-8.019 4.924-8.016 3.324-5.411 2.248-0.77"/>
<path d="m1809 793.19 9.564-15.587 44.356-72.294 4.918-8.015 4.916-8.013 4.913-8.008 9.822-16.007 4.907-7.999 4.905-7.995 4.904-7.991 4.901-7.989 4.899-7.984 4.897-7.982 4.895-7.978 4.893-7.974 4.891-7.972 4.416-7.197-0.746-0.286-2.226 0.762-3.302 5.382-4.892 7.972-4.894 7.976-4.896 7.979-4.898 7.982-4.901 7.986-4.902 7.99-4.905 7.992-4.906 7.996-4.909 8-4.911 8.003-4.913 8.006-4.915 8.01-4.917 8.013-4.919 8.017-4.921 8.02-4.924 8.023-4.925 8.027-4.928 8.03-4.929 8.034-4.932 8.037-4.934 8.041-4.936 8.044-4.938 8.048-4.941 8.05-4.942 8.055-1.274 2.076"/>
<path d="m1806.7 794.03 0.811-1.321 4.943-8.056"/>
<path d="m1812.5 784.65 9.876-16.097 4.937-8.045 4.934-8.042 4.933-8.038 4.93-8.035"/>
<path d="m1866.7 696.27-6.187 10.084-48.042 78.296 29.61-48.257 1.264-2.06"/>
<path d="m1849.5 724.3 2.433-3.965 4.007-6.53 0.917-1.494"/>
<path d="m1851.7 720.65 5.116-8.337 3.654-5.955 1.268-2.066"/>
<path d="m1861.8 704.29 4.919-8.018 3.1-5.051"/>
<path d="m1881.4 672.24 4.912-8.004 4.909-8.001 4.907-7.997 4.905-7.994 4.903-7.991 4.901-7.986 4.898-7.984 4.897-7.98 4.895-7.977 4.892-7.974 3.303-5.382 2.226-0.762"/>
<path d="m1841.1 781.38 48.688-79.44 4.889-7.976 4.886-7.973 4.885-7.97 4.882-7.966 9.759-15.923 4.877-7.956 4.874-7.953 9.742-15.896 4.868-7.943 4.866-7.939 4.864-7.936 4.862-7.933 4.86-7.929 4.388-7.16-0.746-0.283-2.204 0.755-8.142 13.284-4.863 7.933-4.865 7.937-4.868 7.941-4.869 7.944-4.871 7.947-4.874 7.951-9.753 15.911-9.761 15.925-4.884 7.967-4.886 7.971-4.888 7.974-4.89 7.978-4.892 7.981-4.894 7.984-4.896 7.988-4.898 7.991-4.901 7.995-4.902 7.998-4.905 8.001-4.907 8.005-4.908 8.008-4.911 8.012-1.266 2.066"/>
<path d="m1838.9 782.21 0.806-1.314 4.912-8.013"/>
<path d="m1844.6 772.88 14.718-24.014 4.903-7.999"/>
<path d="m1844.6 772.88 19.621-32.013 3.7-6.037"/>
<path d="m1874 724.88 4.899-7.992"/>
<path d="m1878.9 716.88 3.314-5.407 1.578-2.575 0.874-1.426 2.832-4.62 0.307-0.501 0.88-1.435"/>
<path d="m1884.7 707.48 18.684-30.483 4.884-7.968 4.885-7.969"/>
<path d="m1844.6 772.88 68.539-111.82 4.88-7.961 4.878-7.959 4.876-7.955 4.874-7.952 4.869-7.945 4.873-7.948 4.868-7.941 4.865-7.939 4.864-7.935 4.861-7.931 3.282-5.354 2.204-0.755"/>
<path d="m1872.9 769.68 9.442-15.423 38.937-63.598 14.568-23.794 4.851-7.924 14.543-23.754 4.844-7.911 4.841-7.908 4.839-7.905 4.838-7.901 4.835-7.898 4.833-7.894 4.832-7.891 4.829-7.888 4.361-7.122-0.747-0.28-2.182 0.747-3.26 5.325-4.831 7.889-4.832 7.892-4.835 7.896-4.836 7.899-4.839 7.902-4.841 7.905-4.842 7.909-4.845 7.912-4.847 7.916-4.849 7.919-4.851 7.922-4.853 7.926-4.855 7.929-4.857 7.932-4.859 7.936-4.861 7.939-4.863 7.942-4.865 7.946-4.868 7.949-4.869 7.953-4.871 7.956-4.874 7.959-4.875 7.962-4.878 7.966-4.88 7.97-1.258 2.054"/>
<path d="m1870.7 770.5 0.801-1.307 4.88-7.971"/>
<path d="m1876.4 761.22 4.876-7.964 4.876-7.963 4.874-7.961 4.872-7.957 4.87-7.953-24.368 39.798"/>
<path d="m1876.4 761.22 29.236-47.748 0.282-0.462"/>
<path d="m1916.4 698.59-4.864 7.945"/>
<path d="m1920.2 689.64-9.723 15.884-34.104 55.695 48.686-79.516 4.86-7.937"/>
<path d="m1929.9 673.77 4.853-7.927 4.853-7.926-9.706 15.853 14.56-23.78 4.85-7.92 4.847-7.917 4.845-7.913 4.843-7.91 4.841-7.907 4.84-7.903 4.837-7.9 4.835-7.897 4.833-7.893 4.83-7.89 3.261-5.326 2.183-0.747"/>
<path d="m1904.4 758.09 28.745-47.001 4.835-7.906 4.834-7.903 9.661-15.796 4.827-7.893 4.825-7.89 4.824-7.887 4.821-7.883 9.636-15.756 4.815-7.873 4.813-7.87 4.812-7.867 4.809-7.863 4.807-7.86 4.805-7.857 4.803-7.853 4.801-7.85 3.968-6.489 0.026-2.836-0.746-0.278-0.263 0.43-4.801 7.848-4.802 7.851-4.804 7.855-4.806 7.858-4.809 7.861-4.81 7.864-4.812 7.868-4.814 7.871-4.817 7.874-4.818 7.877-4.821 7.881-4.822 7.885-4.825 7.887-4.826 7.891-4.829 7.894-4.83 7.898-4.833 7.901-4.834 7.904-4.837 7.907-4.839 7.911-4.841 7.914-4.843 7.918-4.844 7.921-4.847 7.924-4.849 7.927-1.25 2.044"/>
<path d="m1902.2 758.91 0.795-1.301 4.85-7.929"/>
<path d="m1907.8 749.68 9.69-15.844 4.843-7.918 4.841-7.915 4.839-7.912 4.838-7.909"/>
<path d="m1907.8 749.68 29.051-47.498 0.817-1.335"/>
<path d="m1944.7 689.4 1.847-3.021 3.74-6.115 1.091-1.784"/>
<path d="m1956.2 670.58 4.827-7.892"/>
<path d="m1950.3 680.26-5.587 9.136-36.872 60.284 47.105-77.016 6.101-9.975 0.682-1.115"/>
<path d="m1975.5 639.03-27.133 44.361-4.817 7.877-4.511 7.375-31.216 51.037 58.033-94.879 9.644-15.771 4.819-7.879 4.817-7.875 4.815-7.872 4.813-7.869 4.81-7.866 4.809-7.862 4.807-7.859 4.804-7.855 4.803-7.852 4.801-7.849 0.263-0.431"/>
<path d="m1935.2 747.31 0.109-0.178 38.483-62.988 9.6-15.714 4.797-7.852 4.795-7.849 4.793-7.845 4.791-7.842 14.362-23.507 4.783-7.829 1.802-2.95 0.026-2.816-0.744-0.282-2.893 4.734-4.784 7.831-4.786 7.833-4.788 7.837-4.791 7.84-4.792 7.843-4.795 7.846-4.796 7.85-4.798 7.853-4.801 7.857-4.802 7.859-4.804 7.863-4.807 7.867-4.808 7.869-4.811 7.873-4.812 7.876-4.815 7.88-9.635 15.769-1.242 2.033"/>
<path d="m1933.4 747.43 0.79-1.294 4.819-7.887"/>
<path d="m1953.4 714.61 4.811-7.874"/>
<path d="m1939 738.25 19.253-31.512 4.809-7.871 4.807-7.867 0.134-0.218"/>
<path d="m1977.1 675.93 0.397-0.65 3.559-5.825 1.242-2.032"/>
<path d="m1981 669.45-13.033 21.332-29.003 47.468 33.68-55.115 9.598-15.717 4.799-7.855"/>
<path d="m1987.1 659.56 4.799-7.854 4.795-7.848 4.79-7.841 4.793-7.844 4.789-7.838 4.787-7.834 4.785-7.831 2.893-4.736"/>
<path d="m1954.3 755.19 2.271-3.721 4.791-7.851 4.789-7.847 38.243-62.661 9.54-15.632 4.768-7.812 4.416-7.237 0.026-2.796-0.741-0.286-0.738 1.209-4.766 7.809-4.769 7.812-4.77 7.816-4.773 7.819-4.774 7.822-4.777 7.826-4.778 7.829-4.781 7.831-4.782 7.836-4.785 7.838-4.786 7.842-4.789 7.845-4.79 7.849-4.793 7.851-2.533 4.151"/>
<path d="m1955.5 750.48 4.793-7.853 4.791-7.849 4.789-7.846 9.569-15.679 4.783-7.837 9.562-15.666 4.777-7.827 4.775-7.823"/>
<path d="m2023.1 639.63-0.738 1.21-4.767 7.81-4.769 7.813-9.544 15.637 4.77-7.817 4.774-7.82"/>
<path d="m1973.2 763 4.41-7.232 9.529-15.63 4.762-7.81 4.759-7.807 9.513-15.604 14.255-23.381 2.265-3.714 0.025-2.776-0.738-0.291-3.348 5.49-4.751 7.792-4.752 7.795-4.755 7.798-4.757 7.801-4.759 7.805-4.761 7.807-4.762 7.811-4.765 7.815-4.767 7.817-4.671 7.662"/>
<path d="m1976.6 754.79 4.764-7.815 4.768-7.819"/>
<path d="m1971.9 762.45 4.672-7.663 9.532-15.634 4.764-7.812 4.761-7.809 4.759-7.805"/>
<path d="m2022.8 679.05-3.348 5.491-4.751 7.793-14.266 23.397 4.754-7.804"/>
<path d="m1992 770.75 6.527-10.715 4.74-7.783 4.738-7.779 9.47-15.549 4.732-7.77 0.127-0.209 0.026-2.757-0.736-0.295-1.206 1.981-9.469 15.545-4.737 7.777-4.739 7.78-4.741 7.784-4.744 7.787-2.044 3.356"/>
<path d="m1990.7 770.2 6.788-11.145 4.741-7.785"/>
<path d="m2022.4 718.19-1.207 1.981-4.733 7.771-14.214 23.335 4.737-7.782 4.738-7.774 4.739-7.779"/>
<path d="m2010.7 778.43 3.904-6.416 4.716-7.753 2.72-4.47 0.026-2.738-0.733-0.299-3.796 6.239-8.881 14.594"/>
<path d="m2009.4 777.88 8.88-14.594 3.8-6.242-12.678 20.836"/>
<path d="m1208 1156.3-32.929 52.813"/>
<path d="m1217.5 1137.7 16.422-26.336 9.548-15.312 0.458-0.735 0.926-1.485"/>
<path d="m1243.5 1096.1 23.224-37.245-0.115 0.184"/>
<path d="m1262.4 1065.8-6.558 10.513-32.224 51.685-6.053 9.708 9.873-15.833 24.403-39.137 7.911-12.689 2.648-4.247 7.368-11.816"/>
<path d="m1391.5 858.69-20.416 32.742-2.508 4.021-17.409 27.92-24.615 39.475 37.93-60.829 10.812-17.339"/>
<path d="m1391.5 858.69 10.79-17.303-75.738 121.46"/>
<path d="m1302 912.48-43.914 70.257"/>
<path d="m1175.4 1067.7-27.83 44.468"/>
<path d="m1251.9 894.5-11.093 17.71-66.813 106.61 50.138-80.008-0.415 0.662-10.706 17.08-39.017 62.266"/>
<path d="m1291.3 1065.4-17.325 27.815-18.595 29.853 16.306-26.178 2.289-3.675"/>
<path d="m1255.4 1123.1 27.163-43.614"/>
<path d="m1413.5 872.54-10.736 17.239-32.266 51.813"/>
<path d="m1299.7 1100.9-16.2 26.045-10.817 17.389"/>
<path d="m1292.9 1108.6-21.626 34.766 10.817-17.39 10.809-17.376"/>
<path d="m1292.9 1108.6 19.834-31.884"/>
<path d="m1292.9 1108.6 19.835-31.883"/>
<path d="m1475.1 815.68-8.24 13.246-5.782 9.297-16.329 26.249-9.731 15.644-34.614 55.645 33.113-53.234 7.272-11.69 6.831-10.98"/>
<path d="m1320.6 1112.6-32.247 51.906"/>
<path d="m1330 1094.3 3.951-6.358"/>
<path d="m1333.9 1088-3.95 6.358 3.95-6.358"/>
<path d="m1485.9 846.62-10.59 17.045-31.824 51.227"/>
<path d="m1436.8 922.43 37.151-59.796"/>
<path d="m1603.6 745.58-10.403 16.783-15.623 25.208"/>
<path d="m1626.1 796.39-10.31 16.672-30.974 50.091"/>
<path d="m1647 845.34 35.684-57.833 10.172-16.487-45.856 74.32"/>
<path d="m1647 845.34 61.104-99.033 10.153-16.455-71.257 115.49"/>
<path d="m1727.5 760.06-35.405 57.452"/>
<path d="m1747.3 808.56 34.989-56.899 4.944-8.039 5.031-8.182"/>
<path d="m1780 796.55 34.768-56.594 9.906-16.134"/>
<path d="m1881.4 672.24-11.649 18.985-18.057 29.427-3.657 5.961-35.615 58.043 30.874-50.317 6.157-10.035 6.44-10.495"/>
<path d="m1844.6 772.88 34.32-55.994 2.733-4.458 1.632-2.662 5.42-8.844-44.105 71.958 23.321-38.05"/>
<path d="m1921.3 690.66-9.722 15.879-29.215 47.719"/>
<path d="m1876.4 761.22 43.827-71.579"/>
<path d="m1982.3 667.42-43.278 70.832 9.63-15.761"/>
<path d="m1983.4 668.43-38.45 62.935"/>
<path d="m2014.7 692.33-9.512 15.593"/>
<path d="m1028.8 1440.8-0.787-9.148-22.51-261.78"/>
<path d="m1201.5 1551-172.73-110.19"/>
<path d="m1246.1 1001.8 2.383 38.206 0.087 1.38v1e-3"/>
<path d="m1248.6 1041.4-6.768 10.84-13.069 20.933"/>
<path d="m1041.7 1449.1 228.79-96.04 14.615-6.135"/>
<path d="m1312.7 1076.8-19.834 31.884 19.834-31.884"/>
<path d="m1361.2 907.37 0.786-1.26 2.555-4.098"/>
<path d="m1377.2 1110.9-15.279 24.652"/>
<path d="m1333.9 1088-3.95 6.358"/>
<path d="m1606.9 867.55 5.983-9.688"/>
<path d="m1658.2 784.44 0.812-1.315"/>
<path d="m1657.1 786.19 17.239-27.908"/>
<path d="m1360.1 958.34-1.225 0.45-2.613 0.962-33.306 12.252-1.228 0.452-1.414 0.52-1.227 0.451-33.68 12.39-2.67 0.982-1.229 0.453-34.058 12.529"/>
<path d="m1394.2 945.78-1.223 0.449-32.939 12.118"/>
<path d="m1433.2 931.45-1.221 0.449-1.337 0.492-1.221 0.449-32.578 11.984-1.223 0.45"/>
<path d="m1466.6 919.15-1.219 0.449-32.223 11.854"/>
<path d="m1504.7 905.12-1.217 0.447-1.288 0.474-1.216 0.448-31.874 11.725"/>
<path d="m1572.4 880.24-1.212 0.446-31.191 11.474-1.214 0.446-1.264 0.466-1.215 0.446-31.529 11.599"/>
<path d="m1952.9 754.64 2.535-4.152-2.534 4.152"/>
</g>
</g>
</svg>
