<svg xmlns="http://www.w3.org/2000/svg" viewBox="0 0 1920 1080"><g xmlns:inkscape="http://www.inkscape.org/namespaces/inkscape" fill="none" stroke="#000" stroke-linejoin="round"><path d="M1289.9 598.8 1350 620m-118.8-41.8 6.7 2.3m112.4 39.5-1.6 25.1M1162 514h-.1m364.3-13.5-15.8 10.7m-279.2 67-14.7-5.2m171.7 21.3-31.7-28-61.7 2.3m47-32.8 48.3 3 34.6 30.9-68.1-3.4-31.5-19.8m98.8 23.3L1388 594m.2.3 36.4-24.6m-38.4 49.8 36.3-25m1.2-24.1 1-.7m-36.5 24.8 35.5-24-2 2.5"/><path d="m1294.4 568.8 42.3 22.4 51.6 3-2.1 25.3 38.5-49.8-2.2 24.7m-.3-.4-35 24.3m-82.7-84.7 7.6.4m40.3-29v-.5m0 0-48 29-78.4-15.4-28.2-1.9m154.6-11.2 2.5 2.2m35.2 31.5-28.2-25.6m39.7-137.1 17.8 5m.8 0-18.4-5.3-19.2 10.9"/><path d="m1445.5 406 53-2.6-78.3-22.4-19.2 2.8m-124.2 112.8.1-.5m-36.8-2.9 36.8 3L1226 518l-42.8 16.8m93.6-38.2 27.2 36.9m.5.1-27.6-37.5m5.7-51.4.1.1m34.7 27.3-18.8-15m18.8 15-39.4-2.9m4.4-24.9-38.7 22.4m145.9 72.3-33 27.3m-29.8-31 63.3 3.4m0 0-33.5 27.6m100.9 3.9 2.3-24.5m-.1 0-.4.5m-2.1 23.7-33.8 23.3m36.3-47.5-37.3 48.7 68.8-47.5m-247.5-79.8v-.2m0-.2-21.3 12.4m-18.2 10.7 39.5-22.7m33.2 29-17.8-15.8m90.9 139.8-60.3-21.1m47.5-5.8 12.7 26.6-59.6-20.9m-.3-.2 59.9 21.1m-13.5-28.2.2-.4"/><path d="m1300.6 597.2 36-6 13.5 29m7.8-171.5-40.9-2.4m40.9 2.4-81 47.5 80.8 9.2m-184.5 77.3 39 14m-38.7-14.3-.4.3m.4-.3.9-21.4m-.3-2.8-1 24m1.4-23.6 43 34.7m12.3 9.8-55.7-44.9m284.7-11.7 1-.8m-.1 0-35 24m0 0 34.1-23.2-36.2 47.2m36.5-47.8-34.6 23.5-34.4-30.7m.4.4 69.2 6.6"/><path d="m1425.8 517.6 34 28-69.7-6.9 35.7-21m-108.4-45.1.5-.1m-.5.1 34.4 31.8m.6.1-35-32.4 75 8.2-40 24.2m67.4-123.2-.6 5.5m-.3 5.7 1.3-11.5m.1.4L1401 384m-3.4 18 21.3-9.5-18.3-3m-227 180.5-.5 12.3-40.7-14.6m-13-4.7-1-.2m-.3 0h.2m.2.2h.2m55.4-4.8-55.6 4.5m0 .3h.1m-.1 0 12 4.2M1502.3 428l-105.8-4.1m105.8 4.1-61.6 27.6m0 0-44.2-31.7"/><path d="m1318 472.2 39.8-23 34 31m.6.1-34.5-31.6m-53.8 85.3.4-.4m0 0-4.6 15m4.6-15-1.9 6.4m-8.4 28.2 5.6-19m-9.8 49.5 5-33m4.9-17.1 4.3-14.6-68.9 13.8"/><path d="m1232 570.6 2.6-23 70-14 4.1 2.6M1174.1 558l-29.7-10.5m38.8-12.5-9 23.2-30-10.5m-24.9-9 .7.3m.9-.4-1.6.1.7.3m62.9-3.7-2.3 6m2.3-6 .3-.4m-.5.4-51.8 3m-11.9.6-.1-.1m469.7-80.8-30.4-18.3m59.4-1.6.7-.3m0 0-60 1.9m59.3-1.6-23.7 16.1m-5.3 3.8 29.6-20.2m-124.6 84.8-67.8-5-43.3-7.7m9.8-29.1v-.5m0 .5 33 36.7m.5.1-33.4-37.3m-162.6 122.8 3.8 1.4m.6-.4-4-1.4.9-16.4m0-7.9-.3 6.6m.6-6.7 4.2 3.7m-3.2-3.1-1.3-.5m57.1 45.6v-.7m-55.8-44.4 5.2 1.8m52.1 18.2-30.4-10.6"/><path d="m1232.2 570.5-.8 7.5 6.7 2.4m50.1 43.6 1.6-25m100.3-60.3 33.9 30.8m162-88.4 29.6-20.4m-496.8 78.1-.7 24m182-13.9 4.4-15.3 5 3.6m-15.3 31 5.3-17.3m190.9-4-33 22.7m33.8-22.7-31.5-.9m31.5.9-31.5-1.2m-165.9 22.9-3 20.9m3.4-21.3-15 2.7m15-2.7-4.3.7m-52.3 11.8-6.6-2.4m3.6-30.8.2.5"/><path d="m1231.5 578 3.3-30 35.4 12.3m24 7.9-2.1-.7m265.5-147.1 60.7 17.4-32.2 43.3 2.6-23-63.3-3m92-16.5.8-.8"/><path d="m1588.6 458.2 28.8-19.6-31.3 42m-28.5-60.2.7 19.3m48.2 14 11.5-15.3-2.7 22.2-28.7 19.8M1288.2 624l60 21.5-58.1-46.5m-1.5 24.6-.4.3m61.8-3.6 38.2-26-.7.2m-97.8 4.5 1.4.5m24.4 8.6 34.5 12.2-1.8 24.5m-7.2-5.7 7.2 6.4m.2-.2 1.9-25.2m.2-.1-1.9 25.1 17.9-12.5"/><path d="m1371.5 619.8 14.7-.3-36.5 25m-1 .6 11.3-7.9"/><path d="M1385.3 619.6h.9l-35.7.8M1162.2 514l-43 24.7m4.1-.3-3.6.2 42.5-24.2m21 20.6-21-21m1.8 22 19.2-1-6.4-6.4m-.9-22.6-13.4 8.2m-43.2 24.5 42.5-24.4m-43.7 48.5.2-.1m.5-10.7.4-13 13.4 4.8m40.5 14.2 1 .2m318.9-35.4.7-.2m-.7.2-33.4 22.7m33.7-22.5-33.6 22.7 34-23m-2.7 23.7.2.5"/><path d="m1526.3 500.6-2.4 23.3-32.7 23 2.4-24.3-34-27m-255.7-5.8-13.7 7.8m-23.4 16.6-4.5-.2m-.1 0 3.3.2m12.5-9.2 25.5-14.7 12.3 15.4m-12.2-15.9v.2m322.6 10.2-66.6-4.7m66.1 5-32.3 22m.2.1 32.6-22.4"/><path d="m1524 520.5-.3 3.3-29.6-1.3 32-21.7m-2.2 23.2-29.8-1.5m29.5 1.3.2.1m.1.1 2.3-23.8 31.8-21.4-34.1 45.1 62.1-42.8m-66.2 45.7 3.8-2.6M1441 456l60.4 21m.5-.3-61.2-21.1m0 0 19 39.9m98.3-16.7-56.1-2-42.3 18.7-67.2-15.2 48.3-24.7m0 0 19 40M1226.1 518l-10-12.5m-1-22.2-11.4 6.6m354.3-11.1-.8.8"/><path d="m1540.4 491 16.8-11.4-33.3 44m23.9-16.2-24.1 16.7m-21.8-47.4 23.5-21.5m0 0-83.8.7m83.8-.7-84.7.4-82.8-6.9m87.6-42.7-53-4m26.4-9v-.5m-20.6 9.6 20.6-9.2 25.7 13m.9.1-26.6-13.5 24.4-4.9 2.2 18.4m79.9 49.2-23.1-27.2m0 0-60.7 27.6m17.6 39.8-18.5-39.8"/><path d="m1555.5 502.1 2.5-23.3-32.6-23.6 32.9-15.5-56-11.7-56.8-22-49 17.9M1558 479l30.7-21"/><path d="m1588.6 458-31.3 21-55.1-2m53.3 25.1 33.2-44m-.4.5-2.6 22.3m2.6-22.3-32.3 43 30-20.5"/><path d="m1588 458.2.6-.2-.3.5m-32.3 43.1-31.5 21.8M1352.9 505l-.5-.5 2.8 2.5"/><path d="m1355.2 507-2.3-2 4.4.7m146.6-27.1-2-1.9m-.1.5 24.4 23m-1.8 23.1 33.2-44-2.4 22.6m-31.7 22.3.2-.1m-64.5-28.3-33.3 21.8-33-36.9m32.9 37.4 33.8-22.6m0 .5-67.2-15.7m-1.7 58.5 35-20.7 33.3 27.5M1443.4 388l-.2-.4m2.5 18.4-2.2-18 54 15.5M1382.7 387v-.3m-.1-.1-27.1 15.7m27.2-15.3.1.1m14.8 14.9-2-2m-101.4 168.2.2.6m-4.2 29.8 4.2-29.8 4.4 2.3m227.4-115.9 32-15.1L1588 458m-86.2 19.2 23.9 23m-342.3 35.2-.2-.5m-.2 1.5.4-1 50.3 12.3m.9-.2-51.4-12.6"/><path d="m1270.3 560.2-35.8-12.7-60.4 10.7m413.9-100-30.1 20.5m-160.6-76.3-1 21.3m.2.2 1-21.8m.3.3h-6.3m5 21.5-21.7-11.5m8.3-25.4h1m-158.2 131.5 8.3 29m.1.5-8.2-30m.3.5-.3-.4-42.3 17m172.8 31.8v-.6m-.5.4.4-.4-19.9 24.9.4.4"/><path d="m1337.1 591.2 19.5-24.3 31 27.4M1183.2 535l-20.6-20.8m-.1-.1v.1m339.9-37.4 23-21.6m-22.8-26.8-.4-.4m23.2 27.1-22.8-26.7 55.1 11.5m-.1-19.5-55.3 7.6-3.8-24.6 59.1 17m-138.5-27.9 1.2-11.1 22.3 6.3m-45.2 36.3 48-17.6 55.8 21.6m-266.4 119.5-8.4-29 77.2 15.2m-26.3-37.2-.4-.4m27.7 37.4-27.3-37 74.7 8.3m35.5 89.7-37.1 25.3-13.4-28.2m0 0 50.5 3m-1.6 24.4-34.8.8 36.8-25"/><path d="m1387.4 600.8-1.5 18.2-35.3 1 11.8-8m34.1-187.7v-.4m-40.2-.6 40.2.6-38.6 24.8-20.8-14.2m21.4 14.3 38-24.5 43.5 31.2m-83.9 111.2-62 1.5 21 11.6"/><path d="m1294.8 568.6 61.3-2-19.5 24.5m-16.6-168v-.1m-.1-.3-37.4 21.6m37.5-21.2h.1m-139.6 134.2 53.8-9.3-3.3 29.9m-55.6-19.1-1.3-.6 56.8 20.2"/><path d="m1245.4 575.8-14 2.2-31.6-11m-1.4 0 32.5 11.4-.3 6.7m-.9 17.3v.7m.9-17.4-.8 16.7-7.5-6m133.2-193.8.3.2m-.3-.5v.4m0-.4-35.6 20.4m76.9 1.1 1-21.4 47 3.9M1320.4 423h2.3m120.2-35 2.2 17.9m-2.2-17.9-23.6 4.8m137.6 27.7-58.7-16.7m0 0 3.7 24m21.2 96.5.8-.4-9 6.2m-88.4-12.4 33.2-21.7m-391-107.5h-.2M1162 514h-.1M913 466.3h.5M954 446l-19.3 9.5m-21.9 10.8.2 23.3 99.8 35.8m388.5-149.5-17.9-5.5m0 0-.5 16.3m0 0 18.8-11m-158 91 39-22.3m-112 17.1 73 5.2-32.1-28.1m71.1 5.8-71.1-5.8m-41.3 23.2-33.3 26.5m0 0 33.7-26.8m0 0-33.8.1m66.5 28.3-66.4-1.6-50.4-27.3m84.1.5-84-.5m127.1-72-41.6 24.6m.6 0 41-24.2 38.2 28.9m.7 0-38.9-29.3m38.9 29.3-80.5-4.7M1058.3 430l-65-4-39.7 20m77.8-39.1-38 19m38.1-18.7 26.2 22.7m.6.1-27-23.1m180.3 31.7-40.9 22.9m32.9 28.3-32.9-28.3-35.7-27.1m76.6 4.2-76.6-4.2m-48.4 26.6-66.8 13.6"/><path d="m1019.2 474.4 67.5-13.4-12.9 31.4m0 0-54.6-18m153-60.8-43.8-21.4m85.4-3.2-85.4 3.2m128.4-57.6.1-.4m.1 0-53.6 24.8m53.4-24.4 16 35.9m.4.1-16.2-36.4m16.2 36.4-69.8-11.6m179.7 11.8-.6 15.7m.9-16.1-24.6 4.6m24.1 11.7-24.5-11.9m2.7-10.8 22.4 6.4-25 4.4m-186.3 38.8-37.2 20.8m0 0-42.9-23.5m160.6 7.4-41 20.3-39.5-25-80-2.7"/><path d="m1162 513.7-50.6-3.4-37.6-18 63.2-4 25 25.4m-75.2-52.2-.2-.5m250.5-76-15.5-18.5m.1 0 15.4 18.5m0 0 21.3-10.2-36.7-8.3M962.9 483.7l56-8.9-6 26.5-50-17.6m56-8.9.3-.4m-25.6-5.1 25.6 5.1-57 9.1m50.8 17.9 6.2-27m-57 9.3 50.8 17.7m-49.6-17.1 22.3 7.8m-23.5-8.4 50.5 41m0-.1v.8m.1 0 .2-24m-50.8-17.7 50.6 41.7 52 18.6m14.3-145.4 13 12.3-60.7-4 37-18.4m.4 0-.4.2"/><path d="m1079 398.4-10.1-10-18.7 9.5m18.4-9.2-18.4 9.2m41.4 12.9-22.8-22.3m103.4 25.5 38.7 24.5m-38.7-24.9-36.6 20.8m-77.3-4.4-45.4 19.1m-19.2-22.8-.4-.4m0 .1 19.7 23m-.1 0-19.3-22.7 64 3.9m115.6-94.2-68.6 34.3m6.8 140 .3.3m7.5 27.8-.2.3m.1 0L1162 514m-9.9 5.5-33 19-2.1-8.1m-5.6-20.1 7.6 28.4m-205.8-72.1 48.1 17-4.3.4m-42.8 5.6H913l49.2-6m0 .1-49.4-17.4m55.2-2.2-5.8 19.4-22.3-7.9m28.3-11.8-17.6 1m17.6-1-6 19.7m6-19.7-3 10.3m317.5-29.7-30-26m67.4 4.4h-.2m-37.2 21.6 37.3-21.6m-37.4 21.6h.1"/><path d="m1068.6 388.5 36-18.2 23.8 22-43.2-2.8"/><path d="m1128.4 392.2-59.3-3.8 35.5-17.7m-35.8 17.8 16.4 1"/><path d="m1085.2 389.6-16.4-1.1 35.7-17.8 23.3 21.5m-23.3-21.5v-.4m-36 18.3 12.2-6.1m90 79.5v-.5m-33.1 26.8 33.1-26.3 32.4 27.9m.6.1v-.1m105.5-140.6 51.9 14.7-88 6.5m36.5-20.9-.5-.3m.1 0 12.3 17.5m-159.4 146.9-24.7-25 65.6 1.4m-41 23.6 41.5-23.7m-45.6-117.6-53.3-2m34.8-17.1.1-.4m-.1.4 18 19.1m.5 0-18.4-19.5m-47.4 58.4 42 23m-42-23.4-33.2 19"/><path d="m1012.9 449.1 73.7 11.9 48.4-26.6-76.7-4.5 33.8-19 36.3-18.7 29.5-19.8M1273 371l21.5 28.4m.5 0-21.8-28.9m0 .1-46 14.6m67.8 14.2-81.2-10.4m59.4-18.4-59.4 18.4-55.8-16.6 45.4-13.4m92 40.8 59.6 2.7m-17.9-17.5 18.4 17.3-60.5-2.9m0 0 .8.8m24.4 22.6 35.3-20.5m-35.4 20.6-25.1-23.5m-281.8 50.1-.3-.4m0 0 6.5 25.8m0-.5-6.2-24.9 6.8 1m340.7-86.2-2.5 10.4m.2.5 2.8-10.8m-256.2 6.2-.4-.3"/><path d="m1128.4 392.2-23.4-21.6 38.1 1.5m-149.9 54.3 19.2 22.7m-58.1-3.3 39-19.9-39 20M913 466.3l40.8-20.4m.2 0 29.8 1.6m-13.2-.5-16.6-1.1-40.5 20.3"/><path d="m939 465.1-25.4 1 40.1-20 14 17.7M953.8 446h-.1m14.5 17.8-14.2-18m0 .1-.3.2m.3-.2-40.4 20.3m289.6-106.8.2-.4m-.2.4 10.2 29.5m.4.1-10.4-30M962.6 506.9V484l50.2 41.3m-50.6-41.6v23.6m241.5-148-.3-.3m10.5 30-10.3-29.7 68.9 11.5m110.4 15.9-45.8-1.7m18.4 17.3 27.4-15.6M914.2 489.6l48-5.7v22.8m2.3-30.3-2.3 7.5m0 22.8-48-17.1m222.3-.9-62 4m62.5-4.4-21 18m21-17.5v-.5l-25.5 22m197.4-160.9-35.8 21.1 64 14.5-42.1 14.4-42.4 19 67.4 4.4m-25.1-23 24.6 23M1124 500l13-11.2 13.6 13.8M968.9 464l44-14.9-22.3 7.4m-30.2-13.8-6.2 3.3m185.6-92.8 63.6 5.8-30.3-23m-15.1 36.4-18.2-19.2 62.8 6m-29.4-22.8v-.4m0 .4 29.5 22.5m-183.5 115.5-56.5 9.1 5.7-19.3 49.8 10.4m-50-10.8.2.4m-.2-.4-5.5 19.7m50-34 .2-.4"/><path d="m1012.7 449.5-44.5 14.3 22.4-7.3"/><path d="m968.9 464 43.8-14.5 6.2 24.8m339.8-99.5 2.5-10.4 21.5 6.2m-109.2.4-.4-.5 36-21.3m.1.4-52-15m16.1 35.9-16.3-36.3m-44.2 54.8-54.8-16.6m53.6 66.6v-.4m-40.2 22.9 40.2-22.5 31.5 27.6m-150.3-55.7 35.5-18.7-59.3-3.6m104.6-52.3-.5-.3m21 16-20.5-15.7 82.6-1.8m.8-.3-83.8 1.8 33-16.4 50.8 14.6m80.8 50.8 20.6-9.8 23.8 11.4m-263.8 176.5-53.5-19.1.4-24.3 53.1 43.4"/><path d="m1065.5 520.3 51.7 42-52.2-18.7.5-23.3m243.7-170.7 12 17m-210 144.1-46 9m46-9 7.5 27.8-105.7-37 60.8-9.1m44.9 46.1.3.2"/><path d="m1065.3 519.7 53.7 19-.6 24m-53.1-43 52.8 42.3m.4 1-.2-.1"/><path d="m1073.8 492.4-8.5 27.3 52.8 42.7m164-118.1-29.5-26m-166.5 42.6-27.7-31m28.2 31.1-28.3-31 .4.3m-45.3 71 6-26.5 53.6 17.7m-4.2-104 .2.1m23.1 22.3-23.1-22.3 58.8 3.9m167.2 6.9-21.5-28.4 41.2 9.2m6.8-13.4 15 18m18.5 17.4-17.9-17.2m-250.4 76-28-30.7 75.8 4.4m.5.1 35.2 26.7m-35.2-27.1-47.6 26.6m-74.1 41 50.4 41.1m.1 0-26-9.3m26.9 8.2v1.3l-1.3-1m1.7-22.3-52-18.6m.5.2-.6-.2 51.6 42m8.9-50.6-8.4 26.8"/><path d="m1074 492.9-.2-.5-60.1 9.2m55.9 5.3 4.4-14 27 12.8m44.5 132.7h.2m302 48.5-.1-.1m-193.1 48-.2-.4m-80.1-30.9 19.9 7.6m240.5-14.4-.1-.2m-274.3-67.3h.2m-44.9 28.1h.1m19.4 7.5 2.4.9m467.2-116h-.3m-410.4 161.5 20 7.8m-18.9-31.3 40.2 15.5m174.4-10.1.8-.3m137.7-101.6 3.2-2.1m-405.8 49.3-6.9 4.3m271.3 50.5-2.6 1.9m27.3 1.6 13-9.8m100.7-95.7-.4.3m-271.1 127.6-41.6-16m19.3 31.7 21 8.1m-.1.1-.2-.4m318.3-184.7-1.1.8M1135 664.8l-1.8-.7m61.8 23.6-6.8-2.6m415-123.5-.3 2.8m.2-2.8.6-4.6m-155.9 129.6v.2m-172.2 56 .2.3m1-24 .2.4m-116.8-90.3-14.6 9.3m-30.1 18.8-.1 3.6m237.3 74.4-11.5 8.5-.3 3.5m66.7-142.5 13.6 1.6-14.3 6-3.7-4.6m20.6 11.2-17-6.6-9.4-.6m26.4 7.2-26.6 1.6 14.1 9.2m-4.4-17v-.4"/><path d="m1406.4 612.7.4-.3-9.6 8.2m.6 0 9.2-7.8 16 6.3m-65.6 91.9.4.4m-.1 0 12.8-9.8m0 0-25-1.3m-.1 0 12.3 11m5.3-15.1 7.5 5.4-25-1.3m131.9-143.9 3.8.4-13.5 8.2-1.2-1m1.2 1-13.3 8.1m38.3-5.6-27.4-2.7M1285.6 674l-11.1-12.4m-.1 0-15 9.8m-.7-.1 26.8 2.6m-11.1-12.3-15.7 9.7m195.6-98.2h-1m14.8-7.7 24.2 2.4m-24.6-2.8 11.6 10.8m13.4-8.3-13.5 8.3m-11.6-10.3 11.6 10.3m-11.6-10.3 11 10.2m.6.1-24.9-2.7-8.2 5m35-20.9v-.4m0 .4 11 10.2m.6.1-11.5-10.7m-74.8 55.9-9.3 7.9-3-3m42.2-17.2-8-10m8 10-18.2-3M1294 630.5l.4.4m-.4-.4 11.2 12m-23.9-13 12.8 1 5.5 6.2m5.6 5.8-10.8-11.6m6.2 33.6-15 9.4-9.2-10m-2-2.3.4.4m4 .4 22.4 1.8m-.1 0-15.6 9.7m-37.6-14.9 53.3 5.2m-48.5-26.4-11.8 7.2m11.8-7.2v-.5m-12.1-1.1 12.2 1.1-15.6 9.6m52.7 5.1-39.5-3.8m2.3-10.4 10.2 11.6m243.3-90.2-13.5 8.3m-11.1-10.4-.4-.3m11.5 10.7-11.1-10.3 19.2 1.8m5.4.2-25-2.4m-210 88 7.7-5 26.3 2.7"/><path d="m1291.4 632.6 2.6-1.6 2.1 2.3m9.1 9.2-11.2-12m0 0 5.2 5.8m6 6.2 26.6 2.4m-68.3 4.5-10.3-11.7m0 0-.4-.4m-.1 0 10.7 12.1m15.5-9.6-25.7-2 10.3 11.6m22.9-14.1-7.5 4.5-26.1-2.5 15.8-9.3m226-79.4-13.4 8.2-2-1.7m-93.6 73.6-13.2 9.2-5.4-5.3m-35.2 12.3 5.4-3.4m0 0-5.3 3.4m-73.1-28-.4-.4m0 0 10.2 11.5m-17.3-7 7.1-4.5 5 6m5.2 5.5-9.8-11.1 9.8 11.1m12.7 1.5-12.7-1.5-5.1-5.6m15.4 17.4v.5m0-.5 10.4 12.1m-10-11.7-10.8-12.2m.1 0v.5m36.6 14-7.8 4.8m7.8-4.8-7.6 5m59.6 64.2-12.5 9.2-10.6-10.5m10.6 10.6 13-9.6m0 0-24-1.4m-.1 0 11 11m28.4-16.5 9 8.7-48.4-3.2-27.7-3.7m-42-56.5 25.5 2.5m-25.9-2.9 11 12.2m15.4-9.6-15.4 9.6m-11.1-11.7 11 11.7m110.8-32.6.5-.3m-25.2 8.3 12 1m24.8 1.7-36.8-2.6m-7.3 4.9 5.3 5.2m0 0 14-9.3m-82.7 14.6 1.8 1.9m17.6 5.1-8 4.7-11.3-12.2m0 0-13.8 9m55.2-15.8-14.2 9.2-9.3-9.3m-2.6-2.6 26.6 2.4"/><path d="m1356.5 657.8-13-1.1-11.7-11.8-14.7 9.5m0 0-11.9-11.9 12.7-7.9m25.6 22.1-11.3-11.4m-.4-.4.4.4m26.3 1.9-13.4-1m12.9 1.3-26.2-2.6m18.8 2 7.3.6-3 1.9m-97.6 32.2-12.9-1.3 14.4-9-10.9-12.3m0 0 .4.4m-.4-.4-10.3-11.7m33.6-2.5-23.3 14.2-5.4-5.9m-4.9-5.8-.4-.4m0 0 10.7 12m-17.5-6.9 6.8-5.1 5.3 6.2m86 13.6-27.4-2.5m26.9 2.4-11-11.7-15.2 9.3m15.3-9.8v.5m11.4 11.8-5.5-5.7m-5.9-6.6 10.9 12.2"/><path d="m1309.2 659.5 8-5 5.6 6.2m-32.9-8.7 11.3 12.2m15.4-9.5-14.5 8.9m15-9.2-.5.3m-18.9-1.7 19 1.7-26.8-2.7m53.6 4.7-40-3.3m-40.1-3.5 10.5 11.6m31.3-18.5 11.4 11.4m-18.9-7 7.5-4.4m-14.7 9 14.7-9-15.3 9 7.6-4.7m-3.5-16.8-7.7 4.8m-17.7-7.3.4.4m17.2 45.6 14.9-9.3 10.9 11.8m.5.1-11.4-12.4m.5.4h-.5m-15.5 9.4 27 2.6m-54.2-60.1-22.7-2.7m-9.2-10.2.4.4m8.8 9.8-8.8-9.8m-.4-.4 9.2 10.2m146.9 78.2.5-.3m0 0-13.8-.4m13.3.7-27-1.6-15-11.3m22.5 12 19.5 1-2.8 2.2m-9.3 7.3 12.6-9.9m-156.9-87.5 3.2 3.2m6.3 6.4-15.2-.8m297.2-43.2-11.5-10.6m12.1 10.7-12-10.7m12 10.7-25.6-2.4 11.7 10.6M1328 667l-15.5 9.5-9.4-10.3m9.4 10.4 16-10m0 .1-23.3-1.8m104.6-13.9.5-.3m0 0-14.5 9.9-26.2-2.1m26.2 2.1-12.7-11.4m0 0 .4.4m12.3 11-12.2-11m-103.4-28.5-11.7 7-24.4-2.8-8 4.7m8-4.7.4.4m-.4-.4 8.6 12m227.3-29.7v-.4m0 0-13.6 7m13.6-6.6 8.3 8.4m.5 0-8.8-8.8m8.8 8.8-22.4-1.8m-267.5 7.8v-.4m0 0-10.4 6.8m10.4-6.4 2.2 3.2m12.7 2.7-7.4 4.2-5-7m5 7-14.5-.9M1343 657l-14.4 9.6-11-11.8"/><path d="m1328.5 666.7-11.4-12.3.4.4"/><path d="m1343.5 656.7-26-1.9 11 11.9m26.7 2-11.7-12m0 0v.5m-15 9.5 12.6-8m2.4-2-14.4 10M1228.8 635l-.4-.3m0 0 8.8 12.1m21.1-29.8 9.7 11m.6 0-10.2-11.5m0 0 4.6 5.5m-18.9 3.3-15.7 9.4m15.7-9.4-7.7 4.8m7.7-4.8-7.7 4.8M1423 662l-27.2-1.4 13.1 11m1.4-20.5v-.4M1423 662l-12.7-11.3m-151.6 20.6v.5m0-.5 2.2 2.3m9.3 8.9-11.5-10.7m-45.3-58.6.1-.5m0 0 1.5 2.1m-1.5-2.1 1.6 2.2m6.1 8.3-3.4-4.5m-16.4 6.3-2.4-3.4m-29 18.7 2.6 3m19.3-2.3-12.2 10-6.7-7.7m-3-3.5-13.2 9.3m22.8 1.9-16.6-1.4m7-9.8-10.3 6.9m191.3 10.9 18 1.2-2.8 2m-11 7.9 14.3-10.2m.1 0-14.3 10.2m14.3-10.2-7.2 5.3m-18.5-6.8 11.3 11.7m0 0 7.2-4.9m-6.9-14.4-12 7.3.4.4m-30.7 19.5 15.3-9.5 11.6 12m-11.6-12v-.4m0 0L1340 679m1.9-11-13.3-1.3 6 6.4m6 6-5.8-5.8m5.8 5.8-6-6m76.2-43-13.5 9.6-8.1-7.7m-3.2-3-.4-.3m0 0 11.7 11m-3.9-10.3 18 .4m-.1 0-25.7-1.1m11.7 11 14-10m-53 81.7 12.2-9.8m12.1 11.7-12.1-11.7m-12.8 9.8 24.9 1.9M1373 638l12.6-8.8 11.1 10.5m-11.1-11v.5m-53.8 15.7v.5m9.2 33.4-12-11.7"/><path d="m1329 667-.4-.3 1.6 1.6m10.4 10.8-11.6-12m7.1.5-7.1-.5m26.2 1.6-.5.3m.5-.3-14.6 10.4m95.9-26.6 13.2-9.9m0 0-26-2m24.1 3.4-11.3 8.5-10.2-9.6"/><path d="m1396.7 650.1 13.6.6 13.5-10.2 12.7 12-26.2-1.8m39.4-8.1-26-2m-35.1 79.6 7.8-17-13.4-11.5-14.8-11.2m27 1.5.5-.4m0 0-27.5-1.1m36.1 12.5-21.2-1.3 12.6-10m-40.5-13 13 11.8m0 0-6.5-5.7m-6.5-6.1 6.2 6m-6.2-6 6.4 6m-140.4-51.5 23 2m-8.6-10.9v-.5m.1 0 3.6 5.2m-3.6-5.2 4.2 6m-3.8-5.6 8 11-8.5-10.9-13.8 9"/><path d="m1251.3 621-7.2 4.3-4.2-5.5m259.9 6.7-48.4-4.2m14.9-7.7v-.4M1443 611l23.4 3.2-15 8.1-27.7-3.2 19.3-8.1m23.3 3.6 9 10m.5 0-9.4-10.4m28.2-65.2 11 10.2m.6 0-11.6-10.6m0 0-12.9 8.2m-282.8 107.9 34.7 5 25.6 2m26.4 2.3-7.8 4.3m19 7.2-11.2-11.6-7.6 4.5m118.8-38.4-13.7 9.2-10.3-10.9m0 0-.4-.4m0 .5 3.8 3.5"/><path d="m1383.1 649.2-10.3-10.9 24.5 1.4m-16.7 30.9v-.5m-12.7-.4 12.7.4 15.1 11.5 27.9 1.6-13.5 10.1m-41.9-12.8 12.4-10.4M1492.7 568l3.3 3m-3.3-3.5-12.9 8.3m24.6 2.3-25.2-2.3m-122.7 82 13 .7-11-11.3m0 0v.4m0-.4-14.4 9.5m41.5-28-5.4-5.1m-158.7 0-.4-.4m14.1-9-13.9 8.9m14.4-9.3-.5.4m-19.6 1.4-2.2-3m.1.1 2 2.7m5.7 7.8-5.2-7.2m207 46 13.6-9.5m-.1 0-25.8-1.4-13.4-11.4 26.4.8-12.4-10.7 25.3 1.1 25.5 2.3m-255.4-.7 21.2 2.5m.5-.3-22-2.6-14.6 8.9m14.6-8.9 7.4 11.8m22.4-13.9-22.5 14"/><path d="m1206.3 632.6.1-.5 7.3 11.8m207.4-37.5-5.6-7.2m-18.2 41-13.6 9m-.6 0 14.2-9-13.6 9m-184.8-27.6.4.4m21.4 1.5-13.8 8.4m14.3-8.7-.5.3m.5-.3-15.2-.9m256.9 31.9-13.2-11.6 25.3 2.1m-25.3-2.1-12.6 10m25.1 1.5-25.7-1.6 13.4 11.2-7.5 16.6m-5.9-27.3 26.4 1.2m-39.1-13.7v.5m-5.2 3.9 5.1-3.9 2 1.8m-167.3-26.3-22.7-2.7 8.5 11.4M1234 726.4l-6-10.2m-12.3-20.5 18.3 30.7 10.3-7.4-19.1-7.4m-.7-.3.6.3"/><path d="m1214.6 718.6 10-7.3 20.2 7.6m9.7 16.1-20.7-8 11-8m-.5-.5.5.4m0 .1-9.8-15.6m1.3 2 8 13.1-19.1-7.4 10-7.6m-.1-.1-10.6 7.9m0 0 .7-.2m149.8 19.3 13.7-10.2m-8 17.1 8-17.1 13.7-10.2m-27.4 20.4 5.7 7m-5.7-7 7.6-17.1m5.5 6.8h.6m-.1.1-6-7m-.2.5 5.7 6.4-12.8 9.5m-16.2-82.4 13.3-8.8 10.2 10.7m-11.8-.7 12.4.8-12.4-1M1228 634.6l-6.8-11.4 6.8 11.4m.3.6-4.6-7.5m199.6 13.2 13.3-10m-13.3 10-2 1.5m-215-9.8 2.9 4.7m-17.3 3.7 21.8 3m344.4-80.1 11.8-7.7m-11.8 7.7-13.1-10m24.9 2.3L1545 554m-360.2 77.3 2 3m5.1 6.7-4.6-6.8m-2.4-3.4-.1.5m-14.8 8.5h.6m14.3-9-10.7 6.5m344.1-67.4-13.9 8.2m-358.7 60.3.2.2m6.4 6.5-6.3-6.5m24 1.2-24-1.2m24 1.2-10-.5m371.1-77.3.5-.3m0 0-25.4-2.5 13.3-7.9m11.6 10.7-12.8 7.9m0 0 13.3-8.2m-150.5 108.8 27.8 1m0 0-28.3-1.4m15.1 11.5 13.2-10m-25.8-21.9 12 10.8m-12-11.3v.5m-.5-.2.5-.3-13 9.3m-132.9-11.6-11.7-1.4m183.4 26 14-9.5m31.8-88.5 24 2.6m-24.4-3 11.4 11m25.8 2.4-12.3-10.7-13.5 8.3m-11.4-11 11.3 11M1545 572l-26.7-2.1 13.7 10.3m-.4-18.1v-.4"/><path d="m1518.9 570 12.7-7.9 12.8 9.9m.6 0-13.4-10.3m-31.9 45.4v-.5m0 0-10.8 9.4m.5 0 10.3-8.9 10.8 9"/><path d="m1518.1 624-7.9 16.3 2.5-22.8-13-10.9"/><path d="m1512.1 617.4-23.2-1.4 11.4 10.4m-11.5-10.4 23.9 1.5M1545 572l13.2-8.2m-.1.1-.5.2m.5-.2-26.6-2.2m-249.9 134 23.4 10.7m-23.6-11.2h25.4l17.8 4.7-18.7 6.4-24.5-11.1m0 0-1.8 12.3m-.3 0 26.6-1.2 13.5 14.4-23.5-4.6-16.6-8.6m2.1-12.3-2.1 12.3m149.9-17.5 26.1-19.4 7.5-16.4-2 23.2 14.8-32.6"/><path d="m1447.6 687.1 7.7-16.5 5.4 6.8m-25.8 18.8 7.5-15.9 5 6.6m0 0 .2-.3m-78.1-27.6v-.5m.1 0-13.8 10.3m-.6-.1 7-4.7m-6.4 4.8 13.7-9.8 10.5 11m.6.1-11-11.6m25.7 2.5-14.7 9.1L1370 659m10.1 11.5 15.7-10m0 .5-26.2-2.5 13-9m-135.2 9.8-1 .8m-12.8 9.6 14.3-10.7m0 0-.5.3m-23.5-2.3-.4-.4m0 0 10 13m14.4-10.6-68.3-8-17.2 9.8m85.4-1.3-10.7-12.1m10.4 12.3 10.7 11.6m269.9-136.5-13.5-4.3m31.7 8.3-18.2-4-19.8 4.7m36.7 14.9 12.5 9.4M1545 554l-12.8 7.7m12.8-7.7-13.4 7.7-12.1-10.4m-248.4 131.2 14.4-8 1.7 1.7m-1.6-2.2v.4"/><path d="m1286 674.4-.4-.5-14.8 8.7m55.5 6.5 13.8-9.7-27.1-2.4 12.7 12.6m-13.2-13 .4.4m27.7 2.1-15 10.5m15-10.5-15 10.5m.1 0 7.5-5m7.4-5.5-7.5 5.5m-20.6-7.6 13.2 12.6m129.2-19.1-1.1.9m1.6-.8-5.6-6.5m5.4 6.1-5.2-6.5m-68.7 6.5 14.5-9.1 12.5 10.4m-223.1-40.3-.4-.4m2.4 3.2-1.8-2.8m45 20.8-6.8 4.6-9.9-12.7-12 9.2m12-9.1.4.3m22.6 2.9-11 7.8m11.5-8.1-.4.3"/><path d="m1217.1 648.1-3-3.8 22.7 2.9-23-3.3 11.7 1.5m24.8 2.8-24.9-2.6m133.5 2-.4-.4m18.9 1.8 5.2.5-24.2-2.3 12.4 1m-23.4 42.3 7.7.3-1.9 1.8m-7.8 7.7 10.1-9.9m.1 0-10.2 9.8m10.2-9.8-5 5.2m-24.9-6 19.8 10.7-20.9-.4 1.1-10.3m128.6-116-.4-.9m.4.9 10.8 10.4m.6 0-24.4-2.5m-4.7 49.9 12.5 11.2m.6 0-13-11.7 14.7-8.6 10.8 10.9-12.5 9.4m-13.1-11.6v.4m-74.2 38.1 17.7 1-12 10-12.4-11.4m12.5 11.4-13-11.8 13 11.8m-112.1 30.7 23.1-3.7-22-8.1m23.9-3.8.3-.4m-23.4-5.5 23.4 5.5-24.1 4.2-20.3-8.2m257.6-142.6-5.3-.4m-297.9 93.1-11.8 9.7-6.6-7.7m-3-3.5.4.4m6.9.4 14.6.3m78.3 41.6v.5m-.1 0 10.7 12m.6.2-11.3-12.2m26.7 2.5-15.4 9.7-5.6-6.1m-5.6-6.6 5.1 6m-5.1-6 5.6 6.6m186.4-55.9 13.7-8.6m-.1 0-24.4-2.3m17.8 6.4-7 4.5-5.9-6m-200.6 84.1-10.3 7.6m10.3-7.6-10.9 7.6m9.7 15.6-9.7-15.6 20.7 8.2m0-.1-3.2-5.1m-6.2-10.7 9.3 15.9m-63.8-74 8.4 13.2-15.5 9-3.4-6m18.4-2.7-21.7-3.7m0 .1 6.8 12.3m-6.8-12.3 3.3 6.3m54.2 50.1 19.8 7.6m.4 0h-.4"/><path d="m1265.5 727-11 7.5 21 8.2M1436.6 631l-12.9-12m.1 0 12.9 12m-.4-30.6-15.2 6 22 4.6 16.3-7.1m-38.5 3 .2-.5m-.2.5 2.5 12m.4.1-2.4-12.2m165.2-34 .5.1m6.1-14.6L1587 573l-4-7.3 10.5-8m-7.3 14.5.4.6-10.2 7.6m-.3.6 11-8m-11 8 6.8-15.4m-30.3 32.4-11 8.1m-.2.7 11.7-8.7m0 0h-.5m-11.2 8.7 7.1-15.4m-.4-.4v.2m5 6.9-4.6-6.7-12 8.3m43.8-12.3.2.3m0 .1 6.6-14.9 10-7.3m-16.8 21.8-4.1-6.4m-.1 0 4 6.7m-156.4 31.9v-.5m-12.4 10.6 12.5-10.6-12.5 11.1m.5-.4 12-10.2 12.2 11.3m110-17.2 7.2-15.6m-7.3 15.1-4.4-6.4m-.1 0 4.6 7m-32.5-40.6 4.8-3 13.1 10"/><path d="m1532 580.2-27.6-2 15.6 10.5m-315.9 114.7-10.1 7.4-9.1-14.8 2.5 1m6.5 14 10.6-7.5m-.1 0-20.2-7.8m0 0 .6.3m-.6-.3 9.7 15.3m10.5-7.5-9.6-15.6m7.4 12 2 3-19.3-7.4 10-7.4m-.1-.1-10.6 7.7m0 0 .7-.2m236.5 10.7-5.4-6.3m-.1.1 5.5 6.8m-5.5-6.8 13.4-10 7.6-16.7L1423 662l26.3 1.6m-14.7 33.3-13.1 10 7.8-16.8 5 6.5m27.4-63.1-12 9-12.6-11.2m12.6 11.3 26 2.1m-39.6-13.4 26 1.9m-10.9-40.4-10.3-11.1m10.3 11.1-21.5-3.3m-193.3 58.3.7-.4 10.2 11.5m-10.2-11.5 5 5.2m192.5 44.3.3-.6m129.8-106.8 11.4-8.4-7 15.3-11.5 8.6m18.5-24h-.5m-10.9 8.5 7-15.5m4.2 6.7-4.3-6.7m-2.6 22 .2.4"/><path d="m1564.7 589.5 4.4 6.9-11.1 7.8M1312.5 677l1.7 1.8m-17.4 6.7 28.9 4m.8-11.5-14-1.4-15.8 9m-59.5 6.1-.2-.5m0 0-1.7 11.7m1.1-6 .8-5.2 4.6 1.8m-6.5 9.5 22-3.6-1.4 11.4m235.6-124.3 13-8.4m-.1.5-.5-.2m-62 101.8-12.3 9.2m12.8-9.1-5.8-6.5m5.6 6.1-5.4-6.6m-79.7 38-11.7-11m0 0-11.8 9.7M1545 554l-50.4-5.4-2.7-2.2m15.8-6.6.5-.3m-3.8-1.9 3.8 1.9-6-.3m5.5.6-13.1 8.8m0 0 13.6-9.1m-316.4 102 .5-.1m2.4 16.9 6.9-5.2-9.8-12.2-14-.7m341.7-88.4v-.5m-109.4 142-7.8 16.7 13.6-10"/><path d="m1421.4 706.8-13.4 10 15.6-33.6m-21.3 26.8 5.7 6.9-13.6 10.1 7.9-17m13-10-12.7 9.3m13.3-9.3-6-6.4m5.8 6-5.6-6.3-13.6 9.8M1532 580.2l13-8.1m0-.1-.5.4M1428.7 690l-8.1 6m8.6-6-4.4-4.6m4.2 4.3-5.5-6.5m-35.1 36.6 6 7.2m3.5-87.3 13.3-9.5 12 10.3m-21.4 69.5h.5m-.2-.4-5.7-6.5m1.6 2.5 3.7 4.3-7.8 5.9m-97.6-30 .5-.3m-26.6-3 11.3 12.6m-11.3-12.6 2.5 2.9M1508.2 540v-.5m-13 9.2 13-8.8 8 8.5m3.3 2.9-11.3-11.8 24.4 4.8-13.1 7m10 64.3 11.9-8.8-7.2 15.7 23.4-17.5 7-15.5-11.5 8.6 7-15.5m4.1 6.8.5.1"/><path d="m1571.6 574-7 15.5-4.5-6.9m-11.5 8.7 8.6 13.5m-20.6-5-7 15.8-5-7 12-8.9"/><path d="m1534.3 604.8 2.1-4.6 4.5 6.5m-11.1 8.3 11.6-8.2m-.2-.4-4.6-6.7m-2.5 22.3.2.5m-.2-.5-4.5-6.4m-.1 0 4.2 6.7m-34.5-15.3-3.2 2.8m3.7-3.2-19.3 1m4.8 4.8-5.2-5.2m44.6 1.4-25-2-19.6.6-20.6-3.3m-257.8 49.2-.5.3m-2.1 1.6-11 7.9-8-11.5m0 0-.4-.4m-.1.5 8.4 11.4"/><path d="m1187.8 663-7.8-11.6 6.8.7m373.9-105.8-14.4-7.5m14.4 7.5-28.1-2m52.3-.9-19.5-6.1-19.1 1.5-13.7 5.5 12.4 9.6 15.7-7.6M1324.6 700l20.3.6 10.7-9.7m-9.7 9.4 9.6-9.9m.1 0-9.6 9.9m-39.7 6.5 26.8 3.5m-6.2 4.7 6.7-5m-27.7-3.6 9 9.4m4.5 4.9 14.2-10.7m157.9-123.5-25.8-2.4m.6 0 13-7.9 11.6 10.2m-277.6 57.8.4-.3-11.6 9.3m9.2-7.5-9.7 7.4-5.7-7.1m247.5-34.6-.4-.4m0 0 8.3 11.8m-4.1-6.3-3.8-5.1 22.5 3M1187.8 663l-25-1.8m18.5 5.6-6.5 3.3-12.5-9.3m220.8 31.4v-.5m-12 9.9 12-9.4 2.2 2m10.5 8.8.7.1m-.7-.1-25.2-1.4m.3.4-.4-.4 25.9 1.5M1202 653.6l-.4-.5-13.2 10m333.8-31.8 7.3-15.7-11.4 8.5 6.5-15.5-17.2-11.1m21.6 18 .3-.3"/><path d="m1526.4 611.8 2.6 3.7-10.6 7.9m1.7-34.7-28.6-2.2 16 11 29.1 2.3-16.5-11m-325.3 87-.3-.5m0 0 .6 12.2m.1-.1-.5-11.6 6.6 1.5m17.2 3.7-24-5.7m.6 12.2 23.4-6.6-3 14.4m-40.8-15.5 19.8-4.5-19.7-5.2-20.2 2.3m13-1.4-12.3 1m7.1-10.7v-.5"/><path d="m1162.4 660.8-7.7 11.6-16.8-6.8M1522 631l.2.3m-.2-.3-3.9-7m0 0 3.6 7.3m-78.8-19.9 3.9 5.3m-10.5-16.3 6.6 11-13.2 5.5m-61.5 63.6v.4m0-.4-12 10m-1.8-10.5 13.8.5-6.3 5.2"/><path d="m1367.7 680.8-12.1 9.6 6-4.5m-6 4.5 6.3-4.8m165.1-160 .7 9m37.7 2.7-19-5.9-18.4 3.4-.6-9.5 19 6.1m-22.7-7.3 3.7 1.2-7.3 1.3m-214.2 180.3 12.9 13.7m-12.9-13.7v-.6m-10 9.7 10-9.7m90.8-85.3-7.1 5m-3.9-6.1 11.5.7m-11.1-1 11 1-11.5 8.1-11.5-1m64.7 27.2 11.1 8.8m-26.9-1.3 27 1.3m-240.1 3.1 8.1 14m.5.2-8.5-14.7m0 0-.1.5m321.6-86.3.5-.3m-.5.3-11.5 8.2m18.4 1.7-18.4-1.7 12-8.5 28.2 2.4-11.7 8.8m-207.4 88.1 26.6 1.3-1.4 1.1"/><path d="m1367.7 680.8.5-.3-12.7 9.9m124.3-93.5-28.7-4.2m14.6-8.7-14.5 8.8-14.9 7.6 23.1 3.5 20.4-7-14.1-12.8m-14 8.7 13.9-8.3m-68.4 36.5 13.4 8.7m-18.5-14.2 5 5.1-2.5 2.3m-54 67.3-15-.6-18.7 5.7-10-9.8-13.4-1.2m41.3 5.6-28-3.9m-62.8-16-.4-.3m0 0 10.8 10.6m0 0L1234 670h2m200.1-38.7-12.4 9.2m67.8-53.5v-.5m-.4.3.4-.3-11.7 10.4m8.7-7.3 3-2.7 15.3 10.5"/><path d="m1479.8 596.9 27.6.5-7.8 9.2-19.8-9.7m-28.3-3.8-.4-.3m0 .4 8.4 10.7m-6.3-8.5-1.7-2.2 3.9.5m-199.3 117.1 1.2-11.4M1519.6 589l.5-.3m-12.7 8.8 12.7-8.3m-83.4 11.6h-.5m6.9 10.2-6.4-10.2 22.1 3.3m-244.6 114.6-9.1-14.9 19 7.4-9.9 7.5m0 .6-.4-.6m1.1.1-.7.5-.3-.6m-8.8-14.9-.7-.3m0 0 9.8 15.2"/><path d="m1215.2 695.8-10.8 7.7 9.6 15m10.5-7.2-20-7.8"/><path d="m1221.9 707 2.3 3.7-19.1-7.3 2-1.5m-2.7 1.6.7-.1m286-116.6-8.8 7.9m-157 95.3-1 9.9m1.4-10.3-.3.5m-115-23.4 8.1 14.2m0 .1 15-11.3m0 .5-3.1-.6m-20-2.9-.4-.4m114.5 34.1 9.1 10.1-13.5 10.2M1164.2 688l-19.8-7.7m-.1 0 3.8 5.5m5.8 9.4-.2.4m.1 0 10.4-7.7m-19.9-7.6 9.5 15.3m-8.8-15.5 9.8-7.4 9 14.7-18.8-7.3m9.8-7.4-.1-.3m-.1 0-10.3 7.9m0 0 .7-.2m19.2 7.9-9.5-15.6m150.7 34.3 1.5-11.4m.2.4h-.5m200.9-97.7-.5-.2m-2.9 4.1 3.4-4 16.4 10.6m34.2-44.2 12.9 9.7m.6 0-13.5-10.2 24.8 1.8-13-9.4m-11.8 7.7-6 4.2m23.8 12.6-4.3-6.7-26.6-2 14.9 10.4m-164.2 99.7 13.7 10.9m.3 0-4.7-3.6m-181.9-32.5-13 9.3m0 0 13.4-9.6m-.1.5-.4-.2m200.6 26.3-14.7-11.7m27.9 1.8-28-1.3m14.1 11-27.1-1.4 9.6 8m74.2-92.2.3-.5m.1 10.3-.2-10.3.2.5m89.9-40.8v-.4m-160.4 115.4 13.4-9.2 14 11"/><path d="m1436.2 673.3-27.3-1.8 14.5 11.5 12.8-9.5m-246.7-62.2-.3-.2m-.2-.2 10 10.7m-1.1-1.2-8.3-9.1m23.9 1.4h-.6m-14 8.9-10.1-.7m319.8-81-.2-5.1M1226 604v-.1m-22.7-1.6 10.3 10.3m14.6-10.1-1.8 1.2m-12.9 8.9-9.8-10.2m258.5 31.2v-.4m-11.9 9.4 11.9-9 4.4 3.8"/><path d="m1473.6 667.7 2.1-23-13.5-11.5 25.3 2.3m-163 64.9 8.6 9.5m142.7-84.9v-.4m-13 8.6 13-8.2 11.7 10.5m.7.2-12.3-11.1 24.6 2-12.3 9m-26-2.4 26 2.5m-47.2-53.9 20.8 2.2m-301.4 45.2.3.2m24.2 1.4-24.1-1.4m20.7-2.1 3.3 3.5-10.3-.7m314.3-13.6v-.5m0 0-13 8.5m24.7 2.1-11.6-10.6-22-1.5-7.4-10.6m68-20 4.6-3.2 6.3 4.1m-6.4-4.2 15.7 10.5m.4-.1-5.1-3.2m-83.7 16.5h.5m-.5 0 6.6 9.8m94.3-31.5-15.2-10.1m14.5 10-27.4-2.3 11.6 7.9m-386 64.7-1.7-3.3-7 3.2m13.4 8.1-10.4-2.5m.5-12.8 3.7 3.8m388.2-95.4-11.8-9.2-4.5-10m-67.6 142.1.3.6-.5-.1m-9.2-84.1 7.9 10.6m58.7 20.3-1.7 3.5m2.1-3.6h-.5m.3-.4-5.2-6.1m-4.7-20 12-8.3 15.9 10.5m-253.8 95.5 14.6-9.2 9.6 9.3m-.1 11 1-10.6 16.8 4.4m-87-8.9-21.3 4.5m0-.4 2.8-14.4m45.5 5.3-6 3.5-21 1.5-18.5-10.3 26-.6 13.6 9.4m288.2-158v.3m0 6.8.2-7.4m0 0-6.9 1.5m25.5 4.7.3-.3m-4.7 9 4.7-9m-245.5 208.4 8.8 1m-.5 10.3.6-10.3m0 0-.3 4.5m-8.9-.6-8.8-6 18 2-.2 5.1m-.5 4.7v.5m.1.1.5-5.3m-16.9-6.9-1-.3M1353 757l.6.6m0 0-.6-1m-5.7-11 5.7 11.5m-5.7-11.5 5.5 10.7m-.6-.7.8 1.5h-.8m-6.9-.1 8.3.6m239.9-199.9-.1.3m-1.7 4.2 1.7-4 3.3 7.3m-4.3 3.1 4.7-3m.1 0-3.7-7.4m9.6 3.5-6 3.9-3.4-7.6m-2.8 21.5.2.3m0 0 9.1-21m-13.3 13.7 4.2 7.3-10.3 7.4m-105.2 57.6 12.5-9.1m-13 9.6.5-.5"/><path d="m1475 645 .6-.2-12.7 9.4m23 4.4 14.6-32-2.5 23-12.1 9m11.8-9.3.3.3m-153.3 71.9v-.6m0 .1-9.3 8.9m6.4-5.7 2.9-2.7 2.5 3m8.2 8.8-10.7-12.4m2.1 25.5-1.5 10.5-5.8 11.2 14.1-10.5 1.8-24.3-20-3.4m177.3-112.4-12.2 9.1m0 0 9.5 13.2m2.4-21.9-2.1 22.4"/><path d="m1499.9 627 .5-.4 9.8 13.7-9.8-13.1m11.7-9.5.6-.2m-14.7 32.1 36.2-27.1m-198.4 107.8.7.1m-1.1-.5 5.9 13.5m13.5-9.9-13.8 10.2m.7 10.4-1.5 2.7.8-13.1 14.4-10.4-2.5 3.6m-17.5-7 5.5 13.8m14.5-10.4-.8.8m-13.2 9.9 13.2-9.9m-7.5 11.1-.6-.2m-5.1-1 6 1.6"/><path d="m1347.1 745.2 7.5-11-7.3 11.4m-5.4 8.3 9.7-15m1.1 18.7h1l-.3-.9M1128.1 673l16.2 7.3m0 0-10 7.2m-.1.7 3.7-3m-3.7 3 .8-.6m-7.4-15 6.6 15.6m10.1-7.9-.4-.6m-9-14.7 1 1.7m-1-1.7-5.7 6m6.8-4.2 8 12.9-6.5-3m6.8 3.6-5.9-2.9m-10.8-4.8 16.4 7M1581.6 551v-.4m0 0-11.7 5.6 23.6 1.5-11.9-7.1-20.9-4.3 23.6-2.9"/><path d="m1576.8 553.3 4.7-2.3 3 1.8m-445.8 89.9-15.4 9.7m7.3-4.4v-.2m.1-.2-6 3.9m-9.2 5.9h.5m222.8 110 .7.7-21.6-8.3.8-.3m-.8.3.9-.2m9.4-2.6-9.4 2.6m9.4-2.6-4.5 1m163.9-121.9-14 30.7m0 .9 14.6-32-2.3 23-12.3 9m14.6-32-12.5 9.3M1122 676l12.2 12.2m-18.8-7.9-.7.1m-.1 0 14.5 5.4m5.1 2.4-10.2-4.3m-2-7.9-7 4.2m-.1-9.3-.2 9.5 9.4 3.6m361.8-25.4-.3-.2m-12.4 9.2.3.1m-.3-.1-12 9m-13.6 10.5 26-19.4m-270.4-65.2 3.5 3.6m-46 23 14-8.8m.7.7-.7-.7-14 9m24.2 1.5-10.4-.7m-14.3-.6.4-.3m315.7-4.2 23.5 1.7-11.8 8.7-11.6-10.4m-139.5 109.4 3.8 9-20.6-7.8 10-3.5m-10 3.5-.6-.1m.1 0 21.4 8.2m-5.8-13.3.2-.5m-16-9.2 16 9.2-15.9 5.6m9.5 10.8-.2.4m0 0 12.1-3m-14.5-5.3-6.9-3m.1.1 9.3 11.2m-139.8-135.3v-.4m0 .4.8.8m339.5 3.8 4.4 6.3-11.3 8.5M1536 600l.6-.3m-7.3 15.5-4.6-6.5 11.4-8.3m-11.3 8.3-.1-.1"/><path d="m1541.1 606.3-4.5-6.6-7.3 15.5m-387.6 40.5.1.4m4.8 1.1-4.8-1.1 4.8 1.2m15.8 3.5L1150 658m-14.8 6.5 5.3-.7m4 16-8.1-13.2m7.9 13.7.2-.5m-9.3-15.3.1.2m19 7.7h.3m0 0-17-6.5m-2.7-.9 2.3.8m17.5 6.3-13.8-5.3m-6-1.8 2.3.8m24.7-4.6.4-.4m-17.8 19.7 9 14.7m-.1 0 .3.4m-9.4-15.3.1.2m-9.6 7.4 19 7.7m-18.8-8-.8.6 10.1-8-8-13.6m468.2-117-23 1 3.4-7.2 19.6 6.2"/><path d="m1581.9 550.6 3-7 19 6m.8.2-.6-.2m-390.4 169-19.3-7.5 10.2-7.4 9.1 15-19.9-7.7"/><path d="m1194 711.3 39.8 15.7-4.8-8.6m-35.1-7.4.6.1m9.9-7.6.1.2m9.7 15.6-.4-.6m-18.3-30.5 18.2 30.4m-39.4-15.3 20 8m.8-23.8.1.2m20.3 7.6-40.8-15.5 3.5 5.5m6.9-1.2 91.8 35.3m-61.7-23.6v-.2m3-14.2-3 13.8m-19.6-7.5 22.9-6.8m197.2 18.7-5.4-6.4m-6.2-.4 5.6.2 5.3-3.9m3.8-2.3 4.2-3-7.3 15.8m-7.1-17 14.3.7-7.9 5.8m-46.1 34.3L1362 740l13-9.6-8 17.1 27.4-20.5m-.4-.2.4.2"/><path d="m1388.5 720.6 5.5 6.2-12.9 9.7m14.6-33.2-13.3 9.8m.2.2 13.8-10.2m0 0h-5m5.2.1-.7.5m-7.5 16.1-5.7-6.4 7.5-5.5m138.1-173.2-.7-9 18.5 5.8-6.5 1.2m-12.2-7.4 19.4 6.4M1421 706.6l.4.2m-1.7-1.8 1.4 1.6-12.7 9.4m129.9-125.6 9.8.7 4.9-3.5m6.5-4.4-.2.7m.2-1.2-6.7 5m-407.1 50.7-7 4.3m8-2.8-1-1.5m250.9 64.8 13.2-9.9m-.2-.2-2.9 2.1m-4.6 14.4-3.4-4m8.9 11 .4.3m21-27.2-5.4-6.5 12.7-9.3m-7.3 15.8 7.8-16.4m0 0-13.2 10m-12.3-11.3 25.5 1.3m-118.9 86.5 4.5-1.4m5.4-1.7.4.2m-9.2 2.1-1 .2-.4-.8m-6.8-13.9 7 15.3m62.4-22.7.5.2m1.2-23.8-2.8 2m-20.9-3.7 10.8 11.6m-.1 0 13.7-10.1m-.5.6.5-.6h-4.6m-79.9 13.8 21.4-6.4 25.3.2 23.5 2.4-10.5-12 11.2 12m11.8-8.4 1.3-1-7.3 16m-.1-.1.3.6m-6.1-7 6 7-.5-.1m-59.7 10.7 5-5 4 4.5m4.7 5.8.4.4m-17.3-2.5-.7.3m8.8-9-8.7 9m144.3-74.3-5.1-6.4 12.3-9m0-.1.5-.5m-.7.2.7-.2-13 9.5m0 0h.1m12.2-9.3-12.5 9.1m-2.3 23.4-13 9.7m.3-.2 13-9.7m-1.7-1.5 1.4 1.7-12.4 9.3 1.4-3.2m5.8-13.1-5.3-6.5 12.5-9.1m-7.2 15.6 7.7-16.2m-26.5-1.4 26.5 1.4-13 9.7m108.7-59.9-11 8.2m11.4-8-4.7-6.5m-4.6-7.2 11.4-8.7m0-.1-1.6 1.1m25.1-18.3-11.4 8.6m10.8-8.4 12-8.6m-12 8.6-5 3.8m-199 169.5-13.4 10 8.5-17.5 4.9 7.5m-5.2-7.1 5.1 7.1m-11.5-14.2 13.5-10"/><path d="m1347.9 724.5-2.7-3.1 20.4 2m3.3 0-24.7-2m11.4 12 6.5 6.6m6.2-16.7h.6m-17.3 15.6 3.8-5.6 6.2 6.7m243.1-190.2h-.5m-.1.1-7.7 5.7m-2.8 2.2 11-8.1m-1.4 11.8 1.5-11.7-12.8 9.5m12.4-9.1.4-.4"/><path d="m1599.9 559.7 4.8-9.9-7.7 15.4-1.6-3.6"/><path d="m1597.7 555 6.6-4.8-7.1 15.4"/><path d="m1602.2 571.6-5-6-3.4-7.6M1279 708l-1.6 7.6m18.5.4-19 2.9 2.4-11.4"/><path d="m1295.3 716.2-16-8.7-8.2 1.6m-15.2 1.7 21 8m-11.2 7.8-9.3-15m9.1 15.4.2-.4m11.2-7.7-.2.2m-1.3 23.6-10-15.6 11.4-7.7m-42.3 7.3 20 7.8m20.9 8.6-21.1-8.4m.7 0-20.5-8 .4-.3m41 16.5-1-.4m-9.4-15.5-10.1 7.9m346.3-163.4.2-.4m-4.9-5.1 4.7 5.5-10.4 7.8"/><path d="m1569.1 596.4 33-24.8 1-10.2m-32.7-4.8 23 1.4m-6.5 14.5-3.8-6.7 8.8-6.5m-8.8 6.5-.1-.2m3.9 6.9 4.6-10.2"/><path d="m1579.6 587 .5.7-10.6 8m13-29.5.4-.6-.5.2m0 0-11 8.1m-58.6 43.7 11.8-9m-.4.6.4-.6-24.5-1.6m21.8 7.5-4 9.1-2.1-2.5m58.1-81.1-8.4-2.7 7.3 2.4m-12.1 6.6 24.2-3M1255.8 711l-40.4-15.6m40.3 15.9v-.2m1.3-11.3-1.4 10.9m-19.6-7.5 21-3.4 1-10.1m-13.2 29.6-11 7.7.7-.3m76.3 17.8-14.3 7m-10.4-15.6.6-.4 9.8 16 .7-.3m20.4 7.9.3.7m-6.1-13 5.7 12.3-20.3-8m22-25.9.2 10-20.8-7.9m0 0-.5-.2m0 0 21.5 8.4m-.5-14.3.3-.5m.2 14.8-.1-14.8.2.6"/><path d="m1319.9 735.3-.7.3-20.5-7.8 3.6 4.7m-3.6-4.7-.7-.7m.1 0 12.8 17.4m273.5-200.9-3 7M1141.2 656l-.7 1m-5.3 7.5 2.7-3.8m3.3-4.7.4-.3m.1 0-1 1.3m-4.7 9.6-1-1.6-1.8-.7m-12.1-5.1-4.6-1.9m18.5 7.4h-.1m-18.7-6.9 5.7 2.2m-6.4-2.6.6.3m11.7 14.3-.1.1m-12-14.3v-.2m11.9 15 .1-.4"/><path d="m1327.7 732.6-7.8 2.7-.2-10.2m-125.6-13.9-20.4-7.6m19.7 7.1-19-7.4 10-7.4 9 14.8m-19.7-7.1 10.5-8m9.7 15.4-.4-.3m-9.3-15 .1.2m-30.5-.3 20 8 .7-.6m3.1-18.2 6.6 10.9-5.8 4.2m15.8-24.1.5 11.6m-7-23.9 6.8 11.8-12.7 3.3m2.6 16.6-9.6-15.4m20.3 7.9h-.3m-10.6 8 .2-.5m417.9-126.9-.3 2.8-4.7-5.6"/><path d="m1154.4 695.5 9.9-7.3 9.4 15.4"/><path d="m1184.2 695.7-10.5 7.9-9.5-15.7m9.1 15-19.5-7.3m2.3-21.6-.8-1.3.6.3m8.4 14.5 10.4-7.7"/><path d="m1174.7 679.8-20-7.4.6.4m8.9 15.2 10.6-8.2m-3.7-1.4-15.6-6 19.1-1.8m0-.1.3-.4m-.4 9.6.3-9.6.3.5m165.1 86.2-12 .1m0 .1.4-.5m-.4.5.6-10.3m0 0-.1 4.7m11.5 5.4-11.3-10.1h.6M1214.7 719l.5-.3m9.3-7.4.1.2m.1-.7 8.5 15m3.5-34.2-1.7 11.2m9.4-22.5-7.7 11.3m-1.4 11.7-.3-.2m.1 0h-.1m369.4-152.7-1.3 11m-469.4 125.7-.3-.3M1122 676l11.7 11m-11.7-11 5.6-3.4m-5.6 3.4.3-.1m-.3.1 3-1.8m2.1-1.7-2.2 1.8m421.9-142.1v-.5l18 5.6m-445.9 135.2-3-3 4 1m7.7 2.1h-.5m.5 0-5.6 3.5m0-.1 2.4-1.5m215.8 82.3 5.1.1-5.7 10.3m108.1-80.5.2-.2m-.2.1.2-.1m1.6-3.3-1.5 3.2 1.6-1.1m-163.1 50 10 16.1-21.2-8.3m.5-.7 3.3 1.7m-3.9-1.3.4.2m20.1-26.5 2.1 10.5-20.9-8.1"/><path d="m1276.8 719.4 20.8 8 .5-.3-2.2-11m.3.4-15.3 2.2"/><path d="m1277.1 719.2 21 8-11.5 8m.1-.4-9.4-15.2m9.4 15.2-.2.4m0 .1-9.2-15.7m-1.2 23 10.5-7.4-9.3-15.6m2.2.8-2.5-.7M1162.8 632l-2.4-2.8-14.7 9.2 2.9 3.1m-2.9-3.1h.3m24.4 1.2-10.4-.4m-14.1-.7"/><path d="m1149.1 636.4 11.1-7 .4.5m357.3-5.4 3.7 6.9m-406.1 26v3.4m0-3.4-.1 7.2m12.2 8-.2-.3m208 79.7-5.9-5.3 11.4-2.6-.2 3.4m.2-3.4.5-.4m3.2-2.2-3.2 2.4-.5 6m-.5 6.1.5-6.1m-.5 6.1 6.4-10.3m.5-.1-6-1.5m-1.1 12.7-.7 11.3.1-.9m-5-10.2 5.4-.1-.8 10.4-10.3-10.2m-.7-.1 11.8-.1m-5.5-.2-6.3.2h6.4m-219.5-77v-.3m-.3.7v-.1m.2-.6.3-10.1 3.4 3.3m3 3-5 3.1m77.3-3.7-6.3-11.8-12.3 6.9m12.4-7.3-.1.4m.1-.4 6.2 12.2m176.4 50.5 4 4.6-7.5 5.6m-96.7-53.4-6.2 3.7m213.9-63-2 1.3-3.2-3.4m-297.6 49.6 18.6 4.8m-18.9 4.8 9.4 15.4m-20-7.7 20 7.7-19.3-8 .9-.6"/><path d="m1173.8 703-9.7-15 11.8 4.2m61.9-.7 20.5-1.4m269.6-154.9 17.8 3.9M1333 684.7l-7.3 4.9.2.6m-127-25.5-23.8-2.8m4.4-10.4 7.8 11.4m-31.2-13.9.4.5m184.1 30.1-14.3 10m140.2-75.5-6.7-9.8 19.7 3.1m-214 119.6.7.4m-.1 0 20 7.8m-20-8.2h-.7l21.1 8.2m0 .1-20.4-7.9m20.1 7.3-20-7.7 10.6-7.5 9.4 15.2m.3.6-.4-.6m.4.6-9.7-15.8m28.3 22.9 5.7 2.1m-23.6-9.4 23.6 9.4-24.3-9.3"/><path d="m1287.2 735.1-.7.1.7.4m273.4-188.9.8.9m8.5 8.6-9.2-9.9m.4.4-.4-.4-15 7.7m-195.4 187 4.7-7-1.7 22.7-6-11.2m6 11.2-6-11.1-1.3 5.7m76.7-138.4-1.3-6 21.1 4.3M1294 730.4l4-2.8 3.7 4.9m-57.2-51.7-.5-.1m-6.5 10.4 7-10.3 13 9m.5 4.8.3-4.5 4.6 1m265-155.9 1 2M1244 680.7l-4.7 7m104.9 33.6-8.9 8.5m-189.8-91.4h-.2m-106.4 12.4-.2-.3m-35.9-13.8-.2-.3m17.8 7.1-.2-.2M937.5 589l11.7 4.4m196.3 45 14.6-9.3m-64.2 43.6.1.3m-57.1-22.2 37.4 14.5m-55.9-21.8 18.7 7.1m76.4 6.7h-.2m-112.5-20.6 17.8 6.7m-106.4-41.2 17 6.6m-17-6.8h.2m34.6-8.6 16.8 6.4m43.6-30.5-21.7-2.7m.1 0 6 10m45.6 6.5 16.5-8.4-46.4-5.4-15.7 7.4m-6-10.1 6 10m15.6-7.3-6.6-10.2m14.3 6.5-7.6 3.7-3.3-4.9m-3.3-5.3 6.1 10.2m-13.7-6.3 7.6-3.9 3.2 5.3m-38-.3 12.8-6.6 3.8 5.3m3.1 3.8L981 557m14.3 6-7.5 3.6-3.4-4.6m-3.4-5 2.8 4.3m-7-9.6 7.6 10.3"/><path d="m972.5 574.3 15.3-7.7-21.9-1.8m21.7 2.2-6.2-9.6m0 0-.4-.3m0-.1 6.8 9.5m15.1-7.4-21.8-2m28.2 12.7.1-.5m-.1.5 6 9.7m.4.1-6.3-10.3m13.2 20.7-25.7-3 18.8-7.4-22-3m38-4.6-7.1-10-14.5 7.4m14.6-7.9-.1.4m7.5 10.2-3.3-4.4m3.3 4.4-3.7-5m-3.7-5.6 7 10.6m-7-10.6 3.7 5.5m-46.7-9.9 14-7.4 3.6 5m-3.6-5.1v-.4m.1 0 6.6 9.9m.5 0-3.4-4.4m10.3 15-6.6-10.2m6.3 9.8-6.6-10.2m0 0 3.9 6m33.6-11.1-15.8 7.5-21.8-2.4 7.6-3.8m7.7-4-7.7 4m-14.3-5.7-.3-.4"/><path d="m973.3 547.4 44.9 4 3.2 5.2m-27.7 20-21.2-2.3-16.2 8.2h23.6l13.8-5.9m119.4 14.7-8.2-11.2m-.1 0-.1.5m8.4 10.7-24.8-2.8 16.6-8.4m-16.2 8.8-.4-.4m0 0 8.2 11.2m0 0-7.9-10.8 23.9 2.6"/><path d="m1100.4 605.6-4-5.9 16.6-8.4 11.5 17.2m-43.9-30.7-.4-.4m.1 0 8 11.5m.1-.4-7.7-10.7 23.6 2.6m-7.6-11.2 8.1 11-24.5-2.8m-.1.5 7.7 10.5m-7.6-11-.1.4"/><path d="m1071.9 581.6 8.4-4.2-16 8.4"/><path d="m1076.5 579.7 3.6-1.8-16.4 7.8m-60.2-26.5 14.6-7.9m0 0 6.1 10.1m.5.1-2.8-4m2.8 4-3.3-4.9m34.5 18.1.4.4m-.4-.4 24.4 2.7 16.4-8.2m-130.9-3.9 6.3 9m-19.8-1.7 13.6-7.8m-14.2 7.8 14.2-7.8 6.6 9.5-20.8-1.7m96.4-8.7-23.4-2.4-7.6 4.1m7.6-4.1 7.5 10.6m-13.7-20.4 13.7 20.4m64.4-2.5-15.7 7.9m15.8-8.3 7.7 10.9m-64.4 3.1 15.9-8.5m7.8 11-12.1-1.2m-11.2-30.5.1-.4m0-.1-7.8 4.2"/><path d="m1030.7 558.9 9.7-5 7.2 10m.4.5 7.9 10.3-7.4-10.4m7.4 10.4-4-5.2m4.1 5.2-7.8-10.8m-.1 0 7.8 10.8m-7.8-10.8 3.9 5.6"/><path d="m1055.9 560.1 7.7-4.1 8.7 10.5-16.4 8.2 3.9 5.7m12.3-13.4 2 2.8m6.2 7.6-8-10.9m-.1 0-4.6 2.7m5-2.3-.4-.4m8.1 10.9-7.7-10.5 23.5 2.6m25.1 2.4-49-5.4m-39.7 6 22.9 2.5m-23.4-2.4 7.4 10.5m-7.3-11 7.2 11-23.6-3.5 24.4-11.4m7.9-3.8 7.4 10.3m-7.4-10.3.1-.5m0 0 7.3 10.8m-36.9-23 12 1.2m10 .6-22.4-2.2 15.5-7.6m-15.5 7.6 6.6 10.2m-13.4-20.5 13.4 20.5m-58.7 3.4.3.3m73.1 17.9.4.4m23.9 2.2-8.5 4.3m-15.8-6.9 7.4 11M993.3 622l-8.5 7.3m18 7.6-18-7 8.8-7.9m-8.8 7.3-9.1-14.2m-3.7-1.9-13.6-5.2 8.5-7.4 17.8 29.3-18-7m26.9-.9-18-7"/><path d="m993.3 621.5-17-6.6 8.6-7.4 17.4 28.8-17-6.7m8.3-7.6-8.8-14.8m-8.5 7.8h-.6m9.1-7.8-9.1 7.9m63.2-32.1-6.9-10.4-15.6 7m24.5-25.6-.4-.5m0 0 7.6 10.4m12.1 1.4-12-1.4-7.3-10 7.3 10m15.4-7.9-23-2.4 15.5-7.6m49.1 34.5-.4-.4m32.5 13.7-24.2-2.5 16-8.4-24.3-2.8 16.4-8.2m-8.2 19.8 7.5 10.6m-23.4-2.5 16-8.5.3.3m7.6 10.8-24.5-2.7m8.3-34.4-8 3.9-9-10.7m.1 0-15 8"/><path d="m1087.9 558.5-15.7 8-12-1.2"/><path d="m1049.8 563.4 13.7-7 8.3 10m-8.3-10v-.4m33.6 13.6-.4-.4m2.4 3.1-2-2.7 10.7 1.1M985.2 607l3.5-10.2m17.2 7.1-17.4-7.6m0 0-3.7 10.9-18-7 21.7-3.9m18 7.5-18-7.5"/><path d="m1006.5 603.8-21.8 3.4 18.2 6.7m61.1-57.6 23.4 2.4m.5-.2-24.3-2.5 15.1-7m-22.7-3 16.2 20.5m48.9 5.8 7.5 10.6m.5.1-7.9-11.1m0 0-12.5 6.7m-75.2-34.4 6.6 9.3m.4 0-7-9.8m.1 0-14.8 7.7m-7.6-9.9.1-.4m0-.1-23 12.2m22.9-11.7 3.4 5.1m61.4 40.7 12.3 1.2-16.7 8.4-24.8-2.8m41.4-5.1 7.8 10.7m-3.8 9.8-12.3-1.6 16.6-8.2-25-2.8-19.9 8.9-25.3 4.3m45.2-13.1-7.5-11m.1.1-.4-.4m0 0 3.8 5.4m-3.9-4.9-16.8 8m16.8-8 .1-.5m8.2-4.1-16.6 8.5"/><path d="m1047.4 594.2 16.2-8 7.5 10.7m16.8-38.4-5.8-8.4m55.2 43.7-16.3 8.6m.1-.1-7.6-10.7 10.4 1.1M1011.3 541l21.7 3m.6-.3-45.5-4.4m192.4 60.6-6.4-9.5m-7.3 3.3 7.3-3.3-13.8 6.7"/><path d="m1183.5 591.1 9.4.3-12 8.5-21.2-3m-38.4 5.8-.4-.4m.1.1 3.3 5.3m3.9 6.5-6.9-11.5m14.9 23.8-11.6-18m-.2-.8-3-5 22.3 2.9"/><path d="m1144.1 605.3-23.2-3-8.3 4.4m31.4-.9.1-.5m0 0-15.3 9m23.3 3.1-8-12.1m-47.3-5.2-.5.1m-107.7-60.6 22.2 1.8m-22.7-2.1 7.7 9.9m-7.7-9.9 7.7 10m139.7 78.1.6-.4 9 11.3m-9-11.3v-.5m.1 0 9.2 11.8m-25.7-1.7 16.8 1.3m8.8.4h-.5m-.3-32.6-.4-.4m22.6 2.7-22.6-2.7 15.5-8.3m7.1 11-14.6 9.4m-97-27.4-8.4 4.1-24.1-4m16.6-6.6.1-.4"/><path d="m1051.5 584.5-12.2-1.4-16.7 7-16 5m32.6-11.6 3.6 5.4m13.2-42.4.1-.5m-.1.5 7.2 9.4m65.8 27.5.1-.5m-.1.5 4.4 5.7m3.9 4.7-8.2-10.9.3.4m-90.5 67.1-8.7-14.2m0 0-.6-.3m0 .1 9.3 14.4m-17.9-7.2 8.6-7.3 9 14.5m9.6-7.3-18.6-7.2m18.3 6.7-17.7-6.8 9-7.4 12.5 20.2m-12.6-20.6-9.5 8m0 0 .6-.2m18 7.3-9.1-15.2m89.1-13.7 8 12.3m38.7-6.5-34.8-4m1.6-40.3-12 7.3"/><path d="m1141.9 584-12.8-1 12.6-7.7m0 0v.4"/><path d="m1154.7 584.8-13-9 .5.3M952 573l-.3-.4m4.6 9.9-18.3-3.9 13.7-6 4.6 10m.1-.1-4.4-9.6 20 1.7m79.6 31.2 11.9 8.8m.5-.1-12.4-8.7m9.6 18.1-17.4-6.9 20.2-2.5"/><path d="m1051.2 606.2.4-.4-7.8 11.2m7.4-10.8-7.5 10.8m-23.2 4 23.3-4-17.6-6.9-19.7-6.3 20.1-4-20-4.7-18.1 1.2-17-5.7m116.4-32.1.4.3m0 0 16.7 1.8m49.7 24.2-8.8 4.5M1034 544.1l-.4-.4m22.4 2.3-22.4-2.3 13.5-6m58 73.3 15.8-8.2 6.9 11.4m.4 0-7.2-11.8 3.1 5.4m4.1 6.4-23.8-3.2m55.6 18-48.5-5.7m.1 0 .4.4m7.7 12.9-7.8-13m7.8 13-4.1-6.5m-4-6.8 3 5m-10.7-.7 7.6-4.3 4.1 6.8m-99.5-50.1-.4-.4m-.1.4 7 10m.1 0-6.6-10 22.6 3.4m-66.2-8.7 3.5 4m3.9 3.8-7.4-8.2m.5.3-.5-.3-15.5 8.2m163.7-10.7-8-10.3-15.4 7.8m23.9 2.6-8.4-10.8m15.3 53.6 7.6 11.8m-7.5-12.3-.1.5m.1-.5-16.7 9-26.6-3m-136-26.6 8.9 14.5m-17.2-7-.6.2m0 0 17.8 6.8m-2.8-1.4-14.4-5.6 8.4-7.3m-.1-.2-8.9 7.7m.6.3 1.3.5m7.1 13.3 8.8-7.3m-17.8-6.8.8.5M949 616l8.8-7.9 9 14.8-17.8-7"/><path d="m936.1 599.7-10.5-3.4 5.7-9.3 17.7 29-34.8-13.6m92.7-6.9-.2-.4m0-.1-.1 8.8m.2-3.1v-5.2l5.9 1.4m33.9-2.3 5.2 11.1m6.1 29.4 6-20.6 16-6.6-28.3-2.1-25-6 20.1-5.6 4.9 11.6m-75.1-27.1-3.5-4 13.8 1.5m9.7 11.2-8 8.9m-.3.4 8.8-9.7m0 0-24.7 3.8m-23.4 2.8-17.7-7 25-4 15.3 8 8.4-8.1 17 4.5-25.3 3.6m165.6 3.7.1-.5m6.8 11.5-6.8-11.5m-33 17.6-18.7 9m25.6 2.8-6.7-12.2m-4.1-5.4 4 5.4-19.5 9.2m26.7 3.1-7.1-12.3m-48.5-65 20 2"/><path d="m1112.7 606.7-8.2 4.3-12.3-1.5m4.2-9.3 7.6 10.7m-92.5 18.1-17.3-6.7m0 0-.6-.3m0 0 9.2 14.3m-9.2-14.3 8.8 14.3m9.1-7.3-17.9-7 9.3-8.1"/><path d="m1009.5 625.6 1.7 2.8-17-6.5 4-3.5m13 10 .3.5m-17.7-7.3.4.3m8.7-8 8.6 15m49.7-5-22 4m3.5-.6-3.2.5 4.4-10.3m3.6 1.4-3.8-1.9m-.3.5.3-.5-4.6 11m32.3-30.6.1-.5m-.1.5 8 10.4m.4.1-8.3-11 .4.4m131.5 4.8-22.5-2.2-14.2 8.2 22.5 3m-29.2-13.7-.4-.4m.1 0 7 11"/><path d="m1166.8 608-6.8-10.6 20.5 2.8m-153.6 0-.2-.4m-.1 0-.4 10.3m.5-6.6.1-3.3 23.9 5.7m13.3 8.6-19.5 2.8m77.1-45-.4-.4m7.9 11-7.6-10.6 19.7 3.3m.5-.3-20.5-3.4 10.9-4m-103.4-34.6 1.2 2.8m3.7 7.6-4.7-10.9m0 0-7.9 4.1m7.9-4.1-17.5 8.3-8.7-9.7 26.2 1.4m130.6 64.7.1-.5m-.1.5 6.7 10.5m-11.5-23.2 19.4 5.6m0 0 4.4-5.7m5 6.4-9.4-.7 3.7-4.5m-97.6 22.4-.3-.4m-15.4 6.7 15.3-6.7 5.3 12.3m-.1 0-4.8-12m-12.5 42.5 20.6 7.8-11.8 6.6m0 .5 12.3-7 6.8 14.5m-6.9-14.5-21.7-8.2m9.5 14.6-8.8-14.3m-.6-.3 21.7 8.2m24.4-97.1-.3-.3m-27.9 59-12 1.9m-8.8-7.2 10.3 2.5m-62.4 11.8 17.2 6.7-8.9 7.3-5.2-8.8m-3.1-5.2-.6-.3m0 .1 8.9 14.2m-17-6.8 8.1-7.5 8.6 14.3m9.5-7.2-18.1-7"/><path d="m1020.7 621.2 17.8 29.1-17.6-6.8 9-7.3"/><path d="m1021.1 621.3 8.5 14.6-9.1-15m0 .1.2.2m-8.6 7.6-.6.1"/><path d="m1029.3 635.4-17.2-6.6.5-.5m7.9-7.3-9 8m126.2-34.8-.4-.4m19.9-2.8 2.5 6-22.4-3.2m-32.8 17.2.4.4m49.8-26.6-16.8 9m16.8-9-16.8 9m-53.4 26.9-23.3 3.2m23.3-3.2.5-.5m-10.5-2.8 10.5 2.8-11.9 2m6.8-.8 4.6-.7-9 9.8m0 0 9.5-10.3m-105.5-37.4h.5m-.5 0-8 7.8m105.4 51.7-3.6 3.1m-15.4-10.3 19 7.2-2.5 2.1m-6.7 5.9-.6.1m0 0 4.7-3.7m2.6-1.8 2.6-2 11.7 15.7m0 0-11.8-16.3m97.2-51.9 4.7-5.6M1026 610l.7-10.2-4-9.8m22.7-53-16.5-4.2 1.2-1.3M975.7 615l-9-14.7m-8.3 7.7-.6.1m0 0 17.9 7m-9-14.8-9 7.8m.3-.4 8.9 14.7.7-.7m-.3.9-.5.3 9-8.3m-26.1-21.1 21.8-3-17.2 2.2m2.1-9.7-.1-.5m50.4 21.7-.2-.4m-.3.4.3-.4-3.6 10.1m3.2-7.9.6-1.8 12.7 4m-16.5 5.7 23.3-3.8-5.7 10.8-17.6-7m178.6-13.9 11.4-8.2 10 10.3m.5 0-10.5-10.7m0 0v.4m-96.6 39.7-10.8-10.9m-.1 0-.5-.4m.1.6v-.6l11.3 11.3m0 0-10.4-.4"/><path d="m1076 630.5 9-9.8 10.8 10.8m85.1-31.1 7.8 10.5m.6.1-8.3-11m0 0-13.7 8.1m-140.9 2.5h-.5m93.8 26-18 5m11.3 5.9-11.8-6.1 18.5-4.8m0 0-6.7 10.9m53.6-39 4 5.9m4.3 5.6-8.2-12m.4.5-.4-.4-14 9.4m-174.2-19.4-11.3 2 4.5-9.1m16.1 5.4-16.3-5.8m-.3.4.3-.4-4.8 9.7"/><path d="m1096.3 631.5-19.3 10.8 24.3-.9m-25.8-10.9.3.4"/><path d="m1144.9 638.3-25.1-1.7-23.5-5-10.5-.4m51-4.6 15.2-8.7 7.9 11.1m-7.9-11.1.1-.5m0 0 7.7 11.6"/><path d="m1144.1 622.2 8-4.8 3.2 4.6m-38.6 34.3L1160 629l-3-4.2m-60.4 7.2-.4-.5m-.1.5.1-.5 5 9.9m.2 0-4.8-9.4 13 2.8m-60.7 8.2-.6.1m-.1 0 10.4 3.8m-19.2 3.6 8.8-7.4 9.6 3.6m9.3 3.7-18.2-7.4m18.2 7.4-9.3-3.7m9 3.2-17.9-7 9.1-7.3 9.1 14.8m-9.2-15.3-9.6 8"/><path d="m1066.8 650.3-9.2 7.4-8.7-14.3m8.7 14.3-.1.2m0 .1 9.6-7.6m0 0-18.8-7.3m.6.3-.5-.7"/><path d="m1067.1 650.4-18.2-7 8.6 14.5m2-23.2-1.2.3 3-10.7m-.1-.4.2.4m14.1 6.2-14.1-6.2 2 1m117.9-25-.4-.4m8.2 10.9-7.8-10.5 21.4 2m-13.4 8.7 14.2-8.9m-273.9-30.2 21.4 1m.7-.3-22.5-1.1m0 0 8.8 7.1m-8.9-6.6 8.9 6.6m236.9 41.4v-.2m-.1 0-7.7-11.3 21.4 2.7m-13.6 8.8 14.3-9m-263.6-14.7-.5.2m-.1 0 15 4.8-8.6 7.8-6.3-12.7m6.1-9.8-6.1 9.8m14.9 4.9-8.8-14.7m-5.6 10.1 13.8 4.8"/><path d="m939.7 601.3.5-.4-9-14.3m-5.6 10.1-.5-.2m227.4 21.3-.4-.4 8.2 11.5"/><path d="m1160.3 629-7.8-11.2 21.8 2.4m-70.2 49.5-8.5 2.8-6.3-13.4 14.8 10.6m0 0 .3.2m.1 0-9 2.7m-6.1-13.5-.6-.5m7.4-8.4 8.1 9.5-15-1.4 6.9-8.1m8.5 9.8-8.6-10.3m-6.7 8.6-.7.3m0 0 16 1.5m-8.7-10.3-7.3 8.8m-168.5-69.5 11-2.5m-9.2 1.9-1.6.3-6-8.4m7.9 3-8.4-3.5m0 0 6.3 9.2m11-2.5-17.3-6.7m.7.1h-.7m23.7-1 .4-.4"/><path d="m938 578.6-24 1.3-.1 10.3"/><path d="m924.9 579.6 12.7-.6-2.2 2.5m-4.6 5.5 7.3-8m265.3 23.1.1.1m-4-10-6.6-.8m10.5 10.7-.1-.1m-268.7-19 3.5-4 17.2 3.7m142.2 89.8 7.1-2.4 10.2 10.4m74.3-69.5h.1m-87.9 30.4.1.5m27.5 5.7-15.9-.1-17 2.2"/><path d="m1099.5 649.3-3 .4 3.1-5m1.3-2.9.4-.4-5.2 8.4m-128.8-27.2 8.5-7.3m.2-.9-8.7-13.7m12.3 4.7-12.9-5.1m17.8 6.9.9.4m2.8-10.9-3.5 10.3-17.3-6.7m20.8-3.6-20.8 3.6M931.8 587l17.5 6.5m6.6-10.5-7 10.2m.3.1-17.4-6.6 24.5-4.1-7.4 10.6m.3.1 4.4-6.8M981 557l-18-1.1m10.4-8.1 40-22.2m-37.7 24.9-2.4-3.1-14.9 8m15-7.6 7.2 9.2m134.1 123.6-38.3-15m19.2 7 .7.3m-20-7.6-37.4-14.3m0-.5 37.2 14.5m-27.6-21.6 8.7 14.2-17.8-6.9 9-7.3m-9 7.3-.5-.2m18.6 7.5-.4-.4m.4.4-9-14.4m9.3-8.6-18-7 5-.8m16-2.9.3-.4m-22 4.1h.6m-.6 0 18.8 7.1m-9.5 7.6 9.5-7.6m-18.8-7.1 9.3 14.7m-27.2-21.7 22.3-3.5-4.4 10.3-17.9-6.9m-.7.1 18.3 7m-35.4-13.5 17.7 6.8m17.6 29.4-18.3-7m0-.4 18.5 7.2.5-.4m-18.5-6.6-.5-.2m18.5 7.2-.5-.2m-50.2-110.6v-.4m0 .4 7.1 9.5m135.1 98.4-14.7 9.3m-1.1-4.2-1.3-4.9h11.3m-11.3 0-.3-.3m-.2.4h17.2"/><path d="m1115.7 657.1-2.7-9.6 11.4.3m6-.2-6.3.1m-8 9.4h-.4m-16.9-4.5-2-2.3 18 6.9-10 2.5m10.9-2.4h-.2m-19.5-7.5.8.5m7.9 9.7 10-2.8m-10 7.7V660l7.2-1.8m3.3-1.2-18.4-7 16-2.1.9 3.2m-17.7-1.3.7.1m-182.1-70h-.7l.3.7m4.3-.9-4 .1 14.6-7.9 8.3 6.8m6.3-15.2L913.9 580m54.4-23.6-9.9-1-14.7 8.1 22.2 1.3 7.5-3.8m-15-5v-.5m0 .5h.1"/><path d="m966 564.9-7.6-9.4L981 557m47.9-24.2-4-3M943.7 564v-.5m0 .5 6.2 7.2m1.6 1.8-7.8-9.5.4.4m40.6 66.1.6-.4m8.5-7.3-8.5 7.3 17.4 6.7m.1.2-.4-.2m.8.3-.6-.3m-2.2-23.3-15-5.8 20.9-3-2.2 6m16.1 33.3-17.6-6.9m.7-.6-.5.5 17.6 6.8.7-.5"/><path d="m1011.5 629 8.4 14.1-16.7-6.5 8.5-7.4m8.7 14.1-.4-.2m-8.3-14.6-5.5-9.3m5.3 9.8 8.5-7.9m.5-.4-15.2-5.9m20.5-4.3-1.2 2.2m106 34.8-10.9-10.9m0 0 25.2 2m.4-.2-10.4-.6m-132.1-106.1 8 9.3m-96.7 61h.1m.1-11.4-.2 11.3 17 6.6m-17-6.5 11-5.5"/><path d="m914.2 599.4-.3-9.2 11.2 6.2-10 5.5m-.7-.1 2.9-1.4m-3.2 1.6.5-.3m34.9-7.9 17 6.5-7 6.1"/><path d="m949.5 593.8-.6-.2 17.5 6.7m2.3-4.3-2 4-17.5-6.8m.3 22.5 16.9 6.6M949 616l9-7.6m-43.5-6.1-.3-.1m10.6-5.9-10.4 5.5-.1-11.2 10.5 5.7m0 0 .3.1m-.1.1-10.6 5.3m10.8-5.8-4.5-6.8m4.5 6.8 5.6-9-10.6 2.1m-6-8.5 10.9 15.9m-.1 0 .2-.5m-5-6.9-6.3 1m191 79.4-.4.4m.2-5-.3 5 10.5-.9m0 0-10.2-9"/><path d="m1113.7 668.9-8.9.6.2-9 9 7.8m-9-7.9-.4-.3m10.3 8.9-1.2-1m22.5-41.5.4.4m-21.7 42.1h.1m-57.5-11h.4m18.1 7-18-7 9.2-7.4 8.8 14.4m-17.9-7h-.6"/><path d="m1051.9 648.6 5.5 9.3 18.6 7m-.8-33.9 1.4 11.2m-1.1-11.7 1.4 11.8m-1.7-11.3.2-.5m-16.9 4.7h-.6m9.3 14.8-8.8-14.4m18.5 6.7-9.8 8-9.2-15.2.6.5m18.5 29.8 18.3 7.1m-5.9-2.3-12.4-4.8 11.8-6.6 2.9 6.3m-2.9-6.3-.1-.2m.2-.5-.1.5m4.9-6.3-4.9 5.9-3.2-4.4m-8.1-10.8-.6-.7m19.1 7.5-19.1-7.5m24-.5-4.9 7.8-18.3-7m23.2-.8-23.2.8-.8-.3-.2-1.6m38.9 16.5-19.5-7.6m18.5 30.3.4-11m-.1.1.3-11.8m-3.6 1.1 3.7-1m-.4 11.2-9.6-8.4 10-2.5m-10 2.5h-.6m-.1.1 10.6-2.6m-10.7 12.3 10.1 10-9.5-9.9 9.8-.7m-9.8.7-.6-.1m10.5-.9-.1 1.9m-108.5-75.5-.1 8.3M997 587l9.4 8.4-17.2 1.2m-.9-43.4-14.9 7.8m-23.1 10-6.2-7.1 10.4.6m61.1 15.5 6.6 10m159.4 1.1 10.9.6-11.4 8.2-4.5-6.3m15.9-1.9.5-.3m-16.5 2.2 4.5 6.3-6.9-9.5.4.4m-144.6-59.3-1.1 1.3-3.7-3m129.6 55 5 12.1m-63.6 35.1 2.3 4.6m69.7-53.6-13.4 1.8-6.4-4.7m-133.2-.2-21.4-3.2m-.1.4 3.4 10m99.8 44.5 14.7-7.9 2.8 4.7"/><path d="m1113.4 647.5 6.4-10.3-8.2-14 3.2 5.7m-91.8-38.5-.3-.4 3.6 9.7"/><path d="m1024.3 593.7-1.3-3.3 23 4m84.4 53.2h-1.5m-82-109.9-18-4.9 3.3-.5M991 594l6-6.5 7.4 6.2m-6.9-6.3-.5.1m4.5 3.3-4-3.4 24.3 2.9m-28.2-13.2 3 9.8m93.1 71.9 15 1.4-.2 9.2-14.8-10.6m7.5 5.6-8.5-5.8 15.7 10.8M1047.3 538v-.3m0 .3 6.7 6.5M559 299.6l-151.7-51.4m151.5 51.3L866 182.9l-149.2-41.2L407 248.1l151.8 51.4"/><path d="M559 299.6 407 248l314.3-10-151-46m-11.4 108L407 248.4m163.3-56.1 150 45.6m-150-45.9-162.2 56M717 142l-.2-.3m-.2.3 4.5 95.9m.3-.1L717 142l148.6 41m-149-41 4.3 95.8m307.9-9.8L726.4 356.5l-22.2-7.6m-145-49.1-.1-.2m327.7-11.4-160.3 68.1m-22.1-7.4 22 7.3"/><path d="m704.5 348.8 22 7.4L1029 227.8l-163-45-307 116.8m327.5-11.1"/><path d="M1029.1 228.2 726.5 356.7 704 349m-144.5-49.5-.4.1m327.7-11.4-40.7 1.4m-124.9-51.4h.1m165.7 50-21.8-6.6M721.5 238h-.3m307.9-10.2-142 60.4m-20.8-105-.3-.3m-.1.2 20.9 105.1m-.1.3"/><path d="m887 288.1-20.7-104.9 162.3 44.8M566.7 406.3l-149.4-55.4m186.8-23.6-.4-.4m0 .1 44.5 45-83.4-8.5m83.5 8.5L604 327.2l51.4 5.3"/><path d="m554.8 298.6-137.7 52.1 149.4 55.4 137-57.2m-99.8-21.5v-.5m0 .1-38.9 36.5m38.9-36.1 44 44.5m-44-44.9-104.5-7.4m65.4 44.3.2-.4"/><path d="m509.3 347.5 55.5 16-74.8 14.3m0 0 .4.2m74.2-14.1 1.6 42.2m.3 0-1.4-42.3m1.1 42.3L490.4 378m76.1 28.6L417.1 351m149.6 55-1.6-42.2 82.6 8.4"/><path d="m603.7 327-94.4 20.5-92.2 3.2.5.3m185.2-23.8-103.5-7.6"/><path d="m418 350.7 81.2-31 10 27.8m-.2.3-19 30m0 0 19.4-30m-19.4 30L417.5 351m72.9 26.7 19-29.9 54.8 15.8m463.4-34.6L731.1 467.3 695 454m-128.2-47.6v-.2m127.7 47.6-127.8-47.4m285.8-52.9-94.3-10.3m.9 37.1-.4-.3m0 0 32.3 30m0 0-32-29.8 78.3 8.5m50.5 5.5.4-.2m0 0-49.6-5.4m49.2 5.6L812 429.5"/><path d="m695.3 453.9 35.8 13.3 296.7-138.4-137.5-41.7"/><path d="M1027.8 329.2 731.1 467.6l-36.4-13.5m157.8-100.6L758.7 380m93.7-26.1 35.3 40m.5.1-35.7-40.5M880 317l-49-4.7m48.7 5-27.2 36.2-40.4-33.2m40.4 33.2L880 317m-68.4 112.8-51-5.7m-1.8-43.7v-.4m-.1 0-35.5 40.2m.4 0 35.2-39.8 31.8 29.7M758.7 380l-109.6-8m203.8-18.2-.4-.3"/><path d="m888.2 394-35.3-40.2 106.5 7m.2-.1.4-.2m0 0-107.5-7L941 332m18.6 28.7L888.2 394m57.8-90-66 13 60.9 15 87-3.2-.6.3M723 420.6l.2-.4m0 0-76.5 15.7m-.1.1.6.1m75.8-15.5 3.2 18.8m4.7 27.8h.5m-.3 0-4.6-27.5m4.4 27.5-35.7-13.3M567 406.3l127.8 47.4m31.8-14.5-3.1-18.7 36 3.8m52.1 5.5-80.2 37.4M838 388.5l-79.3-8.5-96 22.5"/><path d="m662.8 402.5-14.3-30.2 109.3 8m183-48 18.8 28.1m.4.1L941 332m-181 92-36.8-3.8-60.5-17.7-95.1 3.6m190.7-25.7.4-.4-22.6-27.4m22.2 27.8-35 39.8M880 317.3l60.3 14.8m-67.8-37.4 7.6 22.6-27.1 36.1m-204.9 18.9v.1m55.3-23.5-136.7 57.3m.3-.1-.3.1m95.7-3.3-15.8 33m.2 0 15.9-33.4M646.6 436 567 406.3M694.3 454l-127.8-47.5m374.7-74.2 4.7-28.3m14.1 56.4-18.8-28.1 86-3.2m.1 0L960 360.5m-13.9-56.2h-.4m-4.5 27.7 5-27.7 80.8 24.5m-81.3-24.5-5 27.6"/><path d="m647.1 435.8 15.7-32.9-14.4-30.6M574 508.9l-147-59m112-8.4 10 15.2m.3.1L539 441.2m.1 0v.3m10.2 15.3-48.4-1.4m38.2-14.2L501 455.4m48.5 1.6-.2-.2m0 0 6.2 19.5m-5.9-19.1 38.2 3.1m.5-.2-39-3.3m39 3.3-32.8 16.2M501 455.4l19.7 13.6m59.7-25.6-59.7 25.7M501 455.4l19.7 13.6m28.4-11.9.2-.3m-.2.3 6 19.1m.4.1-34.8-7.3-36.7 3.7m15.8-33.7-.3-.3m.1 0 1.3 16.7m.2-.1-1.3-16.3 38.7 2.4m.6-.2-39.6-2.5m97.2 37.9-41.2-.3m40.9.3-8-16.5m8.3 16.5-8.4-16.5m22.6-29.5-30.5 12.8m.1 0-8.7-15.2m0 0 8.6 15.2m30.5-12.8-39-2.4m97.5 37.1-41.8-3m31-13v-.3m.1 0-31.1 13.3m31-13 10.4 16m.4 0L658.7 449m-39.7-2.7-.3-.3m-.1 0 9 16.3m.1 0-8.8-16 39.2 2.9m.6-.2-40-3m-127.3-22.7 7.8 15.4m.4 0-8.1-15.7m0 0-31.4 13.2m39.5 2.5-40.1-2.5"/><path d="m548 399.6-121.2 50.1 147 59L694.3 454m-66.8 8.7v-.4"/><path d="m618.6 446-30.2 14 39.3 2.2-30.9 14.3M575.4 489l21.3-12.4 41.5 2.9-10.6-17.2 10.7 17.1m-75.6-66.6-39.9-2.8m0 0 9 15.7m30.9-12.9-31 13m-.3 0-8.6-15.8 8.9 15.8m86.8 20.5.2-.3m-.2.3 8.7 16m-64.5-49.5 25.4 1.7m-25.4-1.7 9.1 15.4m-40.1-2.4-32.2 13-28 9.2m20.3-24.7 80 4.9"/><path d="m499.7 438.7-8-15.4 39.4 2.7m65.9 50.9-.3-.3m-.1.4 9.8 17-31-5m31.1 5-9.5-17.1 40.7 2.8m21.3-30.4-.3-.3m10.8 16.3-10.5-16 27 1.6m-97.4 9.5-8.2-17m16.4 33.1-8.2-16 38.4 2m-64.4-49.4 8.9 15m-8.8-15.3-30.3 13m64.2-8.1-57.5 23.5 79.6 4.8 25.8-10.5m-105.2 5.6-7.6-15.3m-.1.3 7.8 15.4m-7.8-15.4 7.2 15m-54.9 31.6.5.2m36-3.5-7.2 15m.1.1 7.4-15.4 34 7.3m-41.5 8.1-28.8-11.6m89.5 36.3-147-59.1m73.7 5.6.3-.3m-29.4-7.4 29.4 7.4-45.8 5.7"/><path d="m427.3 450-.5-.3 44.7-1.7-16.4 13 .4.3m45.1-5.6-16.7 17m.1 0 17-17m-17.1 17-28.4-11.4m99.7 15.3.3-.3m-12.2 20.2 32-7.4-19.8-12.8-41.7 8.4m41.4-8.1-12 19.9m0 0 .5.2"/><path d="m543.3 496.5 12.2-20.2-11.8 20.1m67.1-65.4.1-.4m-.1.4 7.5 15m.3 0-7.7-15.4m-126.5 42 16.6-16.8m-29.4-7.5-12.1-12.1m.4.3h-.5m-4.3 24.5-27.8-11m148.3 39.4-.2-.3m-.3.3-1.5 19.4m.4-.1 1.6-19.3 30.3 4.8m-30.8-4.8-1.5 19.3m.4.3h-.3m-.1-.2-30-12m67.3-66.2 7.9 15.3m-38.1-2.2h-.4m8.2 16.3-7.8-16.3 37.4 2.5m-46.3-18-32 13M455.7 461l16-12.7M460 436.6l38.8 2.4m97.8 38 9.4 16.9m-106.6-54.8.1-.4m-.1.4 1.3 16.2m48.7 1.4-10-15.2 40.4 2.2m.5.1L588 460m325 24.1-177.3 90L574 509m0 0v-.1M892.5 402l-20.1-.3m20.1.3-26 14m-177.9 83.7-34.8 14.6m-4.8-17.2-.2-.3m0 0 5 17.5m34.8-14.6-39.8-2.9m216.4-34.7v-.3m.1 0-28.7 14m28.6-13.7 11.7 16m.4.1-12-16.4m12 16.4-40.7-2.4m28.7-14-40.3-2.2m0 0 11.7 16.2M825 459.6l11.6 16.2m117.1-39.2-31.5-10.7m33.8-5.3.2-.4m0 0-34 5.7m33.8-5.3-2.4 16m.1 0 2.5-16.4M721.8 523.7l-.2-.4m0 0-11 17m43.5-4.5-32.5-12.5m32.5 12.5-43.5 4.6m181.8-138 5.5 14.8m.3 0-5.7-15.2m0 0L867 416m31.2 1.2-31.8-1.2m-177.9 84 7.2 14m.3-.1-7.4-14.2m0 0-.1.4m7.5 13.8-42.2.4m101.2 3.5.2-.4m0 0-33.5 5.9m33.3-5.5-1 18m.1 0 1.1-18.4m198.5-80.8-37.7 2.3m6.3-12.7-.1-.3m0 0-6.2 13m-75.3-8.6-28.5 13.1m28.5-13.1-25.7-1.8m-2.8 14.9-25.6-1.6m25.9 1.9-.3-.3m0 0 12.8 16.2m.1 0-12.6-16 40.9 2.2"/><path d="m854 445.5-41.8-2.1-28.9 14m70.7-11.9-29 14.1m-41.7-2.2-26.1-1.9m55.6-12.1 27.9-13.1m13.3 15.2-13.3-15.2m-129.3 38-30.8 14.2m.1 0-11-17m41.7 2.8-41.3-3m235.2-.8.1-.4m0-.1-28.1 14.2m28-13.7 7.5 10.1m-96.6 33.3.1-.4m0 0-27.7 15m27.6-14.6 13.5 18m.4.1-13.8-18.5m13.8 18.5-41.5-3.5m165.1-85.9-22.5 14.7m22.5-14.3 6.7 5.5m-206.7 28.8-42.3-3 9.6-4.4m-9.7 4.8 11.6 17m.4-.1-11.9-17.3m0 0-30.2 14.3m42.1 3-42.7-3.1m118.8 59-45.3-5.7m.7.1 33.8-13.4m-33.4-5.1 33.4 5.1-34.5 13.3-19.4 16.3m64.7-10.6-10.8-19"/><path d="m796.1 474.4 29-14.8-41.8-2.3-29.6 14m-104.9 25.5 31.8-14.3-41.6-3m295.6-24.1-3.4-4.1m0 0L905.4 464m-28.2 14.6v-.4m35.8 2.7-35.7-2.7-31.2 14.5m43.4 3.1-11.9-17.3m11.9 17.3-43.4-3.1m14 18-43.8-3.2M846 493v-.3m-40-2 40 2-29.7 14.8-38.7-2.4M846 493l13.7 17.7m.4 0-14-18m-208-12.9v.1m.5-.4-.4.2m-17.8 27.2 28.4-10-41.6-2.9m87.1-40L574 508.8m180.5 27.4-.4-.4m-.1.5 13.9 21.2m.1-.1-13.5-21.2 44.4 5.6m.1 0 .5-.3m-.5.3-31 15.7"/><path d="m574.3 509 161.3 64.8L913 484"/><path d="m913 484.3-177.3 90-161.8-65.1M846.4 493l-9.8-17.2m23.1 35.2.5-.3"/><path d="M860.2 510.7 846.4 493l42.6 3m0 0 .6-.2m-.6.2-28.8 14.7m45.5-46.3-.3-.3m7.4 9.9-7-9.6 9.4.7M954 437l-.3-.4m7 5.8-6.6-5.5 15.5 1M789 522.8l-11.4-17.7m21.9 36.4-10.6-18.7 40.7 3.4m.1 0 .5-.3m-.5.3-30.2 15.3m-76.2-55.9-34.7 14 44.5 5m-52.2-21.8-.3-.3m0 0 15.5 31.4"/><path d="m688.7 499.6-7.8-16.8 41.8 3m166.9 10-12-17.3 35.3 2.7m-96.3 26.6-10.5-17m24.1 35.1-13.6-18.1 43 3.2m.1 0-29.5 15m101.3-74.4-.3-.3m3.8 3.9-3.5-3.6 9.9.4m-218.2 34 .1-.4m9.7 18.9-9.7-18.9m-42.8-2.7 7.8 16.8m-18.7-34.1 10.9 17.3-31 14m54.5-39.3 7.7 11 41.4 3m43 2.8-42.4-3-30.4 14.2 42.9 3.2m45.9-45-7.7-10.3m7.7 10.3 12.5 15.8m59-27.7-43-1.6 25.8-14.2-22.6-1m-90.2 56.6 12.2 17m.4.1-12.5-17.5m.3.3-30 14m142.4-69.2L883 432m.6-.1L866.4 416m0 0-25.2 14.3m-75 58.5-33.1 15.7m-9.5-18.5-.3-.4m9.9 18.9-9.6-18.5 42 3"/><path d="m766.3 488.7-12.3-17 41.6 3"/><path d="m777.6 505.1 59-29.3-40.5-1.4-29.9 14.4 39.9 2m77.5-58.9-29.7 13.6 38.7 2.9M841 430.6l-.3-.3"/><path d="m854 445.5-13-15 42 1.6m-99.8 25.6.1-.4m12.8 17.1-12.8-17 12.9 17m-115.7 54.4.3-.4m0 0-44.1 5.6m-.1 0 .5.3m43.4-5.5L668.9 547m.1 0 11.8-18.6M668.9 547 637 534.4M962 405l-35.9 5.6m4.6-15.6-.2-.4m0 0-4.4 16m.3 0 4.3-15.7 30.7 10.1m44.7 14.5-100.7-33.2m25.1 8.3-38 7.4M710.3 540.7l.3-.3m0 0L669 547l.5.3m32.5 13 8.6-20m-8.7 20-32.4-13m-16.1-32.6.4-.4m0 0-48.9 7m0 0 .5.2m48-6.8L636.6 534m0 0 17.2-19.7M636.6 534l-31.2-12.5m388.6-106-37.8 4.7m5.9-14.9-.1-.3m-.3.3-5.5 15m5.9-14.9 31.3 10.2m-67.3-5-33.6-8.6-9.5-5.2m10.1 5.4 37.4-7.6"/><path d="m734.7 552-24-11.6-30-12m.1 0 .1.4m-43.8 5.2 16.7-19.7m79.2-9.8-37 9.4 25.7 9.4-41 5.1-27-14-33.3-7.5-45.6 1.9M983.6 428l-27.4-7.8-30-9.6-28 6.6 24 8.7-38.6 6 32.4 7-23.4 9.5m-38.8-2.5 11.1 15.8m.4.1-11.4-16.3m38.2 3.1-38.2-3-28.2 14m39.9 2.4-.3-.2m12.1 16.4L865.6 462l39.3 2.2m10.8.6-50.4-3 27.3-13.4 49.3 3.4m-206 121.9-1.2-21.6m0-.1 1 21.8m-.3 0h.5m31.6-16.1-32.8-5.6-32.3 8.4m65.1-2.8-31.6 16m-115.5-66.8-13.7-12.7m127.8 58.2.2-.3m-.2.3.9 21.3m.4.3h-.3m-.1-.2-33-13.3m-128.1-51.7-.3.1"/><path d="m605 521.3 15.4-14.4 32.5 7.5m-48 6.9L574.2 509m419.9-93.1v-.4m-.4.3L983.6 428m.4 0 10.1-12.1 11.7 3.8m-250.3 98.1-.3-.4m-.8 18.3 1-18 32.7 5M916 439.3l15.2 12 3.7 4m-3.7-4-15-12.1 37-2.3M806.4 491l-.3-.3m30.9-14.6h-.5m9.7 16.5-9.3-16.5 39.8 2.4m-110.6 10.6v.1m11.5 15.9-11.4-16.3m.3.2-.4.2m11.5 15.9-44.5-.6 22.1 13 22.4-12.4m11.1 17.4-11-17.4-22 12.4M893 448.7l-.4-.3m0 0 20.2 25.7"/><path d="M905.5 464 893 448.8l37.7 2.8m-47.2-19.3 8.8 16m.3.5-9-17m0 .1-29 13.7m-18.1 30.6 9.2 16.5m-39.7-1.6-9.9-16.7M836 476l-39.9-1.6-29.3 14.4M825 460l11.3 15.8M825 459.6l-28.3 14.8m9.3 16.7 10 16.3m-38.3-2.4-11.2-16 39 2m120.8-80-.2-.4m-.2.4-4 15.2m-200.6 97.4 11.8-19m133.7-88.3 16.8 15.6 14.6-14.7m-38.5-9.5 7 8.6m17.3 15.9 14.3-14.7m-5.5-15.1 4.5-12.3m1 27.1-5.5-14.8 32.8 8.3M695.7 514.2l-15 14.2m.1 0 15.3-14.1m188-82.5 14.2-14.3M732.7 505h.5m-22.6 35.4.1.5m-90.2-34-13.8-12.7M754 536.3l13.5 21.1m187.1-120.7 29-8.8m0 .1-29.9 8.6 16.4 1m-77.5 11.2L905 464m-251.5 50.2-4.7-17.4-10.4-17m317.8-59.6-2.2 16.3m-232 86.7 11.2-18.2 21.5 12.5m138-69.1-8.8-16.2 31.6 6.9m10.4-28.1-3.9 14.8m-226 88.5 25 9m195-84 14.6 12M472 448l27.4-8.9m.8-.3 31.4-12.7m-10.4 43.1 27.9-12m9.9-157.6.3.1m-.1.1h-.1M490.5 378l74.1-14.2m2.1 42.5h.2m7.1 102.6.3.1m-2-100.3-9.6 4 24.5 1.5M574 508.9h.3m32-14.6v-.1m.4 0-.1-.1M581 443.4l29.8-12.5M589 460.1l29.5-13.8m-12 47.8.3-.1m-.1.2-.1-.1m-31.8 14.7h-.5M607 494l31.2-14.3m.3 0 10.4 17m-10.5-17.1.1.1m-17.8-53.1-9.8 4 24.8 1.6m-69-26 .3.1m.4-.2 80.7-34m.3 0 .3-.1m-.2.3-.1-.2m-10.1 107.5.1.2M607.2 494h-.4m-39.6-87.6 95.2-3.6m-14.3-30.4 14.2 30.2m-14-30.5v.2M567.6 406l-.6.1m71.9 73.4 30.4-14m.2-.1h.2m-.1.2-.1-.2m0 0v.2M639 479.5h-.4m30.4-34.9-10.3 4.3 26.4 1.6m-61.6-128.7-19.8 5.1 50.6 5.3m15.8 133.2h-.4m-261.9-217 312.5-10.2m.8-.2-161.3 61.5m156.8 119.1 6 1.7m-75.3 15.8 75.7-15.6M648.9 372l55-23m.4-.3.3.1m-.6-.2.3.1m-144.8-49 144.5 49m-144.9-49.1.4.1m144.4 49-144.5-49m144.3 49.1-144.6-49m144.9 49h-.3m.6.2-.3-.2m-.6.1-144.5-49M703.7 349l-.3-.1m.6.1h-.3m22.6 90.8 4.6 27.3m-4.7-27.5v.2m0-.4v.2m-31.5 14.2L647.2 436m79.3 3.3-3.3-19.1M695 453.8l.3.1m-.5-.2.2.1m-.2.2-.3-.2m.5.2h-.2m36.3 13.4h.2M694.5 454h-.2m.5.1h-.3m32.2-14.7v-.2m0 .4v-.2m4.6 27.7-4.6-27.5m-63.4-36.9 95-22.3m-22.5-27.7 22.5 27.3M649 372h-.3m110.1 8-22.6-27.4m31.6 205.1h.2m-13.7-86.3 29-13.7m16 84.1.1-.1m-39.3-117.3 51.4 5.3M791 410.3l20.5 19.1m-20.7-19.2.1.1m-.3-.3.2.2m.4 0 20.8 19.3m-51.7-5.5h-.3m.7.1h-.4m51.6 5.7.2-.1m-21-19.7h-.1m.3.2-.2-.1m20.9 19.4-20.7-19.3m-7.3 47.2 28.1-13.6m17.9 82.4.2-.1m-72.6-182.6 94.2 10.2M759.5 380l93-26.2M860 511l.2-.1m-22.9-35.1 27.9-13.7M721.6 238 866 183m-19.3 309.7 30.5-14m-12.5-196.9 21.1 6.4m-164.5-50 142.9 43.5m-18.8 8.3 40.6-1.5m-326.4 11.3 284.7-9.8m21.6-106.7 20.6 104.8m-326.4 11.3h-.6m285.6-9.8-285 9.8m285.5-9.8h-.5m1 0h-.5M721.8 238h-.3m143.1 43.5L721.8 238m143.1 43.6-.3-.1m.6.1h-.3M838 388.9l49.6 5.3m-49.3-5.6h-.4m.7 0h-.3m49.7 5.6h.2m1.2 101.8h.1m-23.6-34.2 26.7-13m-14.7 29.5 27.4-13.8m8 16.5v-14.4m-20-18.2 22.6-9.1m4.1 149.6-5.7 1m10.4 5.9-6.6-3.6m21.9 9.5.2-.2m-86.7-247.9 87.3-21.3m-11 239.2 13.9-7.5m-2.8 26.1 8.3 3.1m-17.5-141.9 22-14.3m-2.2 136 4.4 9.5m-6.5 10.7 7-10.2m-12-19.4 14-7.7m1.5-195.2h.1m-46.5 105.6 54.7-2.5 25.4 5.5m-25.3-5.5L954.2 446m1.4 146.5-6.4.7 9.9-1m11.9-1.6-14.6-7.6m-6.7 10.5 15.7-1.9m7.2-17.4-2.3-3.3m-11.2-15.4 14.3-7.7m-12.7-105.4-7-5.8m3.3 146.3 22.5-.1m-7.4 7.7 7.9-7.7m-10.8-26.2 11.3.8m.6-.4-6.8-8.7m10 81-17-6.7m6.7-75.2 14.2-7.7m-7.8 42.9 13.2-5.5m1.6-27.6-11.7-1m12.5 38.6-16-4.3m17.1 4.2-2-6.7M986 429.6l-2.4-1.7 6.2-.2m11.2 132.4-11.4 5.6m-4.7-7.9-3.5-.4m3.8 72.4 17.7 6.7m-14.1-97.2 14-7.6m-6.2 73.6-9.3 1.4m10.4-58.1 13.5-7m.2-.6-8.2-9.4m-39.9-24.5-.7-.2m49.4-57.5-57.8-3.4m30.2 1.7-19.9-1.2m2.5.1 45.9 2.5m-15.2 138 18-7m7.3-17.7-9 4.6m10.2-5.2-15.7-1.7m19.8-27-25-1.5m20.9-2.2 4.1 3.4M994 426l37.5-18.8m-8.2 182.9 16-6.6m-3.9-27.3-8.7 4.3m.3 50.3 16 6.3m3.8-23-7.1-10.6 23.4 2.5m-27.8-42.7 12-5.4m-7.2 30.3 15.7-8m-15.4 47.8 10.7-1.8m-6.9 10.8 6.9-9.9m-9.9-53.5 14.8-7.1m-8.3-8.6 8.3 8.1m.1 0-8.3-8.1m9.8 120.1.1.1m4.2-101.2-11.3 5.8m-.3-7.8 12.8 1.3m-7.3 19 7.4 10.5m.5-29.7-4.6-6m.7 30.4 4 5.3 12.2 1.6m-12.2-1.6-7.5-10.6m5.7 66.7 14.4 23.2m-14.4-23.3.7 1.1m-.7-1.2-4.1-6.5 6.5-1.5m4-34.9 3-1.3m.2-.5-7.6-10.8 23.7 2.7m-16-22-19-2m9.4-21.8-6 3 18.8 1.6m-6.7 79.8-7-3.5 11.8-1.8m-9.2 11.7 1.7-.5m-1.1.3 11.1-3m.9 34.7-3.7-6.1m4.1-18.4-1.3-10.3m1.7 11.7-1.7-11.7m3.6-22.3-27-2m12.2-50.2 12.7-5.9m3.5 60.3 4 9.7m.6.1-5-12 23.8 3m-17.6-149.7-12.6 30.8m.5.1 6.4-15.6m1.5 74 5.3 7.6m.6 0-5.8-8.2m-6.1 44.8 12-6m-19.4-200.4 12-6.1m15 249.4-20.2-1.4 10.4.6m-2.8 8.2 13-7.3m.2-.5-10.9-10.9m8.2-19.1 2.8-1.3m.4-31-8.5-10.4 24.3 2.2m-17.3-6.1-7.4 3.6m.6 0 7.2-3.5"/><path d="m1095.4 555-7.6 3.5 12.5 1.4m-4.8-4.9-7 3.5m16 52.5-7.7-10.9m13.6 23.9-13 7m13.7-7.5-25.7-2.9m-19.5-100.7 45.3-9.2m-7.3 116.9-7.7 4m15.5-8.4-6.9-11.8m3.6-48.1-10 5m10.4 77.4 3.6 1.9m-7.6-82.3 8-4.2m1.2 118.6.8.8m0-.3.2-.3m.5-22.7v3.7m-14.4-9.1 14.4 5.5m-.1 7.3v3.7m.1-3.3-.1 3.8 3.2 1m-36.2-143.7 36.4 12.8m-3.5 104.6-2.4 4m5.5-84.7h.2m-4.1 65.1-2.6-4.2m8.5-21.1-23.6-2.5m16.1-38.9 7.8 10.6m-1.8 101.2 2.8 2.7m-2.9-2.8.1.1m-.2-.2.1.1m-3.5 6.9h-.2m1.6-.8-1.4.7m-.3.5-.2.1m4-7.4 3 3m-6.7-6.8 3.7 3.8m-3.8-3.9.1.2m3.9 3.3h-.1m.2.1h-.1m1.1-2.4-1.5-.5m1.7.5h-.1m.2 0h-.1m2.3.7-2.2-.7m7 2.1 1.2-.8m-2.6-.9 1.4 1.7m-1.9-2.3.4.6m-10.2-13 5.4 6.9m5.8 7.9h.2m-6.9-1.9 6.6 2m-6.7-2h.1m-.2-.1h.1m-3.3-.9 3.2 1m7.4 1.8-.2-.2m-7.2-9.6-3.8-4.7m5 6.3-1-1.3m6.3 7.8-.5-.5m1.6 1.9-1-1.4m1.1 1.5-.1-.1m-12.1-2.9 1.5.4m10.7-55-22.9-3.1m10.8 57.7-.5-.1m-.1-87.4 13.6 1.6m-14.9 8.1 15.3-8m-13.5 73.9.3.2m-.2-.1 6.3 2.6m1.4-7.5-7.3 4.7m14.6-9.3v-.2m-5.8 3.9-8.6 5.6m11-12.8-7.5-7.7 8.2-4.8m5.4 55.5.9.9 15.3 5.7m-21.8-12.5 6.1 6m-5.5-15.9-.5.5m1.1-1.1-.6.6m1-1.1-.4.5m.3.1-.6.6m-6.3-11.6h-.3m.6.2-.2-.1m7.6 2.9-7.4-2.8m7.7 3-.3-.2m2.9 1.2-2.6-1m2.8 1.1-.3-.1m.3.1 2 .6m-2.2-.7.3.1m-2.9-1.1 2.6 1m-2.9-1.2.3.2m-7.6-2.9 7.3 2.8m-7.7-3 .3.2m-.5-.3.2.1m-.3-.3-6.2-2.4m6.4 2.5-.2-.1m.4.1h-.1m.1.1v-.1m7.6 2.9-7.5-2.9m7.8 3.1-.3-.2m3 1.2-2.7-1m2.9 1h-.3m.5-.1 4.3 1.6m-7.4-2.8 2.8 1m-3.1-1.1h.3m-7.9-2.8 7.5 2.8m-7.7-3 .3.2m-6.7-2.5 6.4 2.3m13.5-32.8-23.7-3.1m16 8.1 16.2-9.6M1111.8 475l24.6 13.3m-2.7 100.7-4.3-5.7 24.7 1.8m-48.8-214.8 34.1-17m-15.2 303.4-8.1.4m8.5-.4h-.4m6-.3-5.6.3m5.9-.3h-.3m4.1-.2-3.9.2m9.9 1-5.3 7m5.6-7.4-.3.4m-23.9-.1 7.3-.3m.8-.2h.5m-.9 0h.4m-8.4.4 8-.4m15.3-.9 2.3-.2m-3 .2h.7m-2.2.1 1.6-.1m-8.3.5 6.4-.4m-6.7.4h.3m-6 .4 5.7-.4m-6.1.4h.4m-8.1.5 7.7-.5m6.9-8.9-.3-.2m7.5 5.5-7.2-5.3m7.5 5.4-.2-.1m.5.4-.4-.3m.8.6-.3-.3m1.4 3.8-5.4 7m8.2-58.5-1.2.7m-6 60.1.1.1m.3-56.9-8 4.3 23.3 3.5m-15.3 48.8.1.1m-.9-1.4.7 1.2m-1.1-1.4.1-.3m4.8 8.1-1-1.7m-2.7-4.7-.8-1.2m.9 1.4-.1-.2m-.2.4-.1-.2m3.1 4.9-3-4.7m-1.3-28.9 10.1.6m.5-.2-6.8 4.4m7-4.6-9-11.2m14.6-8.9-1 .6m-3-8 4.5 6.7m-6.6-.7-10-1.3m17.1 2-6.9-10.5m.6-17.4-8.6 4.4 8.8-4.4m-8.8-5.8-2-.1m12.8-3.4-6.4-4.8m-4.2 90.7h.2m-.5-.2.2.1m-.5-.2.4.1m11-85.8-6.6-4.7 8-1m-11.8 91.3h-.2m-.2.3 4 1.4m-4.2-1.5.2.1m4.4-81.9 12.8.8m-17 81h.2m-.4-.1h.2m-.2.3h.2m-.5-.2.2.1m-2.6-17.7-3.7-.3m.1-.3h-.3m9.7.7-9.4-.7m15.4 1.1-5.7-.4m9.6.7-3.3-.2m8.3.6-4.7-.4m-2 3.5-7.1 3.2m-10.5-8.1h-.3m9.7.6-9.4-.6m15.6 1-5.9-.4m9.7.6-3.1-.2m4.9-2.9 3.2 3.3m-3.6-3.7.2.2m-5.5-5.6 5.3 5.4m-2.2-2.5-2.6-2.7m1.3 1.5 3.7 3.6m3.9 3.9-.1.4m-5.4-.7-3.2-.1m3.5.1h-.3m5.4.2-5.1-.2m5.2.2-6.8 3.2m6.9-3.2-3.6-3.6M1151 596l8.2 1.3m-1.5-4.2 1.5 3.8m-14.4 8.5 14.8-8m-2.4-6.4-2.5-6.2 4-6m1 50.5-23.1-2.4m23.4 2.3 10.2-6.5m-10 6.4h-.2m-40.7-90.4h-.1m27-25.7 15.3 1m-11.7 144 11.6 2.9m-11.9-2.9h.3m-3-.7 2.8.7m-3-1-5-1.3 5 1.2m.3.1h-.3m3.2.8-2.9-.7m3.1.8h-.2m2 .5-1.8-.5m-.1-.1-3-.8m3.3.8h-.3m2.1.5-1.8-.5m7.6-4.8.1.1m-.2-.3v.2m.4-.2 4.2 8-21.4 3m17.1-11.2v.2m-1.7-3.5 1.8 3.3m-8.4 5.3-2.9-.7m3.2.8-.3-.1m-9.3 5.9h.4m17.3-11.3-1.6-3m1.7 3.2v-.2m4.3 8.2-4.3-8m-.6-71.7 2-3.2m-6.7 28.9 13.4 1.7m-6.3 31.1 9.5.7m-14-1 4.2.3m-13.7-.9 9.2.6m-2.7-.2-6.6-.6m0 .1 7.7.4m6.9-9 9 10m-9.2-10.6 12-7.6m-9.1 10.8-1.2-1.4m2.2 2.5-1-1.1m-6.7 16.3.3.3m2.6-2.2-3 2m-1-9.9-1.7-.1m6 .4-4-.3m6.4-7.6 10.8 11.8m-17.5-4.2-9.4-.7m13.7.9-4-.3m10.1-3.8-2.4-2.7m-16.5-230.8 24.5 12m-78.6-2.4 78.9 2.7m-53.4 149 54.8 19.8M1140 353l33.2-16.6m-44.3 230.3-10.5-3.8m10.7 3.9-10.6-3.8m48.3 30.7-7.2 3.3 7.4-3.2m-6.7 3.2 12.1-5.5m-52.3-52.5-.4-.2m24.5 8.7-24.1-8.5m24.3 8.5h-.2M1120 539l5.1 1.8m-5.7-1.8-.4-.1m24.9 8.7-24.5-8.6m24.8 8.7h-.2m-24.3-8.7 2.5.9m-3.1-1.1.6.2m.3 0 2.4.8m45.8 84.2 6.2-4m-2.1 1.7-12 7.5m14.3-9.1.4-.1m-.5.3.4-.3m-8.7 5.6 8.3-5.3m-17.3 29.2 21.9 1.9m-6.4-7.9 6.4 7.5m-6.6-7.6.1.1m3.6 9.9 3.4-1.9m-6.6-8.2-.1-.1m-13.6 6.1-2.5-.2m5.9.5-3.1-.3m3.4.3h-.3m10.2-6.5-2.5-2.9m2.6 3.1-.1-.2m5.6-58.4-4.5 5.7m-1.9-8.1-4 .6m10.5 1.8-4.5 5.7m4.6-5.7-.9 1.2m.9-1.2-4.2 5.7m0 0 4.4-5.6m-2.4-56 6.2 6.2m-6.4-6.4.1.1m-14.2-14.3 14.2 14.2m-13.9-14.4 7 7.2m-17.8 15.4-28.4 1.6m7.6-.2-11.2.6m42.8-24.6 2.8 2.8m-46 21.7h-.1m44.3-2.6h.4m-2.6.1h2.2m-2.5.1h.3m-35 2 34.8-2m-40.6 2.4 5.8-.4m50.3-9.8-7.2-7.1m7.3 7.2-.1-.1m-14-14.3h-.1m14.2 14.2-14.1-14.2m14.2 14.3-.1-.1m6.5 6.6-6.4-6.5m-14.3-14.3 6 6m7.9 162.5 3.3 5.4m-5.2-57.7 9.9.7m-10.4-.7h.1m-6.9-.6-6.6-.6m0 0 7.4.5m7.4-8.7 9 9.8m-13.3 8.8 3.2-1.9m-3.5 1.7-.4.2m3.5-2.1-3.1 1.9m4-19.2 6.8 7.1m-7.4 2.8-6.2-.4m6.2.3-13.5-.9m23.1.5-8.6-9.3m-.1 41.7-12.7-1.2 12.7 1.1m6.2 4.9 13.4-8.5m-5.8-47.3-14 8.8m11-6.4 3.2-2m0-.4-.1-.1m-11.7 29.7-5.6-.3m15.2-5.9 4.5 6.5m-4.6-6.6.1.1m.3-.2-2.4-3.4m-7.3 9.4h.3m-3.7-.2 3.4.2m-6.2-.2h2.5m-3.2-.1h.7m16-5.7-.1-.2m4.7 6.9-4.6-6.7m6.5 76.9.4.1m1-23.4-.4.1m-4.9-75.7 8.6 9.3m-12.9 9.3 13.2-8.7m-13.5 8.4-.4.3m3.3-2.2-2.9 1.9m-10-10.5h-.3m13.5.9-13.3-.9m24.6-128-37.7 21.7m40.9 88.5-13.6 8.7m-30.9-238.3 44.7-13.3m-4.7 246.1 4.7-3m.1-.4-6-6.1m5.8 6.3 9-5.5m-25.2-97.2-11 6.5m27.6-16v.3m.2-.3.2.2m-8.8 197.7.1-.2m-3.8-56.1 14.4.9m-19.7-1.3 5.3.4m9.8-6.2 4.8 6.7m-4.9-6.9.1.2m-6.7-35-1.6 1 5.5.4m4.2 43.1 3.7-2.3m-4.8-7.4-.1-.2m-15.7 5.9h-.7m3.1.1-2.4-.1m5.9.3-3.2-.2m3.5.2h-.3m9.6-6.5-2-2.7m-4.2 53.5 3.4-2m-62.9-238.8 75.6 4.2m-21.5 172.4 23.2 1.7M1129 392.5l84.2-3.2m.2 223.9-13.8 8.4m13.5-8.7.4-.2m-10.9 6.6 10.5-6.4m-13.7 8.4 3-1.8m-3.5 2.1.4-.3m-9.6-10.3h-.3m13.3.9-13-1m23.2 1.7-9.9-.7m12.3 83.5h.2m-3.6-98.8-2.4 1.5m2.8-1.3-8.5 5.3m8.4-5.3-.9.6M1200 622l2.2.2m-2.9-.2h.7m-.3-.4h-.7m3.2.3-2.6-.3m6.2.6-3.3-.3m3.6.3h-.3m4.2.4-4-.4m9.8-6.2 4.9 7.2m-5.7-8.3.8 1.1m0 0 1.5 2.1m-1.6-2.2.1.1m-.7-1 .7.9m.1.1-.3-.4m-1.8 12.3 14.7-9.2M1200 622h-.7m2.9.1-2.2-.1m5.6.3-3-.2m3.3.2h-.3m10.3-6.3 5.3 7.2m-5.7-7.8.4.6m-52.1-101.8-1.3-.1m62.8 4.3-61.5-4.2m1.7 0 27.5 1.8m22.8-10.3 4.8 6m-3.9 91.6-12.9-1m22.2 1.6-9-.6m-.7 7.4-2.8 2m12.5-8.7-9.4 6.5m9.4-6.5.4-.3m-12.9 8.9 12.5-8.7m-28.5-87.7-30.7-2m31.1 2h-.3m18.5-10.7-12.2-15.3m12.8 112.8-6-.4m8.9.6-2.6-.2m-5.3-103-7.8-9.8 33.4 2.9m-21.2 12.4 10 12.6m-22.4-28.1 12.4 15.5m6 101.6 4.2-2.9m-.1 0 .2-.4m-12.9 8.8 12.7-8.4m-9.6 6.4 3.4-2.3m-6.5 4.3 2.8-1.8m-12.5-8.7h-.3m7 .6-6.7-.6m6.6.6 1.5.1m14.1 1.2-5.9 4.2m6.3-4.5-.4.2m0 .1-6 4.3m6.4-4.6-.4.2m.3-.3 3 .3m-3.6-.4h.6m-9.4-.5 8.7.5m-15.2-.8 6.3.4m9.3.9-12.5 8.6m12.9-8.9-.4.2m-11.7 40.1 12-7.6m-13.5-39.9-39.3-14m49.1 17.5-9.8-3.5m10.7 3.8-.9-.3m6 2.1-5.2-1.8m.7.7 5.3 2m-6.1-2.2.9.3m-7-2.5 6.1 2.2m-11-4 4.6 1.7m-4.8-1.8.2.1m5.4-3.4 11.7 9.4m-11.8-9.5h.2m-15-25.3-28-9.8m55.8 26.8v.7m.1.2-.9 17.2m.9-18.1v.8m.4-1 .3-6.1m-.3 6.3v-.2m0 .8v-.6m-.1 1.3v-.7m2.4 140.7-18.7-7.3m4.4-38 2.7-2.1m10.6-111.9-.6 5.5m-2.4 34.9.2.2m-13.4 5.2-2.6-.1m6.6.3-3.7-.2m4 .2h-.3m8.2 5.7 16-10.3m-15.2-1.8-2.3-2.6 2.4.2m.3 2.8-.1-.2m.3.3h-.1m.5.5-.4-.5m5.5 83.6 1.2.6m-65.4-229.4 72 5m-7.5 4.5-28.6 16.5m18.4-10.5-6.5 3.7m24.8-14-18.2 10.3m-3.1 1.7-18.2 10.7m-.4 0 39.9-23.1M1231 681l13-.3m-8.7 22.6.1-.2m12.5-44.1-10.3-11.7 25.3 2.4m-29.3-45.2-4-.3m3.3 0-3.3-.3M1172.8 414l79.3 4.6m-8.1 207.2 8.3 11.5m-40-198.7 22.2-11m6.1 208.6-12.1-1.5m24.3 2.6-8.3-11.6m-10.2 101.2 20.4 7.7m1-23.6.2-.2M1204 359l52.9-24.4m-2.2 284.6-10 6.1m10-13.3 3.6 4.5m-8.2 45-1.8-2.1m.2-.4 14.9-9.1m4.6-21.6-23.6-2.6m10.6 10.7-1.7 1m9.7 44.9-18-1.6m12.3.9 26.2 2.7m-21.9-69.8-3.2 2 12.3 1.2m3.2 44.2-25.6-2.5m27.9-163-39-3.3m.5-.2-14.9-1.3m34.8 3-19.9-1.7m21-12.4 17.6 15.6m-32.6-29 15 13.4m-32 37.7 50-21.6m-.1 222.7 18 6.6M1237.5 493l-33.6-3.2m36.2 3.4-2.6-.3m6.4-26.1.2-.1m-.1.3-.2-.2m.5.3-.2-.2m15 13.4-14.8-13.2m34 173.1-14.6 9.1m7.1 55.5 7.7 2.8m-13.1-59-1.4.9m-6 50.1 3.8-.6M1212 439l70 5.5m.5 0-38.2 22.2m35.6 154.3-10.8 6.7m13.6-183.3.4.3M1280 621l-4 2.6m1.8 54.7-7.6 4.3 7.8-4.2m-43.6-74.2h-.2m20 7.1-19.9-7m1.7-22.6-3.6-2.8m18.5 14.8-15-12m46.6 37.2-31.6-25.2m-17.1 10.8 54.3 19.4-37.6-30m-16.9 10.6h.2m16.6-10.7.1.1m-7.9-6.3 7.8 6.2m-14.7-11.7 6.6 5.3m-6.7-5.4.2.1m23.5 6.2.3.1m-.5-.1h.2m-3.7-1.3 3.5 1.3m-8.7-3.1 5 1.7m-5.9-2 .9.3m-7.5-2.6 6.6 2.3m-6.9-2.4h.3m-5.1-1.7 4.8 1.7m-5-1.8h.2m.1.1-.2-.1m4.9 1.7-4.7-1.6m5 1.7h-.3m6.8 2.4-6.6-2.4m7.5 2.7-.9-.4m5.9 2.2-5-1.8m5.3 1.8h-.3m3.8 1.3-3.5-1.3m3.7 1.3h-.2m.5-.1 30.6 10.6m-30.9-10.7h.2m-3.9-1.3 3.8 1.3m-9.4-3.3 5.3 1.9m-6.2-2.2.9.3m-7.1-2.5 6.3 2.2m-11.1-3.9 4.5 1.6m-4.7-1.7.2.1m21.7 7.4 30.2 10.7 10.5-1.6m-40.9-9.1h.2m-4.2-1.5 4 1.5m-9.9-3.5 5.6 2m-6.5-2.3.9.3m-6.8-2.5 6 2.2m-6.3-2.2h.3m-4.6-1.5 4.3 1.5m-4.5-1.6h.2m55.3 50.5-7-.8m5.1-62.4 1.7.6m-2-.6h.2m-9.3-3.2 9.2 3.2m-9.5-3.3h.3m-11.9-4 11.6 4m-11.8-4.1h.2m.2 0-.2-.1m11.6 4.1-11.5-4m11.8 4.1h-.3m9.5 3.3-9.2-3.3m9.4 3.3h-.2m1.9.6-1.7-.6m-31.2 6.1-28.6 4.4m29.1-4.5-.5.1m18.1-2.8-17.5 2.7m18-2.7h-.5m-8.1-10.9-21.1-7.3m21.3 7.4-.2-.1m8.4 2.9-8.2-2.8m23.4 70.3-6.3-6.7m-42-48h-.5m10.7-1.6-10.2 1.6m14.4-2.3-4 .6m4.6-.7-.5.1m8.7-1.4-8.2 1.3m17.5-2.7-9 1.4m9.5-1.5h-.5m3.4-.4-2.9.4m3.2-.5h-.3m7.7-1.1-7.5 1.1m8-1.2h-.4m-19.1-8.8-6.4-2.1m6.7 2.2h-.2m11.6 3.8-11.4-3.8m11.6 4-.3-.1m9.8 3.3-9.5-3.2m9.7 3.3h-.2m-77.5-178.2 80.1 10.4m-41 18.7 41.5-18.6m-7.3 276.2-1.6-1.6m8.6-108.5-.7 2.2m.9-2.7-.1.5m5-16.9-4.9 16.4m5-16.9-.1.5m1.3-4.6-1.2 4.1m-.1.6.1-.5m-4.8 16.8 4.4-14.5m-4.5 14.8v-.3m4.8-16.3-5.8 19m6-19.5-.2.5m.2.2-.5 1.6m.6-2.1-.1.5m2.6-9.1-2.5 8.6m2.6-8.8v.2m-2.7 9.2-5.4 18.8m5.6-19.3-.1.5m.2-.4.2-.7m-.3 1.2.1-.5m-4.8 16.1 4.7-15.6m-4.8 15.9v-.3m-.8 3.1.8-2.8m10 77.1-10.8-11.6 18.4 1.9m-19.2 74.5-13.8.6m21.8 2.4-5.9 5.7m.6.1 5.9-5.7m4.6-15.1-.6-.6m-7.6-67-4.7 2.8 13.1 1.4m-33.2-261.4 35.2-20.9m2.9 327.3-26-2.5m25.6 3.2 1-.5m-46.8-208.5 51 3.8m-18.5-15.1 18.5 14.8m-18.6-14.9h.2m-15.7-12.4 15.5 12.4m-15.6 36 34.7-20.6m-34.6-28.2h.2m.1.3-.4-.3m15.8 12.6-15.4-12.3m15.6 12.4-.2-.1m-54 9.7h-.3m7.2.5-6.9-.5m33.6 2.5-26.7-2m47.2-10.2-15.3-12.2m15.4 12.3-.2-.1m13.3 10.6-13.1-10.5m-3.2-35.7 24 1.6m-14.8 9 15.4-8.9m.1-.3h.2m0 .2.4.2m-.6-.3h.1m-46-52.1 47.3-4m-14.8 339.7 17.7-6.1m-4.8 50.2 8.5 6.3 7.4 7.1m-12.6-127.6 8.4 8.4m-7-51.6-33.9 5.4m39.5-11-29.2-15.8m6.6 24.2-9.9 1.6m-1.5-198.1 29.3-10.1m13.7 378-3.2-3.2m-9.4-74.6 14.3-10m-14.1-1.6 27.8 2m-25.2-13.3 12.7-8.5m-18.3 62.9 20.8.2m-7.4-7.5 7.3 7.1m2.9-76.4-24-8.6m25.2 9.4h.1m.1-.3.2.1m1.5-25.1h.2m-.2 0 20.9-.5m-65.9-85.9 47.2-28.7m0-.4-34.6-32m37.1 217.9-14.3-10.8m.6-.5 12.4-8.8m-11.7-2.3 26 1.7m-47.2-247 34.8-20m-14.9 287.5 15 .2 7.4 5.8m-38.3-149.5 31.2 19.6m-46.4-29.2 15.2 9.6m12.2 20.3-23 .7m-5.1-31.4-.2-.1m11.3 7-11-7m11.2 7.2-.2-.2m5 3.2-4.8-3m4.9 3.1-.2-.1m12-111.7 20.4 14m-20.5-14.1h.2m-16.8-11.4 16.6 11.4m-20.2 12 40.9 2.4m-70.6-4.2 29.7 1.8m28.8 274.4 4.9-3.6m-13.2-283-16.3-11.2m16.4 11.3-.2-.1m2 1.3-1.7-1.2m-41.1 10.5-13.2-.7m33.8 2-20.6-1.2m20.9 1.2h-.3m3.4-23.4.3-.2m-.2.3-.1-.1m.5.3-.4-.3m16.8 11.5-16.4-11.2m16.5 11.3-.2-.1m1.1-63.9 20 4.5m-35.3-8.2 38-2.5m-2.1 381.9-5 10.4m2.5-66.2 6.9-5.4m3.7-52.2 5.2 5m2.4 93-7.4 16.1m2.9-64.7 12.6 9.5m-26.2-289.4 26.5-15.3m-12.5 271.5 12-8.2m.6-263.6.7.7m-3.6 236.4 1 1m-32.2 20.1 36.6-25.3-34.8.8m-.3 23.7 10-6.9m12.8-17.6-13.2.3m28.2 100.8-7.5 16m-18.1-124.8-11.9 8m17.5-100.8 21.5 19.6m-21.6-19.7.1.1m-5.5-5 5.4 5m-6.3-5.8.7.7m-5.7-5.2 4.8 4.3m-5-4.5.2.2m-1.6-1.5 1.4 1.3m-1.5-1.4.1.1m-28.8 27.9-21.1-1.2m21.7 1.3h-.6m15.3.5h.3m-6.5-.4 6.2.4m-8.9-.5 2.4.1m-2.6-.1h.2m-6.1-.4 5.9.3m-6.5-.3h.6m-5.8-.4 5.2.4m-5.4-.4h.3m-8.4-.5 8 .5m-8.3-.5h.3m49.3-21.1-6.5-5.9m.1.1-.1-.1m1.4 1.2-1.2-1m1.3 1.2-.2-.2m5.2 4.7-5-4.5m5.8 5.2-.6-.5m6.3 5.7-5.5-5m5.6 5.2-.1-.2m21.9 19.9-21.8-19.8m23.6-38.3-74-8.1m35.1 32.1 39.3-23.8m-23.6 200.1 22.6 1m1.3 2.1-9.6 7.7m3.3-39.7-2.7-2.4 7.4.4m-.6 65.6-2 4.2m-32.6-317 40 21m-41.7-.2 42 .6m-42.1-.6h.1m-.3 0h.1m-24.6-.4 24.5.3m-31.1-.5 6.6.2m26.4-20.8.2-.1m0 .2-.2-.1m1.5.7-1.3-.6m18.9 9.9-17.6-9.3m-36.5 19.6h-.4m33.6.5-33.1-.5m33.2.5h-.1m.2 0h-.1m2.3.1h-2.2m37.7 192.4 4.8 4.9m-1.2-220.3 1.7 1.8m-1.8-1.9.1.1m-5-5.3.2.2m-7.8-8.1 7.5 8m-4.7 7.3h5.9m-34.6.2 28.7-.2m-2.3-15.1-.7-.7m8.2 8.4-7.5-7.7m12.3 12.7-4.8-5m-34.6 7.3h-.4m25.6-.2-25.2.1m25.5-.1h-.2m4 0h-3.8m4.1 0h-.3m6.6-.1-6.2.1m6.5-.1h-.4m-1.5-7.3-7-7.3m18-11.3h.1m-9.6 5.5 9.5-5.5m.2 334.4-7.4 16m10.8-113.9 1.3.1m-3.5-4.7 3.5 4.4m.5 0-3.6-4.7m-8.5 118.5 12.8-9.6-5.4-6.2m4.6-15.2-10.6 7.8m13.1-9.7-25.8-1.2m24.7.9-18-.8m19.3 1.6-7.3 15.8m7.6-16.7-.1-.1m-10.3-.1 5.4.2m-8.1-42.8-13.6-1m17.4-259.3 17.8 3m-17.9-3h.1m-3.5-.6 3.4.6m-4-.7.6.1m-2.5-.4 1.9.3m-12.3-2 10.4 1.7m-11.5-2.2h-.3m.6.1h-.3m11.5 1.8-11.3-1.8m11.5 1.9h-.1m.2 0h-.1m2.1.4-2-.4m2.6.4h-.6m3.6.5-3-.5m3.1.5h-.1m.5-5.3h.1m-4.3.6 4.1-.6m-17.2 2.5 13-2m-13.3 1.8h-.6m1-.1h-.5m13.6-1.9-13 1.9m13.1-2h-.1m.3 0h-.1m3.9-.5-3.8.5m3.9-.6h-.1m19.6 222.9-13.4-1.7m8.2-5.6 5.4 7m-13.4 6.2 13.6-5.7m.3-.5-5.6-7.2m-19.4 61.8 26.2 1.3m-24.8-41.3 18.6-1.2m-16.7 20.3 23.8.8m-66.3-74.2 67 3m-45.5-60.2 46.8 8.4m-47.3-8.5.5.1m-8.5-1.5 8 1.4m-12.2-2.2 3.7.7m-3.8-.7h.2m-.3 0h.1m-6.6-1.2 6.5 1.2m-7.1-1.2h.6m-1.8-.3 1.2.2m-.4-.4h-.4m1.1.1-.6-.1m7.5 1.4-7-1.3m7.1 1.3h-.1m.2 0h-.1m4.2.7-4-.7m7.3 1.3-2.8-.5m7.2 1.3-4.2-.7m4.8.8-.5-.1m2.7.5-2.3-.4m4.1.7-1.5-.2m1.7.3h-.2m46.3 180.6-7.3 15.7m7.8-15.8 5 6m-12.5 10 13.1-10m-12.9 9.6 12.8-9.6m.3-.1-.2.1m-17-98.7 17.4 2.8m-7.1-9.9 7.8 9.7m-24.1 29.8 24.4 1.2m-5.5-38-2.3-3m-70-141.3 81.8 6.8m-47.2 24.6 28.3-14.5m19.7 115.8 10.3 11m-3.8 72.6-10.8 7.9m-7.3-83.5 21.4 3.3m-10.1-11.1 2.8 3m-6.5 15.6 14.1-7.3m-3.8 32-10 5.8m4.3-49.7 12.8-7.7m.5 97.4-7 15.6m-4.1-75.6 15.6-6.7m-3.3 23.1 5.6 5.7m-3.5 21 4.1.3m-.7 2.2-6.3 13.6m7.3-15.2-.2 1.7m-.9-39.4 5-2.7m-11.5-41.4 12.7-7.7m-17.5 77.5 3.2.3m9.6 11.1 10.4-7.7m-.1 20.7v.2m-2.9-55.1 9.6-4.9m-11.7-42.5 12.9-7.9m4.2 101.4-11.4 8.5m-11.3-33.5 24.9 2.1m.2.9-2.1 21.4m-19.5-73.5 25 2.3m-64.8-68.8 66.7 4.8m-46.8-116.5 52-2.5m-54.8 22.2 58.2 2.3m-41.2 67.3 41.4-18.4m.6-49.2-3.7-24m-19 172.2 3.6.3m20.8-38.6 3.3 1.6m-2.5.2h2.8m.4-4.7-.2 4.4m-14.8 28.5 24.7 2.3m-6.5-27.5-2.6-2.8m-16.6 47 20 1.6m7.3.6-12 8.3m7.5-67.4 8.2-5.7-29.5-1.3m26.8 3.3 3.3-2.2m-63.6-28.1 65.7 4.5m-2.1 23.5 24.4-16.8m-33.9 23.5 13.3 4.2m-18.5 4.7 18.9-4.4m1.1 80.8-7 15m-11.3-71 20.4 2m-26.1 16.5 26.6 2m-23.6 17.3 25.7 2m-1.2 2.8-8 5.9m-5.7-38.3 18 1.5m-11.2-19.4 19 2m2.8 36.7-18.2-1.4m18.6 1.7-27.2-2.2m27.6 1.9-12.6-8.3m17 15.8-6.7 14.7m-42.7-185 54-7.5m-30.2 36.1 30.4 22m-25.3 83.2 17.4 1.5m-9.2-72.6-14 9.6m6.7 44.2 27 1.9m4.1 43.4-6.7 14.5m4.6-13.4-8.5 6.4m-8-43.2 4.6.4m8.6 9.2 6.2-4m-2 13.7 8.1.6m.4.3 1 1.6m8.5-11.5 1.3 1m-23.6-1.4 23.8 1.6m-20.7-19.3 22.7-2.8m2.1 29.6-6.2 14.1m-4.5-112.6-20.3 27m34 58.8-6.6 5m10.5-7.4 3.2-2.5m-4.8 6.1 1.6-3.6m3.3 7.8-2.6 6m-12-21 22-1.1m.3-.2.2.1m-13.6.6 13-.7M1558.8 440l58.8-1.9"/></g></svg>